<svg width="142" height="242" viewBox="0 0 142 242" fill="none" xmlns="http://www.w3.org/2000/svg">
<g opacity="0.12" clip-path="url(#clip0_2355_2270)">
<path d="M121.083 0C54.1469 0 0 54.1469 0 121.083C0 187.853 54.1469 242.166 121.083 242.166C187.853 242.166 242.166 188.019 242.166 121.083C242 54.1469 187.853 0 121.083 0ZM121.083 234.36C58.4653 234.36 7.80645 183.701 7.80645 121.083C7.80645 58.4653 58.4653 7.80645 121.083 7.80645C183.701 7.80645 234.36 58.4653 234.36 121.083C234.36 183.535 183.535 234.36 121.083 234.36Z" fill="#FFCF2D"/>
<path d="M121.083 26.0762C68.7634 26.0762 26.2432 68.5964 26.2432 120.916C26.2432 173.236 68.7634 215.756 121.083 215.756C173.403 215.756 215.923 173.402 215.923 121.082C215.923 68.5964 173.403 26.0762 121.083 26.0762ZM121.083 201.306C76.736 201.306 40.6934 165.264 40.6934 120.916C40.6934 76.569 76.736 40.5264 121.083 40.5264C165.431 40.5264 201.473 76.569 201.473 120.916C201.473 165.264 165.431 201.306 121.083 201.306Z" fill="#FFCF2D"/>
</g>
<defs>
<clipPath id="clip0_2355_2270">
<rect width="242" height="242" fill="white"/>
</clipPath>
</defs>
</svg>
