<svg width="136" height="100" viewBox="0 0 136 100" fill="none" xmlns="http://www.w3.org/2000/svg">
<g opacity="0.8" clip-path="url(#clip0_2355_2274)">
<path d="M3.88043 29.3901C3.88043 30.4991 3.04891 31.3309 1.94022 31.3309C0.831522 31.3309 0 30.4991 0 29.3901C0 28.281 0.831522 27.4492 1.94022 27.4492C3.04891 27.4492 3.88043 28.3734 3.88043 29.3901Z" fill="#FFCF2D"/>
<path d="M20.4185 29.3901C20.4185 30.4991 19.587 31.3309 18.4783 31.3309C17.3696 31.3309 16.5381 30.4991 16.5381 29.3901C16.5381 28.281 17.3696 27.4492 18.4783 27.4492C19.4946 27.4492 20.4185 28.3734 20.4185 29.3901Z" fill="#FFCF2D"/>
<path d="M36.8643 29.3901C36.8643 30.4991 36.0328 31.3309 34.9241 31.3309C33.8154 31.3309 32.9839 30.4991 32.9839 29.3901C32.9839 28.281 33.8154 27.4492 34.9241 27.4492C36.0328 27.4492 36.8643 28.3734 36.8643 29.3901Z" fill="#FFCF2D"/>
<path d="M53.4024 29.3901C53.4024 30.4991 52.5709 31.3309 51.4622 31.3309C50.3535 31.3309 49.522 30.4991 49.522 29.3901C49.522 28.281 50.3535 27.4492 51.4622 27.4492C52.5709 27.4492 53.4024 28.3734 53.4024 29.3901Z" fill="#FFCF2D"/>
<path d="M69.94 29.3901C69.94 30.4991 69.1085 31.3309 67.9998 31.3309C66.8911 31.3309 66.0596 30.4991 66.0596 29.3901C66.0596 28.281 66.8911 27.4492 67.9998 27.4492C69.0161 27.4492 69.94 28.3734 69.94 29.3901Z" fill="#FFCF2D"/>
<path d="M86.4781 29.3901C86.4781 30.4991 85.6466 31.3309 84.5379 31.3309C83.4292 31.3309 82.5977 30.4991 82.5977 29.3901C82.5977 28.281 83.4292 27.4492 84.5379 27.4492C85.6466 27.4492 86.4781 28.3734 86.4781 29.3901Z" fill="#FFCF2D"/>
<path d="M102.924 29.3901C102.924 30.4991 102.092 31.3309 100.984 31.3309C99.875 31.3309 99.0435 30.4991 99.0435 29.3901C99.0435 28.281 99.875 27.4492 100.984 27.4492C102.092 27.4492 102.924 28.3734 102.924 29.3901Z" fill="#FFCF2D"/>
<path d="M119.462 29.3901C119.462 30.4991 118.63 31.3309 117.522 31.3309C116.413 31.3309 115.582 30.4991 115.582 29.3901C115.582 28.281 116.413 27.4492 117.522 27.4492C118.63 27.4492 119.462 28.3734 119.462 29.3901Z" fill="#FFCF2D"/>
<path d="M136 29.3901C136 30.4991 135.169 31.3309 134.06 31.3309C132.951 31.3309 132.12 30.4991 132.12 29.3901C132.12 28.281 132.951 27.4492 134.06 27.4492C135.076 27.4492 136 28.3734 136 29.3901Z" fill="#FFCF2D"/>
<path d="M3.88043 43.1606C3.88043 44.2696 3.04891 45.1014 1.94022 45.1014C0.831522 45.1014 0 44.2696 0 43.1606C0 42.0515 0.831522 41.2197 1.94022 41.2197C3.04891 41.2197 3.88043 42.0515 3.88043 43.1606Z" fill="#FFCF2D"/>
<path d="M20.4185 43.1606C20.4185 44.2696 19.587 45.1014 18.4783 45.1014C17.3696 45.1014 16.5381 44.2696 16.5381 43.1606C16.5381 42.0515 17.3696 41.2197 18.4783 41.2197C19.4946 41.2197 20.4185 42.0515 20.4185 43.1606Z" fill="#FFCF2D"/>
<path d="M36.8643 43.1606C36.8643 44.2696 36.0328 45.1014 34.9241 45.1014C33.8154 45.1014 32.9839 44.2696 32.9839 43.1606C32.9839 42.0515 33.8154 41.2197 34.9241 41.2197C36.0328 41.2197 36.8643 42.0515 36.8643 43.1606Z" fill="#FFCF2D"/>
<path d="M53.4024 43.1606C53.4024 44.2696 52.5709 45.1014 51.4622 45.1014C50.3535 45.1014 49.522 44.2696 49.522 43.1606C49.522 42.0515 50.3535 41.2197 51.4622 41.2197C52.5709 41.2197 53.4024 42.0515 53.4024 43.1606Z" fill="#FFCF2D"/>
<path d="M69.94 43.1606C69.94 44.2696 69.1085 45.1014 67.9998 45.1014C66.8911 45.1014 66.0596 44.2696 66.0596 43.1606C66.0596 42.0515 66.8911 41.2197 67.9998 41.2197C69.0161 41.2197 69.94 42.0515 69.94 43.1606Z" fill="#FFCF2D"/>
<path d="M86.4781 43.1606C86.4781 44.2696 85.6466 45.1014 84.5379 45.1014C83.4292 45.1014 82.5977 44.2696 82.5977 43.1606C82.5977 42.0515 83.4292 41.2197 84.5379 41.2197C85.6466 41.2197 86.4781 42.0515 86.4781 43.1606Z" fill="#FFCF2D"/>
<path d="M102.924 43.1606C102.924 44.2696 102.092 45.1014 100.984 45.1014C99.875 45.1014 99.0435 44.2696 99.0435 43.1606C99.0435 42.0515 99.875 41.2197 100.984 41.2197C102.092 41.2197 102.924 42.0515 102.924 43.1606Z" fill="#FFCF2D"/>
<path d="M119.462 43.1606C119.462 44.2696 118.63 45.1014 117.522 45.1014C116.413 45.1014 115.582 44.2696 115.582 43.1606C115.582 42.0515 116.413 41.2197 117.522 41.2197C118.63 41.2197 119.462 42.0515 119.462 43.1606Z" fill="#FFCF2D"/>
<path d="M136 43.1606C136 44.2696 135.169 45.1014 134.06 45.1014C132.951 45.1014 132.12 44.2696 132.12 43.1606C132.12 42.0515 132.951 41.2197 134.06 41.2197C135.076 41.2197 136 42.0515 136 43.1606Z" fill="#FFCF2D"/>
<path d="M3.88043 1.94085C3.88043 3.04991 3.04891 3.8817 1.94022 3.8817C0.831522 3.8817 0 3.04991 0 1.94085C0 0.831793 0.831522 0 1.94022 0C3.04891 0 3.88043 0.831793 3.88043 1.94085Z" fill="#FFCF2D"/>
<path d="M20.4185 1.94085C20.4185 3.04991 19.587 3.8817 18.4783 3.8817C17.3696 3.8817 16.5381 3.04991 16.5381 1.94085C16.5381 0.831793 17.3696 0 18.4783 0C19.4946 0 20.4185 0.831793 20.4185 1.94085Z" fill="#FFCF2D"/>
<path d="M36.8643 1.94085C36.8643 3.04991 36.0328 3.8817 34.9241 3.8817C33.8154 3.8817 32.9839 3.04991 32.9839 1.94085C32.9839 0.831793 33.9078 0 34.9241 0C36.0328 0 36.8643 0.831793 36.8643 1.94085Z" fill="#FFCF2D"/>
<path d="M53.4024 1.94085C53.4024 3.04991 52.5709 3.8817 51.4622 3.8817C50.3535 3.8817 49.522 3.04991 49.522 1.94085C49.522 0.831793 50.4459 0 51.4622 0C52.4785 0 53.4024 0.831793 53.4024 1.94085Z" fill="#FFCF2D"/>
<path d="M69.94 1.94085C69.94 3.04991 69.1085 3.8817 67.9998 3.8817C66.8911 3.8817 66.0596 3.04991 66.0596 1.94085C66.0596 0.831793 66.8911 0 67.9998 0C69.0161 0 69.94 0.831793 69.94 1.94085Z" fill="#FFCF2D"/>
<path d="M86.4781 1.94085C86.4781 3.04991 85.6466 3.8817 84.5379 3.8817C83.4292 3.8817 82.5977 3.04991 82.5977 1.94085C82.5977 0.831793 83.4292 0 84.5379 0C85.6466 0 86.4781 0.831793 86.4781 1.94085Z" fill="#FFCF2D"/>
<path d="M102.924 1.94085C102.924 3.04991 102.092 3.8817 100.984 3.8817C99.875 3.8817 99.0435 3.04991 99.0435 1.94085C99.0435 0.831793 99.875 0 100.984 0C102.092 0 102.924 0.831793 102.924 1.94085Z" fill="#FFCF2D"/>
<path d="M119.462 1.94085C119.462 3.04991 118.63 3.8817 117.522 3.8817C116.413 3.8817 115.582 3.04991 115.582 1.94085C115.582 0.831793 116.413 0 117.522 0C118.63 0 119.462 0.831793 119.462 1.94085Z" fill="#FFCF2D"/>
<path d="M136 1.94085C136 3.04991 135.169 3.8817 134.06 3.8817C132.951 3.8817 132.12 3.04991 132.12 1.94085C132.12 0.831793 132.951 0 134.06 0C135.076 0 136 0.831793 136 1.94085Z" fill="#FFCF2D"/>
<path d="M3.88044 15.7114C3.88044 16.8204 3.04891 17.6522 1.94022 17.6522C0.831522 17.6522 0 16.728 0 15.7114C0 14.6023 0.831522 13.7705 1.94022 13.7705C3.04891 13.7705 3.88044 14.6023 3.88044 15.7114Z" fill="#FFCF2D"/>
<path d="M20.4185 15.7114C20.4185 16.8204 19.587 17.6522 18.4783 17.6522C17.3696 17.6522 16.5381 16.8204 16.5381 15.7114C16.5381 14.6023 17.3696 13.7705 18.4783 13.7705C19.4946 13.7705 20.4185 14.6023 20.4185 15.7114Z" fill="#FFCF2D"/>
<path d="M36.8643 15.7114C36.8643 16.8204 36.0328 17.6522 34.9241 17.6522C33.8154 17.6522 32.9839 16.8204 32.9839 15.7114C32.9839 14.6023 33.8154 13.7705 34.9241 13.7705C36.0328 13.7705 36.8643 14.6023 36.8643 15.7114Z" fill="#FFCF2D"/>
<path d="M53.4024 15.7114C53.4024 16.8204 52.5709 17.6522 51.4622 17.6522C50.3535 17.6522 49.522 16.8204 49.522 15.7114C49.522 14.6023 50.3535 13.7705 51.4622 13.7705C52.5709 13.7705 53.4024 14.6023 53.4024 15.7114Z" fill="#FFCF2D"/>
<path d="M69.94 15.7114C69.94 16.8204 69.1085 17.6522 67.9998 17.6522C66.8911 17.6522 66.0596 16.8204 66.0596 15.7114C66.0596 14.6023 66.8911 13.7705 67.9998 13.7705C69.0161 13.7705 69.94 14.6023 69.94 15.7114Z" fill="#FFCF2D"/>
<path d="M86.4781 15.7114C86.4781 16.8204 85.6466 17.6522 84.5379 17.6522C83.4292 17.6522 82.5977 16.8204 82.5977 15.7114C82.5977 14.6023 83.4292 13.7705 84.5379 13.7705C85.6466 13.7705 86.4781 14.6023 86.4781 15.7114Z" fill="#FFCF2D"/>
<path d="M102.924 15.7114C102.924 16.8204 102.092 17.6522 100.984 17.6522C99.875 17.6522 99.0435 16.8204 99.0435 15.7114C99.0435 14.6023 99.875 13.7705 100.984 13.7705C102.092 13.7705 102.924 14.6023 102.924 15.7114Z" fill="#FFCF2D"/>
<path d="M119.462 15.7114C119.462 16.8204 118.63 17.6522 117.522 17.6522C116.413 17.6522 115.582 16.8204 115.582 15.7114C115.582 14.6023 116.413 13.7705 117.522 13.7705C118.63 13.7705 119.462 14.6023 119.462 15.7114Z" fill="#FFCF2D"/>
<path d="M136 15.7114C136 16.8204 135.169 17.6522 134.06 17.6522C132.951 17.6522 132.12 16.8204 132.12 15.7114C132.12 14.6023 132.951 13.7705 134.06 13.7705C135.076 13.7705 136 14.6023 136 15.7114Z" fill="#FFCF2D"/>
<path d="M3.88044 56.8393C3.88044 57.9483 3.04891 58.7801 1.94022 58.7801C0.831522 58.7801 0 57.9483 0 56.8393C0 55.7302 0.831522 54.8984 1.94022 54.8984C3.04891 54.8984 3.88044 55.8226 3.88044 56.8393Z" fill="#FFCF2D"/>
<path d="M20.4185 56.8393C20.4185 57.9483 19.587 58.7801 18.4783 58.7801C17.3696 58.7801 16.5381 57.9483 16.5381 56.8393C16.5381 55.7302 17.3696 54.8984 18.4783 54.8984C19.4946 54.8984 20.4185 55.8226 20.4185 56.8393Z" fill="#FFCF2D"/>
<path d="M36.8643 56.8393C36.8643 57.9483 36.0328 58.7801 34.9241 58.7801C33.8154 58.7801 32.9839 57.9483 32.9839 56.8393C32.9839 55.7302 33.8154 54.8984 34.9241 54.8984C36.0328 54.8984 36.8643 55.8226 36.8643 56.8393Z" fill="#FFCF2D"/>
<path d="M53.4024 56.8393C53.4024 57.9483 52.5709 58.7801 51.4622 58.7801C50.3535 58.7801 49.522 57.9483 49.522 56.8393C49.522 55.7302 50.3535 54.8984 51.4622 54.8984C52.5709 54.8984 53.4024 55.8226 53.4024 56.8393Z" fill="#FFCF2D"/>
<path d="M69.94 56.8393C69.94 57.9483 69.1085 58.7801 67.9998 58.7801C66.8911 58.7801 66.0596 57.9483 66.0596 56.8393C66.0596 55.7302 66.8911 54.8984 67.9998 54.8984C69.0161 54.8984 69.94 55.8226 69.94 56.8393Z" fill="#FFCF2D"/>
<path d="M86.4781 56.8393C86.4781 57.9483 85.6466 58.7801 84.5379 58.7801C83.4292 58.7801 82.5977 57.9483 82.5977 56.8393C82.5977 55.7302 83.4292 54.8984 84.5379 54.8984C85.6466 54.8984 86.4781 55.8226 86.4781 56.8393Z" fill="#FFCF2D"/>
<path d="M102.924 56.8393C102.924 57.9483 102.092 58.7801 100.984 58.7801C99.875 58.7801 99.0435 57.9483 99.0435 56.8393C99.0435 55.7302 99.875 54.8984 100.984 54.8984C102.092 54.8984 102.924 55.8226 102.924 56.8393Z" fill="#FFCF2D"/>
<path d="M119.462 56.8393C119.462 57.9483 118.63 58.7801 117.522 58.7801C116.413 58.7801 115.582 57.9483 115.582 56.8393C115.582 55.7302 116.413 54.8984 117.522 54.8984C118.63 54.8984 119.462 55.8226 119.462 56.8393Z" fill="#FFCF2D"/>
<path d="M136 56.8393C136 57.9483 135.169 58.7801 134.06 58.7801C132.951 58.7801 132.12 57.9483 132.12 56.8393C132.12 55.7302 132.951 54.8984 134.06 54.8984C135.076 54.8984 136 55.8226 136 56.8393Z" fill="#FFCF2D"/>
<path d="M3.88043 70.6098C3.88043 71.7189 3.04891 72.5506 1.94022 72.5506C0.831522 72.5506 0 71.7189 0 70.6098C0 69.5007 0.831522 68.6689 1.94022 68.6689C3.04891 68.6689 3.88043 69.5007 3.88043 70.6098Z" fill="#FFCF2D"/>
<path d="M20.4185 70.6098C20.4185 71.7189 19.587 72.5506 18.4783 72.5506C17.3696 72.5506 16.5381 71.7189 16.5381 70.6098C16.5381 69.5007 17.3696 68.6689 18.4783 68.6689C19.4946 68.6689 20.4185 69.5007 20.4185 70.6098Z" fill="#FFCF2D"/>
<path d="M36.8643 70.6098C36.8643 71.7189 36.0328 72.5506 34.9241 72.5506C33.8154 72.5506 32.9839 71.7189 32.9839 70.6098C32.9839 69.5007 33.8154 68.6689 34.9241 68.6689C36.0328 68.6689 36.8643 69.5007 36.8643 70.6098Z" fill="#FFCF2D"/>
<path d="M51.4622 72.5506C52.5337 72.5506 53.4024 71.6817 53.4024 70.6098C53.4024 69.5379 52.5337 68.6689 51.4622 68.6689C50.3906 68.6689 49.522 69.5379 49.522 70.6098C49.522 71.6817 50.3906 72.5506 51.4622 72.5506Z" fill="#FFCF2D"/>
<path d="M69.94 70.6098C69.94 71.7189 69.1085 72.5506 67.9998 72.5506C66.8911 72.5506 66.0596 71.7189 66.0596 70.6098C66.0596 69.5007 66.8911 68.6689 67.9998 68.6689C69.0161 68.6689 69.94 69.5007 69.94 70.6098Z" fill="#FFCF2D"/>
<path d="M86.4781 70.6098C86.4781 71.7189 85.6466 72.5506 84.5379 72.5506C83.4292 72.5506 82.5977 71.7189 82.5977 70.6098C82.5977 69.5007 83.4292 68.6689 84.5379 68.6689C85.6466 68.6689 86.4781 69.5007 86.4781 70.6098Z" fill="#FFCF2D"/>
<path d="M102.924 70.6098C102.924 71.7189 102.092 72.5506 100.984 72.5506C99.875 72.5506 99.0435 71.7189 99.0435 70.6098C99.0435 69.5007 99.875 68.6689 100.984 68.6689C102.092 68.6689 102.924 69.5007 102.924 70.6098Z" fill="#FFCF2D"/>
<path d="M117.522 72.5506C118.593 72.5506 119.462 71.6817 119.462 70.6098C119.462 69.5379 118.593 68.6689 117.522 68.6689C116.45 68.6689 115.582 69.5379 115.582 70.6098C115.582 71.6817 116.45 72.5506 117.522 72.5506Z" fill="#FFCF2D"/>
<path d="M136 70.6098C136 71.7189 135.169 72.5506 134.06 72.5506C132.951 72.5506 132.12 71.7189 132.12 70.6098C132.12 69.5007 132.951 68.6689 134.06 68.6689C135.076 68.6689 136 69.5007 136 70.6098Z" fill="#FFCF2D"/>
<path d="M3.88043 84.3813C3.88043 85.4903 3.04891 86.3221 1.94022 86.3221C0.831522 86.3221 0 85.4903 0 84.3813C0 83.2722 0.831522 82.4404 1.94022 82.4404C3.04891 82.4404 3.88043 83.2722 3.88043 84.3813Z" fill="#FFCF2D"/>
<path d="M20.4185 84.3813C20.4185 85.4903 19.587 86.3221 18.4783 86.3221C17.3696 86.3221 16.5381 85.4903 16.5381 84.3813C16.5381 83.2722 17.3696 82.4404 18.4783 82.4404C19.4946 82.4404 20.4185 83.2722 20.4185 84.3813Z" fill="#FFCF2D"/>
<path d="M36.8643 84.3813C36.8643 85.4903 36.0328 86.3221 34.9241 86.3221C33.8154 86.3221 32.9839 85.4903 32.9839 84.3813C32.9839 83.2722 33.8154 82.4404 34.9241 82.4404C36.0328 82.4404 36.8643 83.2722 36.8643 84.3813Z" fill="#FFCF2D"/>
<path d="M53.4024 84.3813C53.4024 85.4903 52.5709 86.3221 51.4622 86.3221C50.3535 86.3221 49.522 85.4903 49.522 84.3813C49.522 83.2722 50.3535 82.4404 51.4622 82.4404C52.5709 82.4404 53.4024 83.2722 53.4024 84.3813Z" fill="#FFCF2D"/>
<path d="M69.94 84.3813C69.94 85.4903 69.1085 86.3221 67.9998 86.3221C66.8911 86.3221 66.0596 85.4903 66.0596 84.3813C66.0596 83.2722 66.8911 82.4404 67.9998 82.4404C69.0161 82.4404 69.94 83.2722 69.94 84.3813Z" fill="#FFCF2D"/>
<path d="M86.4781 84.3813C86.4781 85.4903 85.6466 86.3221 84.5379 86.3221C83.4292 86.3221 82.5977 85.4903 82.5977 84.3813C82.5977 83.2722 83.4292 82.4404 84.5379 82.4404C85.6466 82.4404 86.4781 83.2722 86.4781 84.3813Z" fill="#FFCF2D"/>
<path d="M102.924 84.3813C102.924 85.4903 102.092 86.3221 100.984 86.3221C99.875 86.3221 99.0435 85.4903 99.0435 84.3813C99.0435 83.2722 99.875 82.4404 100.984 82.4404C102.092 82.4404 102.924 83.2722 102.924 84.3813Z" fill="#FFCF2D"/>
<path d="M119.462 84.3813C119.462 85.4903 118.63 86.3221 117.522 86.3221C116.413 86.3221 115.582 85.4903 115.582 84.3813C115.582 83.2722 116.413 82.4404 117.522 82.4404C118.63 82.4404 119.462 83.2722 119.462 84.3813Z" fill="#FFCF2D"/>
<path d="M136 84.3813C136 85.4903 135.169 86.3221 134.06 86.3221C132.951 86.3221 132.12 85.4903 132.12 84.3813C132.12 83.2722 132.951 82.4404 134.06 82.4404C135.076 82.4404 136 83.2722 136 84.3813Z" fill="#FFCF2D"/>
<path d="M3.88043 98.059C3.88043 99.1681 3.04891 99.9999 1.94022 99.9999C0.831522 99.9999 0 99.1681 0 98.059C0 96.95 0.831522 96.1182 1.94022 96.1182C3.04891 96.1182 3.88043 97.0424 3.88043 98.059Z" fill="#FFCF2D"/>
<path d="M20.4185 98.059C20.4185 99.1681 19.587 99.9999 18.4783 99.9999C17.3696 99.9999 16.5381 99.1681 16.5381 98.059C16.5381 96.95 17.3696 96.1182 18.4783 96.1182C19.4946 96.1182 20.4185 97.0424 20.4185 98.059Z" fill="#FFCF2D"/>
<path d="M36.8643 98.059C36.8643 99.1681 36.0328 99.9999 34.9241 99.9999C33.8154 99.9999 32.9839 99.1681 32.9839 98.059C32.9839 96.95 33.8154 96.1182 34.9241 96.1182C36.0328 96.1182 36.8643 97.0424 36.8643 98.059Z" fill="#FFCF2D"/>
<path d="M53.4024 98.059C53.4024 99.1681 52.5709 99.9999 51.4622 99.9999C50.3535 99.9999 49.522 99.1681 49.522 98.059C49.522 96.95 50.3535 96.1182 51.4622 96.1182C52.5709 96.1182 53.4024 97.0424 53.4024 98.059Z" fill="#FFCF2D"/>
<path d="M69.94 98.059C69.94 99.1681 69.1085 99.9999 67.9998 99.9999C66.8911 99.9999 66.0596 99.1681 66.0596 98.059C66.0596 96.95 66.8911 96.1182 67.9998 96.1182C69.0161 96.1182 69.94 97.0424 69.94 98.059Z" fill="#FFCF2D"/>
<path d="M86.4781 98.059C86.4781 99.1681 85.6466 99.9999 84.5379 99.9999C83.4292 99.9999 82.5977 99.1681 82.5977 98.059C82.5977 96.95 83.4292 96.1182 84.5379 96.1182C85.6466 96.1182 86.4781 97.0424 86.4781 98.059Z" fill="#FFCF2D"/>
<path d="M102.924 98.059C102.924 99.1681 102.092 99.9999 100.984 99.9999C99.875 99.9999 99.0435 99.1681 99.0435 98.059C99.0435 96.95 99.875 96.1182 100.984 96.1182C102.092 96.1182 102.924 97.0424 102.924 98.059Z" fill="#FFCF2D"/>
<path d="M119.462 98.059C119.462 99.1681 118.63 99.9999 117.522 99.9999C116.413 99.9999 115.582 99.1681 115.582 98.059C115.582 96.95 116.413 96.1182 117.522 96.1182C118.63 96.1182 119.462 97.0424 119.462 98.059Z" fill="#FFCF2D"/>
<path d="M136 98.059C136 99.1681 135.169 99.9999 134.06 99.9999C132.951 99.9999 132.12 99.1681 132.12 98.059C132.12 96.95 132.951 96.1182 134.06 96.1182C135.076 96.1182 136 97.0424 136 98.059Z" fill="#FFCF2D"/>
</g>
<defs>
<clipPath id="clip0_2355_2274">
<rect width="136" height="100" fill="white"/>
</clipPath>
</defs>
</svg>
