<svg width="115" height="115" viewBox="0 0 115 115" fill="none" xmlns="http://www.w3.org/2000/svg">
<g opacity="0.6" clip-path="url(#clip0_2355_3428)">
<path d="M57.5395 0C25.731 0 0 25.731 0 57.5395C0 89.2691 25.731 115.079 57.5395 115.079C89.2691 115.079 115.079 89.348 115.079 57.5395C115 25.731 89.2691 0 57.5395 0ZM57.5395 111.369C27.7831 111.369 3.70968 87.2958 3.70968 57.5395C3.70968 27.7831 27.7831 3.70968 57.5395 3.70968C87.2958 3.70968 111.369 27.7831 111.369 57.5395C111.369 87.2169 87.2169 111.369 57.5395 111.369Z" fill="white"/>
<path d="M57.5393 12.3926C32.6766 12.3926 12.4707 32.5985 12.4707 57.4612C12.4707 82.324 32.6766 102.53 57.5393 102.53C82.4021 102.53 102.608 82.4029 102.608 57.5401C102.608 32.5985 82.4021 12.3926 57.5393 12.3926ZM57.5393 95.663C36.4652 95.663 19.3376 78.5353 19.3376 57.4612C19.3376 36.3871 36.4652 19.2594 57.5393 19.2594C78.6135 19.2594 95.7411 36.3871 95.7411 57.4612C95.7411 78.5353 78.6135 95.663 57.5393 95.663Z" fill="white"/>
<path d="M57.5399 32.2031C43.5694 32.2031 32.2036 43.5689 32.2036 57.5394C32.2036 71.5099 43.4905 82.8757 57.5399 82.8757C71.5104 82.8757 82.8762 71.5099 82.8762 57.5394C82.7973 43.5689 71.5104 32.2031 57.5399 32.2031ZM57.5399 71.1152C50.0416 71.1152 43.9641 65.0377 43.9641 57.5394C43.9641 50.0411 50.0416 43.9636 57.5399 43.9636C65.0382 43.9636 71.1158 50.0411 71.1158 57.5394C71.1158 65.0377 65.0382 71.1152 57.5399 71.1152Z" fill="white"/>
</g>
<defs>
<clipPath id="clip0_2355_3428">
<rect width="115" height="115" fill="white"/>
</clipPath>
</defs>
</svg>
