<svg width="20" height="20" viewBox="0 0 20 20" fill="none" xmlns="http://www.w3.org/2000/svg">
<g opacity="0.6">
<path d="M18.329 18.3327L18.3332 18.332V12.2195C18.3332 9.22921 17.6894 6.92574 14.1936 6.92574C12.513 6.92574 11.3853 7.84796 10.9248 8.72227H10.8762V7.2049H7.56163V18.332H11.013V12.8223C11.013 11.3716 11.288 9.9688 13.0846 9.9688C14.8547 9.9688 14.8811 11.6244 14.8811 12.9153V18.3327H18.329Z" fill="white"/>
<path d="M1.9415 7.2056H5.39706V18.3327H1.9415V7.2056Z" fill="white"/>
<path d="M3.66789 1.66602C2.56303 1.66602 1.6665 2.56254 1.6665 3.6674C1.6665 4.77227 2.56303 5.68754 3.66789 5.68754C4.77275 5.68754 5.66928 4.77227 5.66928 3.6674C5.66859 2.56254 4.77206 1.66602 3.66789 1.66602Z" fill="white"/>
</g>
</svg>
