<svg aria-hidden="true" style="position: absolute; width: 0; height: 0; overflow: hidden;" version="1.1" xmlns="http://www.w3.org/2000/svg" xmlns:xlink="http://www.w3.org/1999/xlink">
<defs>
<symbol id="icon-check" viewBox="0 0 32 32">
<path fill="#ff3f3a" style="fill: var(--color1, #ff3f3a)" d="M16 30.665c8.087 0 14.667-6.579 14.667-14.667 0-1.396-0.195-2.771-0.581-4.089-0.19-0.648-0.866-1.020-1.516-0.83-0.648 0.189-1.019 0.868-0.83 1.516 0.32 1.095 0.482 2.24 0.482 3.403 0 6.739-5.483 12.222-12.222 12.222s-12.222-5.483-12.222-12.222c0-6.739 5.483-12.222 12.222-12.222 2.449 0 4.806 0.716 6.815 2.071 0.559 0.377 1.319 0.229 1.696-0.33s0.23-1.319-0.33-1.697c-2.414-1.628-5.243-2.488-8.181-2.488-8.087 0-14.667 6.579-14.667 14.667s6.58 14.667 14.667 14.667z"></path>
<path fill="#ff3f3a" style="fill: var(--color1, #ff3f3a)" d="M29.723 3.056l-13.724 13.723-4.391-4.39c-0.521-0.521-1.365-0.521-1.885 0s-0.521 1.365 0 1.885l5.333 5.333c0.261 0.261 0.601 0.391 0.943 0.391s0.682-0.13 0.943-0.391l14.667-14.667c0.521-0.521 0.521-1.365 0-1.885s-1.365-0.521-1.885 0z"></path>
</symbol>
</defs>
</svg>
