<svg width="16" height="16" viewBox="0 0 16 16" fill="none" xmlns="http://www.w3.org/2000/svg">
<path fill-rule="evenodd" clip-rule="evenodd" d="M7.99974 13.2715C4.9337 11.5252 3.22366 9.78955 2.39675 8.28361C1.55041 6.74228 1.62425 5.4441 2.09389 4.52273C3.05921 2.62892 5.80427 2.02333 7.47678 4.13865L7.9997 4.80001L8.52266 4.13868C10.1955 2.02327 12.9407 2.62896 13.906 4.52273C14.3756 5.44409 14.4494 6.74226 13.603 8.28359C12.776 9.78954 11.0659 11.5252 7.99974 13.2715ZM7.99977 2.73726C5.64696 0.501518 2.17604 1.42555 0.905976 3.91723C0.208948 5.2847 0.199427 7.05212 1.22802 8.92536C2.24749 10.782 4.28009 12.7417 7.67724 14.6194L7.99973 14.7976L8.32222 14.6194C11.7195 12.7417 13.7522 10.782 14.7717 8.92537C15.8004 7.05214 15.7909 5.28472 15.0939 3.91723C13.8238 1.4255 10.3528 0.501552 7.99977 2.73726Z" fill="#FF3F3A"/>
</svg>
