<svg width="18" height="18" viewBox="0 0 18 18" fill="none" xmlns="http://www.w3.org/2000/svg">
<path fill-rule="evenodd" clip-rule="evenodd" d="M9.00019 1.70866C7.38936 1.70866 6.08353 3.0145 6.08353 4.62533C6.08353 6.23616 7.38936 7.54199 9.00019 7.54199C10.611 7.54199 11.9169 6.23616 11.9169 4.62533C11.9169 3.0145 10.611 1.70866 9.00019 1.70866ZM4.41686 4.62533C4.41686 2.09402 6.46889 0.0419922 9.00019 0.0419922C11.5315 0.0419922 13.5835 2.09402 13.5835 4.62533C13.5835 7.15663 11.5315 9.20866 9.00019 9.20866C6.46889 9.20866 4.41686 7.15663 4.41686 4.62533Z" fill="#424551"/>
<path fill-rule="evenodd" clip-rule="evenodd" d="M4.08691 11.7087C3.50914 11.7087 3.05755 11.99 2.87424 12.3942C2.62053 12.9536 2.39078 13.6196 2.33656 14.2513C2.31233 14.5337 2.43006 14.7418 2.5923 14.8426C3.44993 15.3753 5.43719 16.292 9.00019 16.292C12.5632 16.292 14.5505 15.3753 15.4081 14.8426C15.5703 14.7418 15.6881 14.5337 15.6638 14.2513C15.6096 13.6196 15.3799 12.9536 15.1261 12.3942C14.9428 11.99 14.4912 11.7087 13.9135 11.7087H4.08691ZM1.35639 11.7058C1.86301 10.5887 2.99428 10.042 4.08691 10.042H13.9135C15.0061 10.042 16.1374 10.5887 16.644 11.7058C16.935 12.3474 17.2472 13.2099 17.3244 14.1088C17.3946 14.9273 17.0544 15.7819 16.2876 16.2583C15.1596 16.959 12.8665 17.9587 9.00019 17.9587C5.13386 17.9587 2.84078 16.959 1.71283 16.2583C0.945947 15.7819 0.605747 14.9273 0.676001 14.1088C0.753149 13.2099 1.0654 12.3474 1.35639 11.7058Z" fill="#424551"/>
</svg>
