<svg width="16" height="17" viewBox="0 0 16 17" fill="none" xmlns="http://www.w3.org/2000/svg">
<g clip-path="url(#clip0_51392_1128)">
<path fill-rule="evenodd" clip-rule="evenodd" d="M4.13333 4.76706C4.13333 2.63156 5.8645 0.900391 8 0.900391C10.1355 0.900391 11.8667 2.63156 11.8667 4.76706V7.96706C11.8667 10.1026 10.1355 11.8337 8 11.8337C5.8645 11.8337 4.13333 10.1026 4.13333 7.96706V4.76706ZM8 2.23372C6.60088 2.23372 5.46667 3.36794 5.46667 4.76706V7.96706C5.46667 9.36618 6.60088 10.5004 8 10.5004C9.39912 10.5004 10.5333 9.36618 10.5333 7.96706V4.76706C10.5333 3.36794 9.39912 2.23372 8 2.23372Z" fill="#424551"/>
<path fill-rule="evenodd" clip-rule="evenodd" d="M2.66667 6.23372C3.03486 6.23372 3.33333 6.5322 3.33333 6.90039V7.96706C3.33333 10.5444 5.42267 12.6337 8 12.6337C10.5773 12.6337 12.6667 10.5444 12.6667 7.96706V6.90039C12.6667 6.5322 12.9651 6.23372 13.3333 6.23372C13.7015 6.23372 14 6.5322 14 6.90039V7.96706C14 11.2808 11.3137 13.9671 8 13.9671C4.68629 13.9671 2 11.2808 2 7.96706V6.90039C2 6.5322 2.29848 6.23372 2.66667 6.23372Z" fill="#424551"/>
<path fill-rule="evenodd" clip-rule="evenodd" d="M8 13.1671C8.36819 13.1671 8.66667 13.4655 8.66667 13.8337V14.7671H10.1333C10.5015 14.7671 10.8 15.0655 10.8 15.4337C10.8 15.8019 10.5015 16.1004 10.1333 16.1004H5.86667C5.49848 16.1004 5.2 15.8019 5.2 15.4337C5.2 15.0655 5.49848 14.7671 5.86667 14.7671H7.33333V13.8337C7.33333 13.4655 7.63181 13.1671 8 13.1671Z" fill="#424551"/>
</g>
<defs>
<clipPath id="clip0_51392_1128">
<rect width="16" height="16" fill="white" transform="translate(0 0.5)"/>
</clipPath>
</defs>
</svg>
