<svg width="145" height="145" viewBox="0 0 145 145" fill="none" xmlns="http://www.w3.org/2000/svg">
<path d="M72.5498 0C32.4434 0 0 32.4434 0 72.5498C0 112.557 32.4434 145.1 72.5498 145.1C112.557 145.1 145.1 112.656 145.1 72.5498C145 32.4434 112.557 0 72.5498 0ZM72.5498 140.422C35.0309 140.422 4.67742 110.069 4.67742 72.5498C4.67742 35.0309 35.0309 4.67742 72.5498 4.67742C110.069 4.67742 140.422 35.0309 140.422 72.5498C140.422 109.969 109.969 140.422 72.5498 140.422Z" fill="white"/>
<path d="M72.5498 15.625C41.2011 15.625 15.7241 41.102 15.7241 72.4507C15.7241 103.799 41.2011 129.276 72.5498 129.276C103.898 129.276 129.375 103.899 129.375 72.5502C129.375 41.102 103.898 15.625 72.5498 15.625ZM72.5498 120.618C45.9781 120.618 24.3823 99.0224 24.3823 72.4507C24.3823 45.8789 45.9781 24.2832 72.5498 24.2832C99.1215 24.2832 120.717 45.8789 120.717 72.4507C120.717 99.0224 99.1215 120.618 72.5498 120.618Z" fill="white"/>
<path d="M72.5503 40.6035C54.9353 40.6035 40.6045 54.9343 40.6045 72.5493C40.6045 90.1642 54.8358 104.495 72.5503 104.495C90.1652 104.495 104.496 90.1642 104.496 72.5493C104.397 54.9343 90.1652 40.6035 72.5503 40.6035ZM72.5503 89.6666C63.0959 89.6666 55.4329 82.0036 55.4329 72.5493C55.4329 63.0949 63.0959 55.4319 72.5503 55.4319C82.0046 55.4319 89.6676 63.0949 89.6676 72.5493C89.6676 82.0036 82.0046 89.6666 72.5503 89.6666Z" fill="white"/>
</svg>
