<svg width="143" height="105" viewBox="0 0 143 105" fill="none" xmlns="http://www.w3.org/2000/svg">
<g clip-path="url(#clip0_2234_9828)">
<path d="M4.08016 30.8602C4.08016 32.0247 3.20584 32.8981 2.04008 32.8981C0.874321 32.8981 0 32.0247 0 30.8602C0 29.6956 0.874321 28.8223 2.04008 28.8223C3.20584 28.8223 4.08016 29.7927 4.08016 30.8602Z" fill="white"/>
<path d="M21.4693 30.8602C21.4693 32.0247 20.595 32.8981 19.4292 32.8981C18.2635 32.8981 17.3892 32.0247 17.3892 30.8602C17.3892 29.6956 18.2635 28.8223 19.4292 28.8223C20.4979 28.8223 21.4693 29.7927 21.4693 30.8602Z" fill="white"/>
<path d="M38.7618 30.8602C38.7618 32.0247 37.8875 32.8981 36.7217 32.8981C35.556 32.8981 34.6816 32.0247 34.6816 30.8602C34.6816 29.6956 35.556 28.8223 36.7217 28.8223C37.8875 28.8223 38.7618 29.7927 38.7618 30.8602Z" fill="white"/>
<path d="M56.151 30.8602C56.151 32.0247 55.2766 32.8981 54.1109 32.8981C52.9451 32.8981 52.0708 32.0247 52.0708 30.8602C52.0708 29.6956 52.9451 28.8223 54.1109 28.8223C55.2766 28.8223 56.151 29.7927 56.151 30.8602Z" fill="white"/>
<path d="M73.5401 30.8602C73.5401 32.0247 72.6658 32.8981 71.5 32.8981C70.3343 32.8981 69.46 32.0247 69.46 30.8602C69.46 29.6956 70.3343 28.8223 71.5 28.8223C72.5687 28.8223 73.5401 29.7927 73.5401 30.8602Z" fill="white"/>
<path d="M90.9293 30.8602C90.9293 32.0247 90.055 32.8981 88.8892 32.8981C87.7234 32.8981 86.8491 32.0247 86.8491 30.8602C86.8491 29.6956 87.7234 28.8223 88.8892 28.8223C90.055 28.8223 90.9293 29.7927 90.9293 30.8602Z" fill="white"/>
<path d="M108.222 30.8602C108.222 32.0247 107.347 32.8981 106.182 32.8981C105.016 32.8981 104.142 32.0247 104.142 30.8602C104.142 29.6956 105.016 28.8223 106.182 28.8223C107.347 28.8223 108.222 29.7927 108.222 30.8602Z" fill="white"/>
<path d="M125.611 30.8602C125.611 32.0247 124.737 32.8981 123.571 32.8981C122.405 32.8981 121.531 32.0247 121.531 30.8602C121.531 29.6956 122.405 28.8223 123.571 28.8223C124.737 28.8223 125.611 29.7927 125.611 30.8602Z" fill="white"/>
<path d="M143 30.8602C143 32.0247 142.126 32.8981 140.96 32.8981C139.794 32.8981 138.92 32.0247 138.92 30.8602C138.92 29.6956 139.794 28.8223 140.96 28.8223C142.029 28.8223 143 29.7927 143 30.8602Z" fill="white"/>
<path d="M4.08016 45.3191C4.08016 46.4837 3.20584 47.357 2.04008 47.357C0.874321 47.357 0 46.4837 0 45.3191C0 44.1546 0.874321 43.2812 2.04008 43.2812C3.20584 43.2812 4.08016 44.1546 4.08016 45.3191Z" fill="white"/>
<path d="M21.4693 45.3191C21.4693 46.4837 20.595 47.357 19.4292 47.357C18.2635 47.357 17.3892 46.4837 17.3892 45.3191C17.3892 44.1546 18.2635 43.2812 19.4292 43.2812C20.4979 43.2812 21.4693 44.1546 21.4693 45.3191Z" fill="white"/>
<path d="M38.7618 45.3191C38.7618 46.4837 37.8875 47.357 36.7217 47.357C35.556 47.357 34.6816 46.4837 34.6816 45.3191C34.6816 44.1546 35.556 43.2812 36.7217 43.2812C37.8875 43.2812 38.7618 44.1546 38.7618 45.3191Z" fill="white"/>
<path d="M56.151 45.3191C56.151 46.4837 55.2766 47.357 54.1109 47.357C52.9451 47.357 52.0708 46.4837 52.0708 45.3191C52.0708 44.1546 52.9451 43.2812 54.1109 43.2812C55.2766 43.2812 56.151 44.1546 56.151 45.3191Z" fill="white"/>
<path d="M73.5401 45.3191C73.5401 46.4837 72.6658 47.357 71.5 47.357C70.3343 47.357 69.46 46.4837 69.46 45.3191C69.46 44.1546 70.3343 43.2812 71.5 43.2812C72.5687 43.2812 73.5401 44.1546 73.5401 45.3191Z" fill="white"/>
<path d="M90.9293 45.3191C90.9293 46.4837 90.055 47.357 88.8892 47.357C87.7234 47.357 86.8491 46.4837 86.8491 45.3191C86.8491 44.1546 87.7234 43.2812 88.8892 43.2812C90.055 43.2812 90.9293 44.1546 90.9293 45.3191Z" fill="white"/>
<path d="M108.222 45.3191C108.222 46.4837 107.347 47.357 106.182 47.357C105.016 47.357 104.142 46.4837 104.142 45.3191C104.142 44.1546 105.016 43.2812 106.182 43.2812C107.347 43.2812 108.222 44.1546 108.222 45.3191Z" fill="white"/>
<path d="M125.611 45.3191C125.611 46.4837 124.737 47.357 123.571 47.357C122.405 47.357 121.531 46.4837 121.531 45.3191C121.531 44.1546 122.405 43.2812 123.571 43.2812C124.737 43.2812 125.611 44.1546 125.611 45.3191Z" fill="white"/>
<path d="M143 45.3191C143 46.4837 142.126 47.357 140.96 47.357C139.794 47.357 138.92 46.4837 138.92 45.3191C138.92 44.1546 139.794 43.2812 140.96 43.2812C142.029 43.2812 143 44.1546 143 45.3191Z" fill="white"/>
<path d="M4.08016 2.03789C4.08016 3.2024 3.20584 4.07579 2.04008 4.07579C0.874321 4.07579 0 3.2024 0 2.03789C0 0.873382 0.874321 0 2.04008 0C3.20584 0 4.08016 0.873382 4.08016 2.03789Z" fill="white"/>
<path d="M21.4693 2.03789C21.4693 3.2024 20.595 4.07579 19.4292 4.07579C18.2635 4.07579 17.3892 3.2024 17.3892 2.03789C17.3892 0.873382 18.2635 0 19.4292 0C20.4979 0 21.4693 0.873382 21.4693 2.03789Z" fill="white"/>
<path d="M38.7618 2.03789C38.7618 3.2024 37.8875 4.07579 36.7217 4.07579C35.556 4.07579 34.6816 3.2024 34.6816 2.03789C34.6816 0.873382 35.6531 0 36.7217 0C37.8875 0 38.7618 0.873382 38.7618 2.03789Z" fill="white"/>
<path d="M56.151 2.03789C56.151 3.2024 55.2766 4.07579 54.1109 4.07579C52.9451 4.07579 52.0708 3.2024 52.0708 2.03789C52.0708 0.873382 53.0423 0 54.1109 0C55.1795 0 56.151 0.873382 56.151 2.03789Z" fill="white"/>
<path d="M73.5401 2.03789C73.5401 3.2024 72.6658 4.07579 71.5 4.07579C70.3343 4.07579 69.46 3.2024 69.46 2.03789C69.46 0.873382 70.3343 0 71.5 0C72.5687 0 73.5401 0.873382 73.5401 2.03789Z" fill="white"/>
<path d="M90.9293 2.03789C90.9293 3.2024 90.055 4.07579 88.8892 4.07579C87.7234 4.07579 86.8491 3.2024 86.8491 2.03789C86.8491 0.873382 87.7234 0 88.8892 0C90.055 0 90.9293 0.873382 90.9293 2.03789Z" fill="white"/>
<path d="M108.222 2.03789C108.222 3.2024 107.347 4.07579 106.182 4.07579C105.016 4.07579 104.142 3.2024 104.142 2.03789C104.142 0.873382 105.016 0 106.182 0C107.347 0 108.222 0.873382 108.222 2.03789Z" fill="white"/>
<path d="M125.611 2.03789C125.611 3.2024 124.737 4.07579 123.571 4.07579C122.405 4.07579 121.531 3.2024 121.531 2.03789C121.531 0.873382 122.405 0 123.571 0C124.737 0 125.611 0.873382 125.611 2.03789Z" fill="white"/>
<path d="M143 2.03789C143 3.2024 142.126 4.07579 140.96 4.07579C139.794 4.07579 138.92 3.2024 138.92 2.03789C138.92 0.873382 139.794 0 140.96 0C142.029 0 143 0.873382 143 2.03789Z" fill="white"/>
<path d="M4.08016 16.4969C4.08016 17.6614 3.20584 18.5348 2.04008 18.5348C0.874321 18.5348 0 17.5643 0 16.4969C0 15.3324 0.874321 14.459 2.04008 14.459C3.20584 14.459 4.08016 15.3324 4.08016 16.4969Z" fill="white"/>
<path d="M21.4693 16.4969C21.4693 17.6614 20.595 18.5348 19.4292 18.5348C18.2635 18.5348 17.3892 17.6614 17.3892 16.4969C17.3892 15.3324 18.2635 14.459 19.4292 14.459C20.4979 14.459 21.4693 15.3324 21.4693 16.4969Z" fill="white"/>
<path d="M38.7618 16.4969C38.7618 17.6614 37.8875 18.5348 36.7217 18.5348C35.556 18.5348 34.6816 17.6614 34.6816 16.4969C34.6816 15.3324 35.556 14.459 36.7217 14.459C37.8875 14.459 38.7618 15.3324 38.7618 16.4969Z" fill="white"/>
<path d="M56.151 16.4969C56.151 17.6614 55.2766 18.5348 54.1109 18.5348C52.9451 18.5348 52.0708 17.6614 52.0708 16.4969C52.0708 15.3324 52.9451 14.459 54.1109 14.459C55.2766 14.459 56.151 15.3324 56.151 16.4969Z" fill="white"/>
<path d="M73.5401 16.4969C73.5401 17.6614 72.6658 18.5348 71.5 18.5348C70.3343 18.5348 69.46 17.6614 69.46 16.4969C69.46 15.3324 70.3343 14.459 71.5 14.459C72.5687 14.459 73.5401 15.3324 73.5401 16.4969Z" fill="white"/>
<path d="M90.9293 16.4969C90.9293 17.6614 90.055 18.5348 88.8892 18.5348C87.7234 18.5348 86.8491 17.6614 86.8491 16.4969C86.8491 15.3324 87.7234 14.459 88.8892 14.459C90.055 14.459 90.9293 15.3324 90.9293 16.4969Z" fill="white"/>
<path d="M108.222 16.4969C108.222 17.6614 107.347 18.5348 106.182 18.5348C105.016 18.5348 104.142 17.6614 104.142 16.4969C104.142 15.3324 105.016 14.459 106.182 14.459C107.347 14.459 108.222 15.3324 108.222 16.4969Z" fill="white"/>
<path d="M125.611 16.4969C125.611 17.6614 124.737 18.5348 123.571 18.5348C122.405 18.5348 121.531 17.6614 121.531 16.4969C121.531 15.3324 122.405 14.459 123.571 14.459C124.737 14.459 125.611 15.3324 125.611 16.4969Z" fill="white"/>
<path d="M143 16.4969C143 17.6614 142.126 18.5348 140.96 18.5348C139.794 18.5348 138.92 17.6614 138.92 16.4969C138.92 15.3324 139.794 14.459 140.96 14.459C142.029 14.459 143 15.3324 143 16.4969Z" fill="white"/>
<path d="M4.08016 59.6805C4.08016 60.845 3.20584 61.7184 2.04008 61.7184C0.874321 61.7184 0 60.845 0 59.6805C0 58.516 0.874321 57.6426 2.04008 57.6426C3.20584 57.6426 4.08016 58.613 4.08016 59.6805Z" fill="white"/>
<path d="M21.4693 59.6805C21.4693 60.845 20.595 61.7184 19.4292 61.7184C18.2635 61.7184 17.3892 60.845 17.3892 59.6805C17.3892 58.516 18.2635 57.6426 19.4292 57.6426C20.4979 57.6426 21.4693 58.613 21.4693 59.6805Z" fill="white"/>
<path d="M38.7618 59.6805C38.7618 60.845 37.8875 61.7184 36.7217 61.7184C35.556 61.7184 34.6816 60.845 34.6816 59.6805C34.6816 58.516 35.556 57.6426 36.7217 57.6426C37.8875 57.6426 38.7618 58.613 38.7618 59.6805Z" fill="white"/>
<path d="M56.151 59.6805C56.151 60.845 55.2766 61.7184 54.1109 61.7184C52.9451 61.7184 52.0708 60.845 52.0708 59.6805C52.0708 58.516 52.9451 57.6426 54.1109 57.6426C55.2766 57.6426 56.151 58.613 56.151 59.6805Z" fill="white"/>
<path d="M73.5401 59.6805C73.5401 60.845 72.6658 61.7184 71.5 61.7184C70.3343 61.7184 69.46 60.845 69.46 59.6805C69.46 58.516 70.3343 57.6426 71.5 57.6426C72.5687 57.6426 73.5401 58.613 73.5401 59.6805Z" fill="white"/>
<path d="M90.9293 59.6805C90.9293 60.845 90.055 61.7184 88.8892 61.7184C87.7234 61.7184 86.8491 60.845 86.8491 59.6805C86.8491 58.516 87.7234 57.6426 88.8892 57.6426C90.055 57.6426 90.9293 58.613 90.9293 59.6805Z" fill="white"/>
<path d="M108.222 59.6805C108.222 60.845 107.347 61.7184 106.182 61.7184C105.016 61.7184 104.142 60.845 104.142 59.6805C104.142 58.516 105.016 57.6426 106.182 57.6426C107.347 57.6426 108.222 58.613 108.222 59.6805Z" fill="white"/>
<path d="M125.611 59.6805C125.611 60.845 124.737 61.7184 123.571 61.7184C122.405 61.7184 121.531 60.845 121.531 59.6805C121.531 58.516 122.405 57.6426 123.571 57.6426C124.737 57.6426 125.611 58.613 125.611 59.6805Z" fill="white"/>
<path d="M143 59.6805C143 60.845 142.126 61.7184 140.96 61.7184C139.794 61.7184 138.92 60.845 138.92 59.6805C138.92 58.516 139.794 57.6426 140.96 57.6426C142.029 57.6426 143 58.613 143 59.6805Z" fill="white"/>
<path d="M4.08016 74.1395C4.08016 75.304 3.20584 76.1773 2.04008 76.1773C0.874321 76.1773 0 75.304 0 74.1395C0 72.9749 0.874321 72.1016 2.04008 72.1016C3.20584 72.1016 4.08016 72.9749 4.08016 74.1395Z" fill="white"/>
<path d="M21.4693 74.1395C21.4693 75.304 20.595 76.1773 19.4292 76.1773C18.2635 76.1773 17.3892 75.304 17.3892 74.1395C17.3892 72.9749 18.2635 72.1016 19.4292 72.1016C20.4979 72.1016 21.4693 72.9749 21.4693 74.1395Z" fill="white"/>
<path d="M38.7618 74.1395C38.7618 75.304 37.8875 76.1773 36.7217 76.1773C35.556 76.1773 34.6816 75.304 34.6816 74.1395C34.6816 72.9749 35.556 72.1016 36.7217 72.1016C37.8875 72.1016 38.7618 72.9749 38.7618 74.1395Z" fill="white"/>
<path d="M54.1109 76.1773C55.2376 76.1773 56.151 75.265 56.151 74.1395C56.151 73.014 55.2376 72.1016 54.1109 72.1016C52.9842 72.1016 52.0708 73.014 52.0708 74.1395C52.0708 75.265 52.9842 76.1773 54.1109 76.1773Z" fill="white"/>
<path d="M73.5401 74.1395C73.5401 75.304 72.6658 76.1773 71.5 76.1773C70.3343 76.1773 69.46 75.304 69.46 74.1395C69.46 72.9749 70.3343 72.1016 71.5 72.1016C72.5687 72.1016 73.5401 72.9749 73.5401 74.1395Z" fill="white"/>
<path d="M90.9293 74.1395C90.9293 75.304 90.055 76.1773 88.8892 76.1773C87.7234 76.1773 86.8491 75.304 86.8491 74.1395C86.8491 72.9749 87.7234 72.1016 88.8892 72.1016C90.055 72.1016 90.9293 72.9749 90.9293 74.1395Z" fill="white"/>
<path d="M108.222 74.1395C108.222 75.304 107.347 76.1773 106.182 76.1773C105.016 76.1773 104.142 75.304 104.142 74.1395C104.142 72.9749 105.016 72.1016 106.182 72.1016C107.347 72.1016 108.222 72.9749 108.222 74.1395Z" fill="white"/>
<path d="M123.571 76.1773C124.698 76.1773 125.611 75.265 125.611 74.1395C125.611 73.014 124.698 72.1016 123.571 72.1016C122.444 72.1016 121.531 73.014 121.531 74.1395C121.531 75.265 122.444 76.1773 123.571 76.1773Z" fill="white"/>
<path d="M143 74.1395C143 75.304 142.126 76.1773 140.96 76.1773C139.794 76.1773 138.92 75.304 138.92 74.1395C138.92 72.9749 139.794 72.1016 140.96 72.1016C142.029 72.1016 143 72.9749 143 74.1395Z" fill="white"/>
<path d="M4.08016 88.6004C4.08016 89.7649 3.20584 90.6383 2.04008 90.6383C0.874321 90.6383 0 89.7649 0 88.6004C0 87.4359 0.874321 86.5625 2.04008 86.5625C3.20584 86.5625 4.08016 87.4359 4.08016 88.6004Z" fill="white"/>
<path d="M21.4693 88.6004C21.4693 89.7649 20.595 90.6383 19.4292 90.6383C18.2635 90.6383 17.3892 89.7649 17.3892 88.6004C17.3892 87.4359 18.2635 86.5625 19.4292 86.5625C20.4979 86.5625 21.4693 87.4359 21.4693 88.6004Z" fill="white"/>
<path d="M38.7618 88.6004C38.7618 89.7649 37.8875 90.6383 36.7217 90.6383C35.556 90.6383 34.6816 89.7649 34.6816 88.6004C34.6816 87.4359 35.556 86.5625 36.7217 86.5625C37.8875 86.5625 38.7618 87.4359 38.7618 88.6004Z" fill="white"/>
<path d="M56.151 88.6004C56.151 89.7649 55.2766 90.6383 54.1109 90.6383C52.9451 90.6383 52.0708 89.7649 52.0708 88.6004C52.0708 87.4359 52.9451 86.5625 54.1109 86.5625C55.2766 86.5625 56.151 87.4359 56.151 88.6004Z" fill="white"/>
<path d="M73.5401 88.6004C73.5401 89.7649 72.6658 90.6383 71.5 90.6383C70.3343 90.6383 69.46 89.7649 69.46 88.6004C69.46 87.4359 70.3343 86.5625 71.5 86.5625C72.5687 86.5625 73.5401 87.4359 73.5401 88.6004Z" fill="white"/>
<path d="M90.9293 88.6004C90.9293 89.7649 90.055 90.6383 88.8892 90.6383C87.7234 90.6383 86.8491 89.7649 86.8491 88.6004C86.8491 87.4359 87.7234 86.5625 88.8892 86.5625C90.055 86.5625 90.9293 87.4359 90.9293 88.6004Z" fill="white"/>
<path d="M108.222 88.6004C108.222 89.7649 107.347 90.6383 106.182 90.6383C105.016 90.6383 104.142 89.7649 104.142 88.6004C104.142 87.4359 105.016 86.5625 106.182 86.5625C107.347 86.5625 108.222 87.4359 108.222 88.6004Z" fill="white"/>
<path d="M125.611 88.6004C125.611 89.7649 124.737 90.6383 123.571 90.6383C122.405 90.6383 121.531 89.7649 121.531 88.6004C121.531 87.4359 122.405 86.5625 123.571 86.5625C124.737 86.5625 125.611 87.4359 125.611 88.6004Z" fill="white"/>
<path d="M143 88.6004C143 89.7649 142.126 90.6383 140.96 90.6383C139.794 90.6383 138.92 89.7649 138.92 88.6004C138.92 87.4359 139.794 86.5625 140.96 86.5625C142.029 86.5625 143 87.4359 143 88.6004Z" fill="white"/>
<path d="M4.08016 102.962C4.08016 104.126 3.20584 105 2.04008 105C0.874321 105 0 104.126 0 102.962C0 101.797 0.874321 100.924 2.04008 100.924C3.20584 100.924 4.08016 101.894 4.08016 102.962Z" fill="white"/>
<path d="M21.4693 102.962C21.4693 104.126 20.595 105 19.4292 105C18.2635 105 17.3892 104.126 17.3892 102.962C17.3892 101.797 18.2635 100.924 19.4292 100.924C20.4979 100.924 21.4693 101.894 21.4693 102.962Z" fill="white"/>
<path d="M38.7618 102.962C38.7618 104.126 37.8875 105 36.7217 105C35.556 105 34.6816 104.126 34.6816 102.962C34.6816 101.797 35.556 100.924 36.7217 100.924C37.8875 100.924 38.7618 101.894 38.7618 102.962Z" fill="white"/>
<path d="M56.151 102.962C56.151 104.126 55.2766 105 54.1109 105C52.9451 105 52.0708 104.126 52.0708 102.962C52.0708 101.797 52.9451 100.924 54.1109 100.924C55.2766 100.924 56.151 101.894 56.151 102.962Z" fill="white"/>
<path d="M73.5401 102.962C73.5401 104.126 72.6658 105 71.5 105C70.3343 105 69.46 104.126 69.46 102.962C69.46 101.797 70.3343 100.924 71.5 100.924C72.5687 100.924 73.5401 101.894 73.5401 102.962Z" fill="white"/>
<path d="M90.9293 102.962C90.9293 104.126 90.055 105 88.8892 105C87.7234 105 86.8491 104.126 86.8491 102.962C86.8491 101.797 87.7234 100.924 88.8892 100.924C90.055 100.924 90.9293 101.894 90.9293 102.962Z" fill="white"/>
<path d="M108.222 102.962C108.222 104.126 107.347 105 106.182 105C105.016 105 104.142 104.126 104.142 102.962C104.142 101.797 105.016 100.924 106.182 100.924C107.347 100.924 108.222 101.894 108.222 102.962Z" fill="white"/>
<path d="M125.611 102.962C125.611 104.126 124.737 105 123.571 105C122.405 105 121.531 104.126 121.531 102.962C121.531 101.797 122.405 100.924 123.571 100.924C124.737 100.924 125.611 101.894 125.611 102.962Z" fill="white"/>
<path d="M143 102.962C143 104.126 142.126 105 140.96 105C139.794 105 138.92 104.126 138.92 102.962C138.92 101.797 139.794 100.924 140.96 100.924C142.029 100.924 143 101.894 143 102.962Z" fill="white"/>
</g>
<defs>
<clipPath id="clip0_2234_9828">
<rect width="143" height="105" fill="white"/>
</clipPath>
</defs>
</svg>
