<svg width="20" height="20" viewBox="0 0 20 20" fill="none" xmlns="http://www.w3.org/2000/svg">
<g>
<path d="M14.6359 0.837799L12.3215 0.833984C9.72134 0.833984 8.04102 2.60489 8.04102 5.34584V7.42611H5.71401C5.51293 7.42611 5.3501 7.59357 5.3501 7.80013V10.8142C5.3501 11.0208 5.51312 11.188 5.71401 11.188H8.04102V18.7935C8.04102 19 8.20386 19.1673 8.40494 19.1673H11.441C11.6421 19.1673 11.8049 18.9999 11.8049 18.7935V11.188H14.5258C14.7268 11.188 14.8897 11.0208 14.8897 10.8142L14.8908 7.80013C14.8908 7.70095 14.8524 7.60597 14.7842 7.53578C14.7161 7.46559 14.6232 7.42611 14.5267 7.42611H11.8049V5.66264C11.8049 4.81505 12.0016 4.38476 13.0764 4.38476L14.6355 4.38419C14.8364 4.38419 14.9992 4.21673 14.9992 4.01037V1.21163C14.9992 1.00545 14.8366 0.83818 14.6359 0.837799Z" fill="white"/>
</g>
</svg>
