<svg width="20" height="20" viewBox="0 0 20 20" fill="none" xmlns="http://www.w3.org/2000/svg">
<g>
<path d="M18.3169 6.56606C18.2778 5.6805 18.1346 5.07168 17.9295 4.54413C17.7178 3.98415 17.3923 3.4828 16.9657 3.06603C16.5489 2.64277 16.0443 2.31388 15.4908 2.10555C14.9602 1.90041 14.3545 1.7572 13.469 1.71816C12.5768 1.67581 12.2936 1.66602 10.0308 1.66602C7.76794 1.66602 7.48471 1.67581 6.59584 1.71485C5.71028 1.7539 5.10146 1.89723 4.57404 2.10225C4.01393 2.31388 3.51258 2.63946 3.09581 3.06603C2.67255 3.4828 2.34379 3.98746 2.13534 4.54095C1.9302 5.07168 1.78699 5.67719 1.74795 6.56275C1.70559 7.45493 1.6958 7.73816 1.6958 10.001C1.6958 12.2638 1.70559 12.547 1.74464 13.4359C1.78368 14.3215 1.92702 14.9303 2.13216 15.4578C2.34379 16.0178 2.67255 16.5191 3.09581 16.9359C3.51258 17.3592 4.01724 17.6881 4.57073 17.8964C5.10146 18.1015 5.70697 18.2447 6.59266 18.2838C7.4814 18.323 7.76476 18.3326 10.0276 18.3326C12.2904 18.3326 12.5736 18.323 13.4625 18.2838C14.348 18.2447 14.9569 18.1015 15.4843 17.8964C16.6044 17.4633 17.4899 16.5778 17.923 15.4578C18.128 14.9271 18.2713 14.3215 18.3104 13.4359C18.3494 12.547 18.3592 12.2638 18.3592 10.001C18.3592 7.73816 18.3559 7.45493 18.3169 6.56606ZM16.816 13.3708C16.7801 14.1847 16.6434 14.6243 16.5295 14.9173C16.2494 15.6434 15.6731 16.2196 14.9471 16.4997C14.654 16.6136 14.2113 16.7504 13.4005 16.7861C12.5215 16.8253 12.2578 16.8349 10.0341 16.8349C7.81029 16.8349 7.54334 16.8253 6.66744 16.7861C5.85348 16.7504 5.41394 16.6136 5.12092 16.4997C4.7596 16.3661 4.43071 16.1545 4.16375 15.8778C3.88701 15.6075 3.67538 15.2819 3.54184 14.9206C3.42788 14.6276 3.29116 14.1847 3.25542 13.3741C3.21625 12.495 3.20659 12.2312 3.20659 10.0075C3.20659 7.7837 3.21625 7.51674 3.25542 6.64097C3.29116 5.82701 3.42788 5.38747 3.54184 5.09444C3.67538 4.733 3.88701 4.40423 4.16706 4.13715C4.43719 3.8604 4.76278 3.64877 5.12423 3.51536C5.41725 3.40141 5.8601 3.26469 6.67075 3.22882C7.54983 3.18978 7.8136 3.17998 10.0372 3.17998C12.2643 3.17998 12.528 3.18978 13.4039 3.22882C14.2178 3.26469 14.6573 3.40141 14.9504 3.51536C15.3117 3.64877 15.6406 3.8604 15.9075 4.13715C16.1843 4.40741 16.3959 4.733 16.5295 5.09444C16.6434 5.38747 16.7801 5.83019 16.816 6.64097C16.855 7.52005 16.8648 7.7837 16.8648 10.0075C16.8648 12.2312 16.855 12.4917 16.816 13.3708Z" fill="white"/>
<path d="M10.0307 5.71954C7.66708 5.71954 5.74931 7.63719 5.74931 10.001C5.74931 12.3648 7.66708 14.2824 10.0307 14.2824C12.3945 14.2824 14.3122 12.3648 14.3122 10.001C14.3122 7.63719 12.3945 5.71954 10.0307 5.71954ZM10.0307 12.7782C8.49732 12.7782 7.25349 11.5345 7.25349 10.001C7.25349 8.46743 8.49732 7.22372 10.0307 7.22372C11.5643 7.22372 12.808 8.46743 12.808 10.001C12.808 11.5345 11.5643 12.7782 10.0307 12.7782Z" fill="white"/>
<path d="M15.4811 5.55027C15.4811 6.10223 15.0336 6.54979 14.4815 6.54979C13.9295 6.54979 13.482 6.10223 13.482 5.55027C13.482 4.99817 13.9295 4.55074 14.4815 4.55074C15.0336 4.55074 15.4811 4.99817 15.4811 5.55027Z" fill="white"/>
</g>
</svg>
