<svg width="354" height="246" viewBox="0 0 354 246" fill="none" xmlns="http://www.w3.org/2000/svg">
<g clip-path="url(#clip0_2234_10158)">
<path d="M337.003 211.79V246.001H285.535L295.563 193.467C295.242 195.541 301.661 199.429 310.445 203.329C313.597 204.728 317.113 206.118 320.867 207.435C326.923 209.571 332.502 211.023 337.003 211.79C337.003 211.79 336.993 211.79 337.003 211.79Z" fill="#9A3B82"/>
<path d="M337.003 201.503V210.659C332.502 209.892 326.933 208.451 320.856 206.314C306.535 201.285 295.511 195.073 296.133 192.284C296.144 192.242 296.154 192.201 296.165 192.17C297.129 189.443 309.812 191.33 324.33 196.422C328.997 198.06 333.208 199.75 336.744 201.378C336.827 201.42 336.91 201.461 337.003 201.503Z" fill="#FFCF2D"/>
<path d="M329.94 122.236C324.921 122.236 320.856 126.301 320.856 131.31V156.177C320.856 161.186 316.79 165.251 311.782 165.251H275.402C280.422 165.251 284.476 161.186 284.476 156.177V131.31C284.476 126.291 288.542 122.236 293.55 122.236H329.94V122.236Z" fill="white"/>
<path fill-rule="evenodd" clip-rule="evenodd" d="M293.55 122.495C288.685 122.495 284.736 126.434 284.736 131.309V156.176C284.736 160.251 282.126 163.719 278.48 164.991H311.782C316.647 164.991 320.596 161.042 320.596 156.176V131.309C320.596 127.234 323.213 123.766 326.861 122.495H293.55ZM329.94 121.977H293.55C288.399 121.977 284.217 126.147 284.217 131.309V156.176C284.217 161.042 280.278 164.991 275.402 164.991V165.509H311.782C316.934 165.509 321.115 161.328 321.115 156.176V131.309C321.115 126.444 325.064 122.495 329.94 122.495V121.977Z" fill="#FFCF2D"/>
<path d="M314.032 135.105H290.865V156.602H314.032V135.105Z" fill="white"/>
<path fill-rule="evenodd" clip-rule="evenodd" d="M290.605 134.846H314.291V156.861H290.605V134.846ZM291.124 135.364V156.342H313.773V135.364H291.124Z" fill="#FFCF2D"/>
<path fill-rule="evenodd" clip-rule="evenodd" d="M290.865 137.916H314.022V138.435H290.865V137.916Z" fill="#FFCF2D"/>
<path fill-rule="evenodd" clip-rule="evenodd" d="M290.865 140.984H314.022V141.503H290.865V140.984Z" fill="#FFCF2D"/>
<path fill-rule="evenodd" clip-rule="evenodd" d="M290.865 144.064H314.022V144.583H290.865V144.064Z" fill="#FFCF2D"/>
<path fill-rule="evenodd" clip-rule="evenodd" d="M290.865 147.135H314.022V147.653H290.865V147.135Z" fill="#FFCF2D"/>
<path fill-rule="evenodd" clip-rule="evenodd" d="M290.865 150.215H314.022V150.733H290.865V150.215Z" fill="#FFCF2D"/>
<path fill-rule="evenodd" clip-rule="evenodd" d="M290.865 153.283H314.022V153.802H290.865V153.283Z" fill="#FFCF2D"/>
<path d="M320.856 131.31C320.856 126.322 324.88 122.278 329.848 122.236C334.825 122.278 338.839 126.322 338.839 131.31H320.856Z" fill="#66B0F0"/>
<path fill-rule="evenodd" clip-rule="evenodd" d="M329.848 121.977L329.85 121.977C334.97 122.019 339.098 126.179 339.098 131.309V131.569H320.597V131.309C320.597 126.179 324.736 122.019 329.845 121.977L329.848 121.977ZM329.848 122.495C325.11 122.536 321.256 126.325 321.119 131.05H338.576C338.44 126.325 334.595 122.536 329.848 122.495Z" fill="#FFCF2D"/>
<path d="M311.824 165.479C311.813 165.479 311.793 165.479 311.782 165.479H275.538C275.517 165.479 275.496 165.479 275.476 165.479C271.753 165.427 268.569 163.125 267.221 159.869H303.538C304.896 163.125 308.08 165.427 311.824 165.479Z" fill="#FFCF2D"/>
<path d="M292.38 132.635H288.19V129.275H290.16V131.142C290.16 131.183 290.181 131.215 290.202 131.225L290.212 131.235L292.38 132.635Z" fill="#FE5244"/>
<path d="M294.007 130.438V130.884C294.007 130.967 293.997 131.05 293.997 131.133C293.997 131.154 293.987 131.185 293.987 131.205C293.976 131.247 293.976 131.288 293.966 131.33C293.852 131.9 293.51 132.367 293.084 132.543C293.053 132.554 293.022 132.564 292.991 132.574C292.939 132.595 292.877 132.605 292.825 132.616C292.804 132.616 292.784 132.626 292.763 132.626L290.388 131.081C290.409 130.718 290.637 130.428 290.907 130.428H294.007V130.438Z" fill="#FE5244"/>
<path d="M317.144 129.275V132.635H312.955L315.112 131.235L315.122 131.225C315.132 131.215 315.132 131.215 315.143 131.215C315.143 131.204 315.153 131.204 315.153 131.194C315.153 131.194 315.153 131.183 315.163 131.183C315.163 131.173 315.163 131.173 315.174 131.173C315.174 131.173 315.174 131.173 315.174 131.163C315.174 131.152 315.174 131.152 315.174 131.142V129.275H317.144V129.275Z" fill="#FE5244"/>
<path d="M314.965 131.092L312.591 132.638C312.528 132.627 312.466 132.617 312.404 132.606C312.383 132.596 312.363 132.596 312.342 132.586C312.311 132.575 312.29 132.565 312.259 132.555C312.238 132.544 312.207 132.534 312.186 132.523C311.865 132.347 311.595 132.005 311.46 131.58C311.44 131.518 311.419 131.455 311.408 131.393C311.398 131.372 311.398 131.341 311.388 131.31C311.367 131.175 311.346 131.041 311.346 130.895V130.449H314.457C314.717 130.439 314.945 130.729 314.965 131.092Z" fill="#FE5244"/>
<path d="M314.966 127.576V130.501C314.946 130.48 314.925 130.449 314.904 130.428C314.863 130.387 314.821 130.355 314.78 130.324C314.676 130.262 314.562 130.221 314.448 130.221H290.897C290.772 130.221 290.658 130.262 290.565 130.324C290.524 130.355 290.482 130.387 290.441 130.428C290.42 130.449 290.399 130.469 290.378 130.501V127.576C290.378 127.182 290.607 126.871 290.897 126.871H314.448C314.728 126.871 314.966 127.193 314.966 127.576Z" fill="#FE5244"/>
<path d="M337.003 170.011V210.66H336.993C332.492 209.893 326.923 208.452 320.846 206.315C317.092 204.998 313.576 203.599 310.424 202.209L312.114 192.772L314.987 176.751C305.975 173.93 304.513 165.261 304.513 165.261H311.762C316.781 165.261 320.836 161.196 320.836 156.188V153.201H316.179C312.913 153.201 310.258 149.986 310.258 146.72V145.662H320.608C322.526 145.662 324.33 146.564 325.482 148.099L333.052 158.21C335.624 161.611 337.003 165.749 337.003 170.011Z" fill="#A0505A"/>
<path d="M337.003 201.503V210.66H336.993C332.492 209.892 326.923 208.451 320.846 206.315C317.092 204.998 313.576 203.598 310.424 202.208L312.114 192.771C315.848 193.684 319.996 194.918 324.31 196.432C328.976 198.07 333.187 199.761 336.713 201.389C336.827 201.42 336.91 201.461 337.003 201.503Z" fill="#73325A"/>
<path d="M321.313 153.201H316.314C313.047 153.201 310.393 149.986 310.393 146.72V145.662H321.313V153.201Z" fill="#A0505A"/>
<path fill-rule="evenodd" clip-rule="evenodd" d="M318.08 163.544C318.08 163.544 318.08 163.544 318.171 163.301C318.262 163.058 318.262 163.059 318.262 163.059L318.263 163.059L318.264 163.059L318.269 163.061C318.274 163.063 318.279 163.065 318.287 163.068C318.302 163.074 318.324 163.083 318.352 163.095C318.408 163.118 318.489 163.153 318.591 163.201C318.796 163.296 319.087 163.441 319.438 163.645C320.138 164.053 321.078 164.694 322.037 165.632C323.96 167.509 325.959 170.569 326.29 175.291L325.773 175.328C325.451 170.748 323.519 167.804 321.675 166.003C320.751 165.101 319.848 164.484 319.177 164.093C318.841 163.898 318.565 163.76 318.373 163.671C318.277 163.626 318.202 163.594 318.152 163.573C318.127 163.563 318.108 163.555 318.096 163.55C318.09 163.548 318.086 163.546 318.083 163.545L318.08 163.544L318.08 163.544ZM318.08 163.544C318.08 163.544 318.08 163.544 318.08 163.544L318.08 163.544Z" fill="#73325A"/>
<path fill-rule="evenodd" clip-rule="evenodd" d="M319.913 177.227H315.007V176.709H319.913V177.227Z" fill="#73325A"/>
<path fill-rule="evenodd" clip-rule="evenodd" d="M323.833 63.6303C323.448 58.7542 317.978 56.0837 313.893 58.7841L310.606 60.9616L310.262 60.4429L313.55 58.265C318.03 55.3034 324.031 58.2327 324.454 63.5813L325.169 72.6341C325.169 72.6341 325.169 72.6341 325.169 72.6341C325.545 77.3717 330.758 80.0717 334.843 77.6486L336.916 76.4148L337.235 76.9495L335.16 78.1836L335.16 78.1838C330.679 80.8419 324.961 77.88 324.549 72.6833L323.833 63.6303Z" fill="#FFCF2D"/>
<path d="M262.657 27.0723L304.896 51.5866L326.165 99.3399L301.764 82.9037L275.247 51.8355L262.657 27.0723Z" fill="#9A3B82"/>
<path fill-rule="evenodd" clip-rule="evenodd" d="M305.659 50.6851L262.616 25.6924L262.928 25.1543L306.145 50.2481L327.912 99.0991L327.344 99.3523L305.659 50.6851Z" fill="#FFCF2D"/>
<path d="M301.324 83.9581C303.297 82.2919 298.862 73.7929 291.417 64.975C283.972 56.1572 276.337 50.3597 274.363 52.026C272.39 53.6922 276.825 62.1912 284.27 71.0091C291.715 79.8269 299.35 85.6244 301.324 83.9581Z" fill="white"/>
<path d="M300.124 84.4667C302.058 82.8337 297.708 74.5 290.407 65.8528C283.106 57.2057 275.62 51.5196 273.686 53.1526C271.751 54.7856 276.102 63.1193 283.402 71.7664C290.703 80.4136 298.19 86.0997 300.124 84.4667Z" fill="white"/>
<path fill-rule="evenodd" clip-rule="evenodd" d="M275.31 59.7108C277.057 63.0579 279.958 67.2873 283.6 71.6008C287.242 75.9143 290.925 79.483 293.932 81.7667C295.437 82.9099 296.761 83.7222 297.818 84.1483C298.347 84.3615 298.796 84.4726 299.16 84.487C299.521 84.5014 299.779 84.4201 299.956 84.2702C300.134 84.1202 300.257 83.8798 300.304 83.521C300.351 83.1603 300.316 82.6992 300.195 82.1422C299.952 81.0286 299.373 79.5871 298.499 77.9116C296.751 74.5645 293.851 70.3351 290.209 66.0216C286.567 61.7081 282.884 58.1394 279.877 55.8556C278.372 54.7125 277.047 53.9002 275.99 53.4741C275.462 53.2609 275.013 53.1498 274.649 53.1354C274.288 53.121 274.03 53.2022 273.852 53.3522C273.675 53.5022 273.551 53.7426 273.505 54.1014C273.458 54.4621 273.493 54.9232 273.614 55.4802C273.857 56.5937 274.436 58.0353 275.31 59.7108ZM272.991 54.0348C273.048 53.5915 273.212 53.2143 273.518 52.956C273.824 52.6978 274.223 52.5995 274.67 52.6173C275.115 52.635 275.625 52.7678 276.184 52.9932C277.303 53.4442 278.669 54.2876 280.19 55.4428C283.236 57.7556 286.946 61.3535 290.605 65.6872C294.264 70.0208 297.189 74.2819 298.958 77.6717C299.842 79.3647 300.444 80.8531 300.701 82.0317C300.83 82.6207 300.875 83.1461 300.818 83.5875C300.761 84.0309 300.597 84.4081 300.291 84.6664C299.985 84.9246 299.586 85.0229 299.139 85.0051C298.694 84.9874 298.184 84.8546 297.625 84.6292C296.506 84.1782 295.139 83.3348 293.618 82.1796C290.573 79.8668 286.863 76.2689 283.204 71.9352C279.545 67.6016 276.62 63.3405 274.851 59.9507C273.967 58.2577 273.364 56.7692 273.107 55.5907C272.979 55.0017 272.934 54.4763 272.991 54.0348Z" fill="#FFCF2D"/>
<path d="M305.27 80.6023L301.246 83.9932C301.993 83.3606 301.827 81.7637 300.925 79.5342C299.442 75.8632 295.968 70.502 291.342 65.006C286.707 59.5203 281.999 55.1961 278.628 53.1221C276.585 51.857 275.03 51.4214 274.283 52.054L278.307 48.6631C280.277 46.9935 288.262 52.4481 295.708 61.2728C303.154 70.0976 307.251 78.9431 305.27 80.6023Z" fill="#FFCF2D"/>
<path d="M348.255 67.6289C349.395 67.0793 350.505 66.5919 351.573 66.1875C352.206 66.8512 352.755 67.6289 353.18 68.5C353.606 69.371 353.875 70.2836 354 71.1858C353.015 71.7665 351.946 72.3472 350.816 72.8968C345.143 75.6448 339.979 76.6922 339.274 75.2404C338.558 73.7782 342.582 70.3769 348.255 67.6289Z" fill="#FFCF2D"/>
<path fill-rule="evenodd" clip-rule="evenodd" d="M338.237 75.0109C337.716 75.0109 337.294 75.4333 337.294 75.9545C337.294 76.4757 337.716 76.8982 338.237 76.8982C338.758 76.8982 339.181 76.4757 339.181 75.9545C339.181 75.4333 338.758 75.0109 338.237 75.0109ZM336.671 75.9545C336.671 75.0897 337.372 74.3887 338.237 74.3887C339.102 74.3887 339.803 75.0897 339.803 75.9545C339.803 76.8193 339.102 77.5203 338.237 77.5203C337.372 77.5203 336.671 76.8193 336.671 75.9545Z" fill="#9A3B82"/>
<path d="M264.182 202.095V246.001H214.166L220.575 198.32C220.575 200.249 230.333 202.655 242.373 203.692C254.413 204.739 264.182 204.024 264.182 202.095Z" fill="#66B0F0"/>
<path d="M263.954 200.965C263.954 202.894 254.279 203.609 242.353 202.562C230.427 201.515 220.751 199.109 220.751 197.19C220.751 195.262 230.427 194.546 242.353 195.594C254.289 196.631 263.954 199.036 263.954 200.965Z" fill="#3FB1B5"/>
<path fill-rule="evenodd" clip-rule="evenodd" d="M273.739 105.846L270.722 103.893L271.06 103.371L274.1 105.338L274.11 105.346C274.992 106.029 275.295 107.259 275.198 108.768C275.1 110.291 274.591 112.184 273.739 114.315C272.033 118.579 268.92 123.862 264.811 129.156C260.702 134.456 256.36 138.785 252.655 141.499C250.804 142.854 249.097 143.818 247.646 144.292C246.208 144.762 244.941 144.775 244.059 144.093L244.047 144.083L242.543 142.662L242.97 142.21L244.452 143.609C245.085 144.091 246.087 144.147 247.453 143.7C248.815 143.255 250.462 142.333 252.287 140.997C255.934 138.326 260.236 134.042 264.32 128.775L264.32 128.775C268.403 123.513 271.482 118.281 273.161 114.084C274.002 111.983 274.485 110.159 274.577 108.729C274.669 107.293 274.365 106.338 273.739 105.846Z" fill="#66B0F0"/>
<path d="M228.84 152.827L263.218 121.365L275.237 84.7695L238.547 118.109L228.84 152.827Z" fill="#66B0F0"/>
<path fill-rule="evenodd" clip-rule="evenodd" d="M276.806 84.9316C276.969 84.9852 277.058 85.161 277.005 85.3242L264.773 122.578L227.297 156.874C227.17 156.99 226.973 156.981 226.857 156.855C226.741 156.728 226.75 156.531 226.877 156.415L264.233 122.229L276.414 85.1302C276.467 84.9669 276.643 84.878 276.806 84.9316Z" fill="#FE5244"/>
<path fill-rule="evenodd" clip-rule="evenodd" d="M214.013 152.261L246.659 121.037L247.089 121.487L214.443 152.71L214.443 152.711C212.636 154.435 209.682 152.805 210.19 150.349L211.102 145.921L211.102 145.921C211.459 144.198 209.504 142.939 208.085 143.974L208.085 143.975L197.3 151.825L196.934 151.322L207.719 143.472C207.719 143.472 207.719 143.472 207.719 143.472M211.712 146.047C212.184 143.767 209.598 142.101 207.719 143.472ZM211.712 146.047L210.799 150.474L210.799 150.475C210.415 152.332 212.646 153.564 214.013 152.261L214.013 152.261" fill="#FE5244"/>
<path d="M188.333 162.751C187.369 163.56 186.404 164.307 185.471 164.96C184.693 164.473 183.978 163.861 183.345 163.114C182.723 162.368 182.235 161.559 181.893 160.708C182.702 159.9 183.594 159.08 184.558 158.261C189.38 154.206 194.13 151.915 195.177 153.159C196.215 154.403 193.155 158.697 188.333 162.751Z" fill="#FFCF2D"/>
<path fill-rule="evenodd" clip-rule="evenodd" d="M196.111 151.386C195.59 151.386 195.168 151.808 195.168 152.33C195.168 152.851 195.59 153.273 196.111 153.273C196.633 153.273 197.055 152.851 197.055 152.33C197.055 151.808 196.633 151.386 196.111 151.386ZM194.545 152.33C194.545 151.465 195.247 150.764 196.111 150.764C196.976 150.764 197.677 151.465 197.677 152.33C197.677 153.194 196.976 153.895 196.111 153.895C195.247 153.895 194.545 153.194 194.545 152.33Z" fill="#FE5244"/>
<path d="M248.419 169.046V202.955C246.501 202.872 244.458 202.748 242.353 202.561C234.585 201.887 227.782 200.622 223.977 199.295L224.547 195.541L226.455 182.941H223.987C220.471 182.941 217.63 180.1 217.63 176.585V164.099C217.63 161.631 218.522 159.257 220.15 157.4L228.27 148.119C228.799 147.518 229.794 147.891 229.794 148.69V161.31C229.794 162.824 229.255 164.286 228.27 165.437L227.544 166.287H236.359C237.634 166.287 238.381 164.867 237.665 163.809C236.577 162.222 235.145 159.962 233.787 157.348C231.08 152.174 235.778 149.281 235.778 149.281L246.532 163.228C247.756 164.918 248.419 166.961 248.419 169.046Z" fill="#FFCF2D"/>
<path fill-rule="evenodd" clip-rule="evenodd" d="M229.795 147.756C229.938 147.756 230.054 147.872 230.054 148.015V161.309C230.054 162.885 229.493 164.407 228.468 165.605L228.467 165.605M228.467 165.605L227.742 166.455C227.649 166.564 227.485 166.577 227.376 166.484C227.267 166.391 227.254 166.227 227.347 166.119L228.073 165.268L228.073 165.268C229.018 164.164 229.536 162.762 229.536 161.309V148.015C229.536 147.872 229.652 147.756 229.795 147.756" fill="white"/>
<path fill-rule="evenodd" clip-rule="evenodd" d="M227.716 166.083C227.823 166.178 227.832 166.342 227.737 166.449L221.909 172.993C221.814 173.1 221.65 173.109 221.543 173.014C221.436 172.919 221.426 172.755 221.522 172.648L227.35 166.104C227.445 165.997 227.609 165.988 227.716 166.083Z" fill="white"/>
<path fill-rule="evenodd" clip-rule="evenodd" d="M229.794 155.273C229.937 155.273 230.053 155.39 230.053 155.533C230.053 157.108 229.492 158.63 228.466 159.828C228.466 159.828 228.466 159.828 228.466 159.828L227.739 160.681L221.919 167.216C221.824 167.323 221.66 167.332 221.553 167.237C221.446 167.142 221.437 166.978 221.532 166.871L227.348 160.34L228.072 159.491C229.017 158.387 229.534 156.985 229.534 155.533C229.534 155.39 229.651 155.273 229.794 155.273Z" fill="white"/>
<path fill-rule="evenodd" clip-rule="evenodd" d="M229.795 149.508C229.938 149.508 230.054 149.624 230.054 149.767C230.054 151.343 229.493 152.865 228.467 154.063C228.467 154.063 228.467 154.063 228.467 154.063L227.74 154.915L221.92 161.45C221.825 161.557 221.661 161.566 221.554 161.471C221.447 161.376 221.438 161.212 221.533 161.105L227.349 154.574L228.073 153.726C229.018 152.622 229.535 151.219 229.535 149.767C229.535 149.624 229.652 149.508 229.795 149.508Z" fill="white"/>
<path fill-rule="evenodd" clip-rule="evenodd" d="M226.195 183.283C226.195 183.14 226.311 183.023 226.454 183.023H230.924C231.067 183.023 231.183 183.14 231.183 183.283C231.183 183.426 231.067 183.542 230.924 183.542H226.454C226.311 183.542 226.195 183.426 226.195 183.283Z" fill="white"/>
<path d="M248.42 196.255V202.954C246.501 202.871 244.458 202.747 242.353 202.56C234.585 201.886 227.782 200.621 223.977 199.294L224.547 195.54C228.446 194.969 234.969 194.938 242.363 195.581C244.458 195.778 246.491 195.996 248.42 196.255Z" fill="#FE5244"/>
<path d="M198.227 245.998H140.392V188.663C140.392 191.11 149.901 193.091 161.64 193.091C173.38 193.091 182.889 191.11 182.889 188.663V188.652L198.227 245.998Z" fill="#3FB1B5"/>
<path d="M182.734 187.523C182.734 189.981 173.328 191.961 161.713 191.961C150.098 191.961 140.692 189.981 140.692 187.533V187.523C140.723 185.086 150.119 183.105 161.713 183.105C173.307 183.105 182.713 185.086 182.734 187.523Z" fill="#66B0F0"/>
<path d="M182.733 187.566C182.661 189.993 173.275 191.963 161.713 191.963C159.483 191.963 157.347 191.89 155.335 191.756V170.425H144.363C142.963 170.425 141.833 169.295 141.833 167.895V166.184C141.833 165.416 142.175 164.732 142.714 164.265C142.175 163.798 141.833 163.114 141.833 162.347V160.636C141.833 159.962 142.102 159.339 142.538 158.894C142.102 158.437 141.833 157.825 141.833 157.151V155.44C141.833 154.746 142.113 154.113 142.569 153.646C142.113 153.19 141.833 152.558 141.833 151.863V148.762C141.833 147.362 142.963 146.232 144.363 146.232H158.373C158.84 145.962 159.597 145.008 158.311 144.448L155.304 143.743C152.918 142.551 151.404 140.57 151.404 137.895H161.982C163.755 137.895 165.342 139.014 165.944 140.684L182.474 186.83L182.733 187.566Z" fill="#E57281"/>
<path d="M182.785 187.587C182.754 187.555 182.733 187.535 182.733 187.535C182.733 189.982 173.327 191.963 161.712 191.963C159.483 191.963 157.346 191.89 155.334 191.755V183.325C157.346 183.19 159.493 183.117 161.712 183.117C172.186 183.117 180.877 184.735 182.474 186.84C182.515 186.892 182.629 187.172 182.785 187.587Z" fill="#9A3B82"/>
<path d="M158.613 117.402V125.812C158.613 130.385 154.91 134.087 150.337 134.087C145.764 134.087 142.062 130.385 142.062 125.812V117.402C142.062 119.456 145.764 121.115 150.337 121.115C154.91 121.115 158.613 119.456 158.613 117.402Z" fill="white"/>
<path d="M150.337 121.114C154.907 121.114 158.613 119.452 158.613 117.402C158.613 115.352 154.907 113.689 150.337 113.689C145.767 113.689 142.062 115.352 142.062 117.402C142.062 119.452 145.767 121.114 150.337 121.114Z" fill="#FFCF2D"/>
<path fill-rule="evenodd" clip-rule="evenodd" d="M141.75 102.719H158.924V125.802C158.924 128.987 157.191 131.763 154.62 133.247L154.465 132.978C154.465 132.984 154.465 132.99 154.465 132.996L154.609 133.248C153.35 133.969 151.887 134.388 150.337 134.388C148.81 134.388 147.377 133.991 146.13 133.289H146.126L146.081 133.263C146.075 133.26 146.07 133.257 146.064 133.254C146.062 133.252 146.06 133.251 146.057 133.249L146.054 133.247C143.484 131.763 141.75 128.987 141.75 125.802V102.719ZM154.38 132.667C156.727 131.279 158.302 128.726 158.302 125.802V103.341H142.373V125.802C142.373 128.734 143.955 131.292 146.312 132.677H146.313L146.357 132.702C146.364 132.706 146.37 132.709 146.376 132.713C146.378 132.714 146.381 132.716 146.383 132.717L146.385 132.718C147.552 133.387 148.899 133.766 150.337 133.766C151.774 133.766 153.131 133.377 154.3 132.708L154.371 132.667H154.38Z" fill="#FFCF2D"/>
<path d="M150.337 106.743C154.959 106.743 158.706 105.081 158.706 103.031C158.706 100.98 154.959 99.3184 150.337 99.3184C145.715 99.3184 141.968 100.98 141.968 103.031C141.968 105.081 145.715 106.743 150.337 106.743Z" fill="white"/>
<path fill-rule="evenodd" clip-rule="evenodd" d="M142.814 101.764C142.422 102.175 142.228 102.602 142.228 103.03C142.228 103.458 142.422 103.886 142.814 104.296C143.206 104.708 143.787 105.091 144.525 105.418C145.999 106.072 148.054 106.483 150.337 106.483C152.621 106.483 154.675 106.072 156.15 105.418C156.887 105.091 157.468 104.708 157.861 104.296C158.252 103.886 158.447 103.458 158.447 103.03C158.447 102.602 158.252 102.175 157.861 101.764C157.468 101.352 156.887 100.969 156.15 100.642C154.675 99.9882 152.621 99.5771 150.337 99.5771C148.054 99.5771 145.999 99.9882 144.525 100.642C143.787 100.969 143.206 101.352 142.814 101.764ZM144.314 100.168C145.869 99.4786 147.999 99.0586 150.337 99.0586C152.676 99.0586 154.805 99.4786 156.36 100.168C157.137 100.513 157.782 100.93 158.236 101.406C158.691 101.884 158.965 102.433 158.965 103.03C158.965 103.627 158.691 104.177 158.236 104.654C157.782 105.13 157.137 105.548 156.36 105.892C154.805 106.582 152.676 107.002 150.337 107.002C147.999 107.002 145.869 106.582 144.314 105.892C143.537 105.548 142.892 105.13 142.438 104.654C141.983 104.177 141.709 103.627 141.709 103.03C141.709 102.433 141.983 101.884 142.438 101.406C142.892 100.93 143.537 100.513 144.314 100.168Z" fill="#FFCF2D"/>
<path d="M150.337 103.59C151.013 103.59 151.561 103.042 151.561 102.366C151.561 101.69 151.013 101.143 150.337 101.143C149.661 101.143 149.113 101.69 149.113 102.366C149.113 103.042 149.661 103.59 150.337 103.59Z" fill="#FFCF2D"/>
<path d="M147.641 128.581C148.236 128.581 148.719 128.098 148.719 127.502C148.719 126.907 148.236 126.424 147.641 126.424C147.045 126.424 146.562 126.907 146.562 127.502C146.562 128.098 147.045 128.581 147.641 128.581Z" fill="white"/>
<path fill-rule="evenodd" clip-rule="evenodd" d="M147.641 126.684C147.188 126.684 146.821 127.051 146.821 127.504C146.821 127.956 147.188 128.323 147.641 128.323C148.093 128.323 148.46 127.956 148.46 127.504C148.46 127.051 148.093 126.684 147.641 126.684ZM146.303 127.504C146.303 126.765 146.902 126.166 147.641 126.166C148.379 126.166 148.978 126.765 148.978 127.504C148.978 128.242 148.379 128.841 147.641 128.841C146.902 128.841 146.303 128.242 146.303 127.504Z" fill="#FFCF2D"/>
<path d="M154.112 118.295C154.605 118.295 155.004 117.896 155.004 117.404C155.004 116.911 154.605 116.512 154.112 116.512C153.62 116.512 153.22 116.911 153.22 117.404C153.22 117.896 153.62 118.295 154.112 118.295Z" fill="white"/>
<path d="M145.484 124.985C145.976 124.985 146.376 124.586 146.376 124.093C146.376 123.6 145.976 123.201 145.484 123.201C144.991 123.201 144.592 123.6 144.592 124.093C144.592 124.586 144.991 124.985 145.484 124.985Z" fill="#FFCF2D"/>
<path d="M158.291 176.229H142.383C142.092 176.229 142.009 175.846 142.258 175.711L147.817 173.606C148.688 173.274 149.269 172.434 149.269 171.501V138.359C149.269 136.16 148.128 134.097 146.23 132.987C147.443 133.682 148.843 134.076 150.337 134.076C151.84 134.076 153.24 133.671 154.454 132.977C152.546 134.076 151.405 136.15 151.405 138.348V171.49C151.405 172.424 151.986 173.264 152.857 173.595L158.415 175.7C158.664 175.846 158.581 176.229 158.291 176.229Z" fill="white"/>
<path fill-rule="evenodd" clip-rule="evenodd" d="M152.822 133.967C152.037 134.207 151.204 134.337 150.337 134.337C149.47 134.337 148.632 134.208 147.843 133.967C148.918 135.151 149.528 136.721 149.528 138.361V171.503C149.528 172.544 148.881 173.48 147.909 173.85L147.909 173.851L142.374 175.947C142.374 175.947 142.374 175.947 142.373 175.947C142.373 175.948 142.372 175.949 142.372 175.95C142.371 175.953 142.37 175.958 142.371 175.965C142.372 175.968 142.373 175.97 142.374 175.972C142.374 175.972 142.374 175.972 142.375 175.972C142.376 175.972 142.379 175.972 142.383 175.972H158.291C158.295 175.972 158.298 175.972 158.299 175.972C158.299 175.972 158.3 175.972 158.3 175.972C158.301 175.97 158.302 175.968 158.303 175.964C158.304 175.957 158.304 175.949 158.301 175.943C158.3 175.941 158.299 175.939 158.297 175.936C158.297 175.936 158.296 175.935 158.295 175.934L152.765 173.84L152.765 173.84C151.793 173.47 151.146 172.534 151.146 171.493V138.35C151.146 136.718 151.751 135.149 152.822 133.967ZM150.337 133.819C151.793 133.819 153.149 133.427 154.325 132.754L154.583 133.204C152.76 134.254 151.664 136.24 151.664 138.35V171.493C151.664 172.318 152.178 173.061 152.949 173.355L152.949 173.355M147.725 173.366C147.725 173.366 147.725 173.366 147.725 173.366L142.15 175.477L142.135 175.485C141.896 175.615 141.817 175.869 141.866 176.081C141.915 176.297 142.103 176.491 142.383 176.491H158.291C158.572 176.491 158.759 176.296 158.808 176.079C158.857 175.866 158.778 175.614 158.546 175.479L158.528 175.468L152.949 173.355M147.725 173.366C148.496 173.072 149.01 172.328 149.01 171.503V138.361C149.01 136.251 147.915 134.274 146.099 133.213L146.359 132.764C147.534 133.437 148.89 133.819 150.337 133.819" fill="#FFCF2D"/>
<path d="M144.447 90.5745C145.225 90.5745 145.857 89.9431 145.857 89.1642C145.857 88.3853 145.225 87.7539 144.447 87.7539C143.668 87.7539 143.036 88.3853 143.036 89.1642C143.036 89.9431 143.668 90.5745 144.447 90.5745Z" fill="#FFCF2D"/>
<path d="M154.111 92.8477C154.787 92.8477 155.335 92.2998 155.335 91.624C155.335 90.9482 154.787 90.4004 154.111 90.4004C153.436 90.4004 152.888 90.9482 152.888 91.624C152.888 92.2998 153.436 92.8477 154.111 92.8477Z" fill="white"/>
<path fill-rule="evenodd" clip-rule="evenodd" d="M154.112 90.6591C153.579 90.6591 153.147 91.0909 153.147 91.6235C153.147 92.1561 153.579 92.5879 154.112 92.5879C154.645 92.5879 155.076 92.1561 155.076 91.6235C155.076 91.0909 154.645 90.6591 154.112 90.6591ZM152.629 91.6235C152.629 90.8045 153.293 90.1406 154.112 90.1406C154.931 90.1406 155.595 90.8045 155.595 91.6235C155.595 92.4425 154.931 93.1064 154.112 93.1064C153.293 93.1064 152.629 92.4425 152.629 91.6235Z" fill="#FFCF2D"/>
<path d="M148.118 97.6176C148.611 97.6176 149.01 97.2183 149.01 96.7258C149.01 96.2333 148.611 95.834 148.118 95.834C147.626 95.834 147.227 96.2333 147.227 96.7258C147.227 97.2183 147.626 97.6176 148.118 97.6176Z" fill="white"/>
<path fill-rule="evenodd" clip-rule="evenodd" d="M148.117 96.0927C147.768 96.0927 147.485 96.3759 147.485 96.7253C147.485 97.0746 147.768 97.3578 148.117 97.3578C148.467 97.3578 148.75 97.0746 148.75 96.7253C148.75 96.3759 148.467 96.0927 148.117 96.0927ZM146.966 96.7253C146.966 96.0896 147.482 95.5742 148.117 95.5742C148.753 95.5742 149.269 96.0896 149.269 96.7253C149.269 97.361 148.753 97.8763 148.117 97.8763C147.482 97.8763 146.966 97.361 146.966 96.7253Z" fill="#FFCF2D"/>
<path d="M147.652 86.7596C148.059 86.7596 148.389 86.43 148.389 86.0234C148.389 85.6167 148.059 85.2871 147.652 85.2871C147.246 85.2871 146.916 85.6167 146.916 86.0234C146.916 86.43 147.246 86.7596 147.652 86.7596Z" fill="#FFCF2D"/>
<path d="M160.997 149.561V170.435H144.363C142.963 170.435 141.833 169.305 141.833 167.905V166.194C141.833 165.426 142.175 164.742 142.714 164.275C142.175 163.809 141.833 163.124 141.833 162.357V160.646C141.833 159.972 142.102 159.35 142.538 158.904C142.102 158.448 141.833 157.836 141.833 157.162V155.451C141.833 154.756 142.113 154.123 142.569 153.657C142.113 153.2 141.833 152.568 141.833 151.873V149.571H160.997V149.561Z" fill="#E57281"/>
<path fill-rule="evenodd" clip-rule="evenodd" d="M142.123 161.951C142.266 161.951 142.382 162.067 142.382 162.21C142.382 163.654 143.552 164.824 144.995 164.824H158.456C159.899 164.824 161.069 163.654 161.069 162.21C161.069 162.067 161.185 161.951 161.328 161.951C161.472 161.951 161.588 162.067 161.588 162.21C161.588 163.94 160.186 165.342 158.456 165.342H144.995C143.265 165.342 141.863 163.94 141.863 162.21C141.863 162.067 141.979 161.951 142.123 161.951Z" fill="#9A3B82"/>
<path fill-rule="evenodd" clip-rule="evenodd" d="M142.123 156.777C142.266 156.777 142.382 156.893 142.382 157.037C142.382 158.48 143.552 159.65 144.995 159.65H158.456C159.899 159.65 161.069 158.48 161.069 157.037C161.069 156.893 161.185 156.777 161.328 156.777C161.472 156.777 161.588 156.893 161.588 157.037C161.588 158.766 160.186 160.168 158.456 160.168H144.995C143.265 160.168 141.863 158.766 141.863 157.037C141.863 156.893 141.979 156.777 142.123 156.777Z" fill="#9A3B82"/>
<path fill-rule="evenodd" clip-rule="evenodd" d="M142.123 151.604C142.266 151.604 142.382 151.72 142.382 151.863C142.382 153.306 143.552 154.476 144.995 154.476H158.456C159.899 154.476 161.069 153.306 161.069 151.863C161.069 151.72 161.185 151.604 161.328 151.604C161.472 151.604 161.588 151.72 161.588 151.863C161.588 153.593 160.186 154.994 158.456 154.994H144.995C143.265 154.994 141.863 153.593 141.863 151.863C141.863 151.72 141.979 151.604 142.123 151.604Z" fill="#9A3B82"/>
<path fill-rule="evenodd" clip-rule="evenodd" d="M161.328 147.725C161.472 147.725 161.588 147.841 161.588 147.984V167.386C161.588 169.116 160.186 170.518 158.456 170.518H144.86C144.717 170.518 144.601 170.402 144.601 170.258C144.601 170.115 144.717 169.999 144.86 169.999H158.456C159.899 169.999 161.069 168.829 161.069 167.386V147.984C161.069 147.841 161.185 147.725 161.328 147.725Z" fill="#9A3B82"/>
<path fill-rule="evenodd" clip-rule="evenodd" d="M158.268 146.501C157.416 146.501 156.723 147.194 156.723 148.046C156.723 149.03 155.922 149.819 154.95 149.819H147.234C146.635 149.819 146.146 149.33 146.146 148.73C146.146 148.131 146.635 147.642 147.234 147.642H148.614C148.757 147.642 148.873 147.758 148.873 147.901C148.873 148.044 148.757 148.16 148.614 148.16H147.234C146.921 148.16 146.664 148.417 146.664 148.73C146.664 149.044 146.921 149.301 147.234 149.301H154.95C155.638 149.301 156.205 148.742 156.205 148.046C156.205 146.907 157.13 145.982 158.268 145.982H159.523C160.662 145.982 161.587 146.907 161.587 148.046V151.406C161.587 151.549 161.471 151.665 161.328 151.665C161.185 151.665 161.068 151.549 161.068 151.406V148.046C161.068 147.194 160.376 146.501 159.523 146.501H158.268Z" fill="#9A3B82"/>
<path d="M242.778 41.0289L208.255 76.4316L168.454 32.5567L211.895 1.98633L242.778 41.0289Z" fill="#3FB1B5"/>
<path fill-rule="evenodd" clip-rule="evenodd" d="M165.614 32.4115L211.12 0.50946L210.763 0L164.678 32.3082L206.678 78.3421L207.137 77.9228L165.614 32.4115Z" fill="#FFCF2D"/>
<path fill-rule="evenodd" clip-rule="evenodd" d="M218.764 45.4712C218.157 41.3679 214.342 38.5204 210.23 39.1277L207.627 39.5114L207.536 38.8959L210.139 38.5122C210.139 38.5122 210.139 38.5122 210.139 38.5122C214.593 37.8545 218.722 40.9385 219.38 45.38L219.38 45.3804L221.651 60.8521C221.651 60.8522 221.651 60.8521 221.651 60.8521C222.388 65.8611 227.765 68.7287 232.336 66.5381L232.336 66.538L243.194 61.3427L243.462 61.9039L232.605 67.0992" fill="#FFCF2D"/>
<path d="M257.172 64.59C258.282 65.1914 259.329 65.8136 260.283 66.4358C260.117 67.338 259.806 68.2298 259.35 69.0905C258.894 69.9408 258.313 70.6978 257.649 71.3304C256.602 70.8741 255.503 70.3453 254.393 69.7438C248.845 66.7469 244.977 63.1693 245.744 61.7486C246.511 60.328 251.624 61.5931 257.172 64.59Z" fill="#FFCF2D"/>
<path fill-rule="evenodd" clip-rule="evenodd" d="M244.563 60.3898C244.041 60.3898 243.619 60.8123 243.619 61.3334C243.619 61.8546 244.041 62.2771 244.563 62.2771C245.084 62.2771 245.506 61.8546 245.506 61.3334C245.506 60.8123 245.084 60.3898 244.563 60.3898ZM242.997 61.3334C242.997 60.4686 243.698 59.7676 244.563 59.7676C245.427 59.7676 246.128 60.4686 246.128 61.3334C246.128 62.1982 245.427 62.8993 244.563 62.8993C243.698 62.8993 242.997 62.1982 242.997 61.3334Z" fill="#66B0F0"/>
<path d="M121.175 207.156V246.002H76.2812V223.115C77.2561 225.666 88.6842 224.038 100.88 219.372C111.852 215.172 120.324 210.008 121.175 207.156Z" fill="#FE5244"/>
<path d="M121.175 206.026C120.314 208.878 111.852 214.042 100.87 218.242C88.6844 222.908 77.2563 224.536 76.2711 221.985C75.2859 219.434 85.1378 213.658 97.3333 208.992C109.519 204.325 120.2 202.614 121.175 205.165C121.278 205.425 121.278 205.715 121.175 206.026Z" fill="#66B0F0"/>
<path d="M111.665 180.267V213.181L109.187 214.435C106.677 215.659 103.867 216.872 100.88 218.013C95.3943 220.118 90.0535 221.601 85.7602 222.368L88.2283 212.673L92.2521 196.848C90.3439 196.848 88.5395 195.998 87.3261 194.525L70.8062 175.735C73.6373 173.153 77.8684 176.668 77.8684 176.668L76.2817 168.569C75.9084 166.651 76.4684 164.66 77.7854 163.219L82.8046 157.712C83.8002 156.623 85.5943 157.049 86.0091 158.459L89.5765 170.768C89.5765 170.768 98.4328 177.529 100.092 177.529C101.969 177.529 102.622 176.005 99.1172 170.996C96.4832 167.232 99.1172 164.484 99.1172 164.484L107.694 171.701C110.213 173.837 111.665 176.969 111.665 180.267Z" fill="white"/>
<path fill-rule="evenodd" clip-rule="evenodd" d="M82.9962 157.887C82.9961 157.887 82.9961 157.887 82.996 157.887L77.9768 163.393C76.7152 164.774 76.1786 166.682 76.5362 168.519C76.5362 168.52 76.5362 168.52 76.5362 168.52L78.2628 177.333L77.7028 176.868L77.7007 176.866C77.699 176.864 77.6963 176.862 77.6927 176.859C77.6854 176.853 77.6741 176.844 77.6591 176.832C77.629 176.809 77.584 176.773 77.5253 176.729C77.4078 176.641 77.236 176.517 77.0208 176.376C76.5895 176.093 75.9882 175.744 75.3039 175.474C73.9929 174.958 72.4459 174.756 71.1748 175.761L87.5236 194.357L87.5262 194.36C88.6903 195.773 90.4213 196.589 92.2521 196.589H92.5855L88.4796 212.736L86.1111 222.041C90.3167 221.257 95.4825 219.806 100.787 217.771L100.788 217.771C103.767 216.633 106.57 215.423 109.072 214.203C109.072 214.203 109.073 214.202 109.073 214.202L111.406 213.021V180.266C111.406 177.045 109.988 173.986 107.526 171.899C107.526 171.899 107.526 171.899 107.526 171.899L99.1497 164.85C99.0964 164.919 99.0328 165.007 98.9642 165.113C98.7691 165.413 98.5348 165.851 98.3788 166.399C98.0697 167.486 98.0597 169.032 99.3297 170.847C100.211 172.106 100.836 173.154 101.246 174.018C101.655 174.88 101.86 175.576 101.882 176.13C101.904 176.693 101.738 177.128 101.389 177.413C101.052 177.688 100.589 177.788 100.092 177.788C99.8216 177.788 99.4548 177.658 99.0553 177.474C98.6425 177.283 98.1517 177.014 97.6163 176.695C96.5447 176.056 95.2762 175.207 94.0637 174.361C92.8503 173.514 91.6893 172.667 90.832 172.032C90.4032 171.715 90.0502 171.45 89.8043 171.265C89.6813 171.173 89.5852 171.1 89.5197 171.05C89.4869 171.025 89.4618 171.006 89.4449 170.993L89.4193 170.974C89.4192 170.974 89.4192 170.974 89.5765 170.768L89.4192 170.974L89.3513 170.922L85.7604 158.532C85.7603 158.531 85.7602 158.531 85.7602 158.531C85.4014 157.313 83.854 156.949 82.9962 157.887ZM89.8017 170.613L86.2581 158.386L86.2578 158.385C85.7866 156.783 83.7465 156.298 82.6133 157.537L82.613 157.537L77.594 163.043C76.2216 164.546 75.6382 166.62 76.0272 168.619L77.4857 176.063C77.4293 176.025 77.3691 175.984 77.3052 175.942C76.8548 175.647 76.2213 175.278 75.4939 174.992C74.0491 174.423 72.1573 174.152 70.6314 175.543L70.4434 175.715L87.1287 194.693C88.3208 196.138 90.0603 197.006 91.9207 197.099L87.9771 212.608L85.4097 222.694L85.8058 222.623C90.1173 221.853 95.4738 220.365 100.973 218.255C100.973 218.255 100.973 218.255 100.973 218.255L100.88 218.013L100.973 218.255C100.973 218.255 100.973 218.255 100.973 218.255C103.966 217.112 106.783 215.895 109.3 214.668L109.302 214.667L109.304 214.666L111.925 213.34V180.266C111.925 176.892 110.439 173.689 107.861 171.503L99.0982 164.129L98.9301 164.304L99.1172 164.483C98.9301 164.304 98.93 164.304 98.9298 164.304L98.9288 164.305L98.9265 164.308C98.9247 164.31 98.9222 164.312 98.9192 164.316C98.9132 164.322 98.9048 164.331 98.8943 164.343C98.8732 164.367 98.8438 164.401 98.8078 164.446C98.7359 164.534 98.6379 164.664 98.5295 164.83C98.313 165.163 98.0533 165.648 97.8801 166.257C97.5307 167.486 97.5407 169.195 98.9048 171.144C99.7761 172.389 100.384 173.411 100.778 174.241C101.174 175.074 101.346 175.697 101.364 176.151C101.382 176.595 101.252 176.855 101.06 177.012C100.856 177.179 100.534 177.27 100.092 177.27C99.9477 177.27 99.6747 177.188 99.2724 177.003C98.8832 176.823 98.4099 176.564 97.8817 176.25C96.8261 175.621 95.5694 174.779 94.3605 173.936C93.1523 173.092 91.9955 172.249 91.1405 171.616C90.713 171.299 90.3612 171.036 90.1163 170.851C89.9938 170.759 89.8981 170.686 89.8331 170.637C89.8217 170.628 89.8112 170.62 89.8017 170.613Z" fill="#FFCF2D"/>
<path fill-rule="evenodd" clip-rule="evenodd" d="M79.8433 160.598C80.9368 159.397 82.8524 159.867 83.3017 161.415L86.7114 173.179L92.9213 178.147L92.5974 178.551L86.2591 173.481L82.8037 161.56C82.8037 161.56 82.8037 161.56 82.8037 161.56C82.4648 160.392 81.0412 160.052 80.2266 160.947L79.8433 160.598Z" fill="#FFCF2D"/>
<path fill-rule="evenodd" clip-rule="evenodd" d="M76.8462 164.061C77.8853 162.915 79.7717 163.357 80.2013 164.837L83.4248 175.969L88.8167 180.356L88.4894 180.759L82.9718 176.269L79.7034 164.982C79.3863 163.89 77.9957 163.565 77.2304 164.409L76.8462 164.061Z" fill="#FFCF2D"/>
<path fill-rule="evenodd" clip-rule="evenodd" d="M78.0241 176.48L83.9974 181.489L83.6642 181.886L77.6909 176.878L78.0241 176.48Z" fill="#FFCF2D"/>
<path fill-rule="evenodd" clip-rule="evenodd" d="M99.2307 197.108H92.2515V196.59H99.2307V197.108Z" fill="#FFCF2D"/>
<path d="M111.665 204.697V213.398C108.575 215.036 104.893 216.695 100.88 218.24C95.3837 220.345 90.043 221.828 85.7393 222.596L88.2281 212.889C90.9867 211.562 94.077 210.235 97.3437 208.99C102.622 206.979 107.621 205.506 111.665 204.697Z" fill="#FFCF2D"/>
<path fill-rule="evenodd" clip-rule="evenodd" d="M107.483 102.13L104.351 95.258L104.917 95L108.09 101.961L108.095 102.009C108.416 104.742 106.469 107.208 103.738 107.539L103.737 107.54C101.347 107.82 99.6428 109.988 99.9235 112.379C99.9235 112.379 99.9235 112.379 99.9235 112.379L100.38 116.216L99.7619 116.289L99.3056 112.452C98.9849 109.721 100.931 107.243 103.663 106.922C106.039 106.633 107.735 104.501 107.483 102.13Z" fill="#FFCF2D"/>
<path d="M141.117 72.9063L157.731 46.9817L100.59 46.5254L81.8716 96.363L112.775 94.9112L141.117 72.9063Z" fill="#FE5244"/>
<path fill-rule="evenodd" clip-rule="evenodd" d="M98.4575 44.0449L158.419 44.7214L158.411 45.3436L98.8852 44.672L79.1238 96.7744L78.542 96.5538L98.4575 44.0449Z" fill="#FFCF2D"/>
<path d="M140.091 69.019C143.409 74.712 137.768 84.1901 127.481 90.1839C117.193 96.1777 106.169 96.4162 102.851 90.7231C102.395 89.9454 102.115 89.1054 101.98 88.2032C101.15 82.5102 106.574 74.7328 115.461 69.5582C124.349 64.3836 133.786 63.4918 138.328 67.0176C139.044 67.5775 139.635 68.2412 140.091 69.019Z" fill="#66B0F0"/>
<path fill-rule="evenodd" clip-rule="evenodd" d="M128.557 65.3331C124.568 65.757 120.029 67.2573 115.618 69.8256C111.207 72.3937 107.664 75.6033 105.329 78.8658C102.99 82.135 101.889 85.4213 102.287 88.1563C102.417 89.023 102.685 89.8243 103.119 90.5642L103.119 90.565C104.696 93.2692 108.138 94.6197 112.545 94.5236C116.94 94.4277 122.217 92.8891 127.324 89.9136C132.431 86.9382 136.371 83.105 138.62 79.328C140.876 75.5406 141.398 71.8788 139.822 69.1746C139.387 68.4326 138.822 67.7983 138.136 67.2613C135.954 65.568 132.553 64.9085 128.557 65.3331ZM128.491 64.7144C132.57 64.2811 136.158 64.9384 138.518 66.7704L138.519 66.7711C139.264 67.3539 139.882 68.0468 140.359 68.8601L140.359 68.8608C142.102 71.8497 141.462 75.7732 139.155 79.6464C136.842 83.5301 132.817 87.4329 127.637 90.4512C122.456 93.4695 117.078 95.047 112.559 95.1456C108.053 95.2439 104.324 93.8673 102.582 90.8787C102.104 90.0634 101.812 89.1851 101.672 88.2477L101.672 88.2466C101.241 85.2886 102.436 81.84 104.823 78.5038C107.215 75.1607 110.828 71.8943 115.304 69.2879C119.781 66.6816 124.404 65.1487 128.491 64.7144Z" fill="white"/>
<path fill-rule="evenodd" clip-rule="evenodd" d="M127.757 60.6464C123.351 60.7438 118.065 62.2857 112.957 65.2596C107.844 68.2386 103.897 72.0775 101.642 75.8634C99.3821 79.6582 98.8505 83.342 100.441 86.0699L100.441 86.07L101.729 88.2813C101.727 88.2666 101.725 88.2519 101.723 88.2373L101.98 88.2018L101.723 88.2388C101.3 85.2997 102.488 81.8647 104.869 78.5341C107.255 75.1977 110.86 71.936 115.331 69.3328C119.802 66.7296 124.417 65.1995 128.496 64.7661C132.568 64.3334 136.141 64.9909 138.487 66.8114L138.488 66.812C138.499 66.8208 138.51 66.8296 138.521 66.8385L137.233 64.6269C135.643 61.8991 132.174 60.5488 127.757 60.6464ZM140.314 68.8864L137.681 64.3658L137.681 64.3658C135.952 61.4005 132.245 60.0287 127.746 60.1281C123.236 60.2277 117.866 61.802 112.697 64.8115L112.696 64.8116C107.522 67.8263 103.505 71.7233 101.197 75.5981C98.8942 79.4641 98.2643 83.3658 99.9926 86.331C99.9927 86.331 99.9927 86.331 99.9927 86.331L102.605 90.815C102.612 90.8277 102.62 90.8403 102.627 90.8529L103.075 90.5912L103.074 90.5905C103.067 90.5786 103.06 90.5667 103.054 90.5548C102.627 89.8168 102.354 89.0213 102.236 88.1664L102.236 88.1657L102.236 88.1649C101.84 85.4109 102.949 82.1106 105.291 78.8357C107.629 75.5665 111.175 72.3522 115.592 69.7809C120.008 67.2094 124.554 65.7064 128.551 65.2817C132.555 64.8563 135.972 65.5157 138.168 67.2208C138.859 67.7616 139.428 68.4008 139.867 69.1488L140.315 68.8871L140.314 68.8864Z" fill="white"/>
<path d="M99.1792 130.232C98.7747 131.425 98.3392 132.565 97.8829 133.613C96.9599 133.602 96.0266 133.447 95.114 133.136C94.191 132.825 93.3614 132.389 92.6147 131.84C92.8844 130.73 93.2162 129.558 93.6207 128.366C95.6325 122.393 98.4947 117.975 100.03 118.483C101.564 119.002 101.181 124.259 99.1792 130.232Z" fill="#FFCF2D"/>
<path fill-rule="evenodd" clip-rule="evenodd" d="M100.237 116.304C99.7156 116.304 99.2931 116.726 99.2931 117.248C99.2931 117.769 99.7156 118.191 100.237 118.191C100.758 118.191 101.181 117.769 101.181 117.248C101.181 116.726 100.758 116.304 100.237 116.304ZM98.6709 117.248C98.6709 116.383 99.372 115.682 100.237 115.682C101.102 115.682 101.803 116.383 101.803 117.248C101.803 118.112 101.102 118.813 100.237 118.813C99.372 118.813 98.6709 118.112 98.6709 117.248Z" fill="#66B0F0"/>
<path d="M46.695 203.554V245.997H0.0698242V183.529C0.982416 186.588 10.7409 192.966 22.8535 198.296C35.7439 203.989 46.4253 206.333 46.695 203.554Z" fill="#66B0F0"/>
<path d="M46.6951 202.424C46.4151 205.204 35.744 202.85 22.8537 197.167C10.7411 191.827 0.982595 185.449 0.0700031 182.4C0.00778097 182.203 -0.0129635 182.017 0.00777718 181.851C0.277406 179.072 10.9589 181.426 23.8492 187.108C36.7396 192.791 46.9751 199.645 46.6951 202.424Z" fill="#9A3B82"/>
<path d="M19.1014 141.544C20.211 139.262 22.5236 137.811 25.0644 137.811H32.3962L32.7799 167.282L37.8925 194.368L39.5206 202.975C35.2066 202.021 29.3162 200.019 22.8658 197.178C19.2155 195.571 14.6421 193.186 11.5933 191.506V155.647C11.5933 155.159 11.6866 154.672 11.8525 154.216L19.1014 141.544Z" fill="#A0505A"/>
<path d="M39.5079 202.975C35.1939 202.021 29.3035 200.019 22.8531 197.178C19.2028 195.571 14.6295 193.186 11.5806 191.506V182.494C14.9095 183.562 19.8354 185.346 23.8487 187.109C29.262 189.494 33.9909 191.952 37.8902 194.368L39.5079 202.975Z" fill="#73325A"/>
<path d="M66.8134 104.68L27.8105 176.439C26.369 179.094 22.3972 179.726 18.9439 177.849C15.4905 175.972 13.8624 172.302 15.3039 169.636L54.3068 97.877L66.8134 104.68Z" fill="white"/>
<path fill-rule="evenodd" clip-rule="evenodd" d="M54.2028 97.5234L67.1649 104.574L28.0383 176.561C27.2712 177.974 25.8386 178.833 24.1723 179.098C22.5064 179.363 20.5926 179.039 18.82 178.075C15.2997 176.162 13.5384 172.354 15.0757 169.511L15.076 169.511L54.2028 97.5234ZM54.4107 98.2267L15.5318 169.758C14.1863 172.246 15.6813 175.779 19.0676 177.62C20.7483 178.533 22.5471 178.831 24.0908 178.586C25.6342 178.34 26.9083 177.555 27.5826 176.314L66.4618 104.782L54.4107 98.2267Z" fill="#FFCF2D"/>
<path d="M66.8063 104.696C68.2503 102.039 66.6225 98.3645 63.1705 96.4885C59.7185 94.6125 55.7495 95.2455 54.3055 97.9023C52.8615 100.559 54.4893 104.234 57.9413 106.11C61.3934 107.986 65.3623 107.353 66.8063 104.696Z" fill="#66B0F0"/>
<path fill-rule="evenodd" clip-rule="evenodd" d="M54.5328 98.0256C53.1854 100.505 54.6794 104.042 58.0647 105.881C61.4499 107.721 65.2306 107.051 66.5781 104.572C67.9255 102.092 66.4315 98.5555 63.0462 96.7158C59.661 94.8761 55.8802 95.5465 54.5328 98.0256ZM57.8171 106.337C54.2983 104.425 52.5367 100.613 54.0772 97.7781C55.6178 94.9436 59.775 94.348 63.2938 96.2603C66.8126 98.1726 68.5742 101.985 67.0336 104.819C65.4931 107.654 61.3359 108.249 57.8171 106.337Z" fill="#FFCF2D"/>
<path d="M41.333 132.148L59.7611 117.102L59.4708 122.452L65.3715 123.925L51.9315 132.221C55.5404 131.599 59.8856 131.091 63.4633 131.371C67.7256 131.702 66.2945 136.69 64.6974 140.952C68.4307 140.589 80.9478 133.009 85.6663 134.44C88.5492 135.311 87.5122 141.191 86.6826 144.437C87.8855 144.499 93.9729 144.426 93.9729 144.426L90.7581 147.361L92.5211 150.296C85.6767 150.596 85.5937 149.518 86.4544 144.665C86.5996 139.386 80.7507 144.457 68.2959 147.433C62.1256 148.906 62.9241 144.893 64.4485 140.714C63.8367 138.795 59.2634 136.711 44.5686 140.548L41.333 132.148Z" fill="#FE5244"/>
<path d="M41.6026 141.314C44.6095 141.314 47.0471 138.877 47.0471 135.87C47.0471 132.863 44.6095 130.426 41.6026 130.426C38.5958 130.426 36.1582 132.863 36.1582 135.87C36.1582 138.877 38.5958 141.314 41.6026 141.314Z" fill="white"/>
<path fill-rule="evenodd" clip-rule="evenodd" d="M41.6031 130.685C38.7394 130.685 36.4179 133.006 36.4179 135.869C36.4179 138.733 38.7394 141.054 41.6031 141.054C44.4668 141.054 46.7883 138.733 46.7883 135.869C46.7883 133.006 44.4668 130.685 41.6031 130.685ZM35.8994 135.869C35.8994 132.72 38.453 130.166 41.6031 130.166C44.7532 130.166 47.3068 132.72 47.3068 135.869C47.3068 139.019 44.7532 141.573 41.6031 141.573C38.453 141.573 35.8994 139.019 35.8994 135.869Z" fill="#FE5244"/>
<path d="M39.7259 137.811V138.153C39.7259 141.637 36.9052 144.468 33.4104 144.468H26.7837V137.811H39.7259Z" fill="#A0505A"/>
<path d="M47.7944 150.596L46.0418 154.702L43.9988 159.504L42.8892 162.107L41.1988 166.078C41.1573 166.182 41.0951 166.296 41.0433 166.389C41.0433 166.4 41.0329 166.4 41.0329 166.41C40.4936 167.343 39.4462 167.924 38.2951 167.924H24.8655C23.2373 167.924 22.1277 166.379 22.7292 164.958L23.704 162.666L25.8507 157.627L27.6966 153.282L29.3247 149.466C29.8018 148.346 30.9529 147.609 32.2388 147.609H45.6684C47.2862 147.63 48.3958 149.175 47.7944 150.596Z" fill="#A0505A"/>
<path fill-rule="evenodd" clip-rule="evenodd" d="M30.4973 152.565C29.7008 152.565 28.9616 152.907 28.45 153.475C28.3542 153.581 28.1903 153.59 28.0839 153.494C27.9774 153.399 27.9688 153.235 28.0646 153.128C28.673 152.452 29.5516 152.047 30.4973 152.047H43.3254C44.8301 152.047 45.9227 153.344 45.7713 154.73C45.7558 154.872 45.6278 154.975 45.4854 154.959C45.3431 154.944 45.2403 154.816 45.2559 154.673C45.3742 153.591 44.5171 152.565 43.3254 152.565H30.4973Z" fill="#73325A"/>
<path fill-rule="evenodd" clip-rule="evenodd" d="M28.6406 157.034C27.8899 157.034 27.1988 157.328 26.698 157.829C26.5967 157.931 26.4326 157.931 26.3313 157.829C26.2301 157.728 26.2301 157.564 26.3313 157.463C26.9297 156.864 27.7527 156.516 28.6406 156.516H41.4687C43.1106 156.516 44.2537 158.046 43.8341 159.561C43.7959 159.699 43.6531 159.78 43.5151 159.742C43.3771 159.703 43.2962 159.561 43.3344 159.423C43.6614 158.242 42.772 157.034 41.4687 157.034H28.6406Z" fill="#73325A"/>
<path fill-rule="evenodd" clip-rule="evenodd" d="M26.577 162.116C25.8554 162.116 25.1826 162.391 24.6808 162.865C24.5767 162.963 24.4126 162.958 24.3143 162.854C24.2161 162.75 24.2209 162.586 24.325 162.488C24.9225 161.924 25.7223 161.598 26.577 161.598H39.4051C41.0934 161.598 42.2718 163.243 41.7238 164.805C41.6764 164.94 41.5285 165.011 41.3934 164.964C41.2583 164.916 41.1872 164.768 41.2345 164.633C41.6614 163.416 40.7449 162.116 39.4051 162.116H26.577Z" fill="#73325A"/>
<path d="M70.8886 29.9846C71.7494 29.0617 72.6101 28.201 73.4605 27.4336C74.2901 27.8173 75.0782 28.3461 75.7938 29.0098C76.499 29.6735 77.0901 30.4201 77.536 31.2186C76.8308 32.1208 76.0427 33.0437 75.1819 33.9666C70.8886 38.5812 66.4605 41.4329 65.2679 40.3337C64.0857 39.2345 66.5953 34.5992 70.8886 29.9846Z" fill="#FFCF2D"/>
<path d="M40.753 66.527L39.3841 67.3774C34.4167 70.4572 24.7412 63.8309 17.7826 52.5796C10.8138 41.3282 9.19599 29.7244 14.153 26.6445L15.5634 25.7734L23.953 50.4537L40.753 66.527Z" fill="#66B0F0"/>
<path d="M54.6487 79.8317L40.7524 66.5271L23.9421 50.4434L15.5525 25.7735L8.05469 3.7168L42.9717 31.8503L54.6487 79.8317Z" fill="#66B0F0"/>
<path fill-rule="evenodd" clip-rule="evenodd" d="M7.41553 2.80273L43.2494 31.675L55.2032 80.7937L40.5377 66.7527L23.6724 50.6164L15.2583 25.8745L7.41553 2.80273ZM8.69468 4.63242L15.8474 25.6741L24.2125 50.272L40.9679 66.3031L54.095 78.8712L42.6947 32.0271L8.69468 4.63242Z" fill="white"/>
<path fill-rule="evenodd" clip-rule="evenodd" d="M8.98461 2.5293L44.4217 30.439L56.0411 78.442L55.4363 78.5884L43.8676 30.7946L8.59961 3.01808L8.98461 2.5293Z" fill="#9A3B82"/>
<path fill-rule="evenodd" clip-rule="evenodd" d="M49.1367 42.2727C48.0866 39.0066 44.6913 37.0966 41.3452 37.9083L41.3449 37.9084C37.8203 38.7598 35.6516 42.3143 36.5032 45.8392L35.8984 45.9853C34.9662 42.1269 37.3397 38.2359 41.1987 37.3036C44.8624 36.4149 48.5805 38.5069 49.7296 42.0839L49.7301 42.0855L52.6446 51.4925L52.6447 51.4928C54.1562 56.388 61.2091 56.0102 62.1947 50.9752L63.8746 42.3375L64.4854 42.4562L62.8054 51.0943L62.8053 51.0947C61.6961 56.7613 53.7537 57.1925 52.0502 51.6766M52.0502 51.6763L49.1372 42.2742C49.137 42.2737 49.1368 42.2732 49.1367 42.2727" fill="#FFCF2D"/>
<path fill-rule="evenodd" clip-rule="evenodd" d="M64.5732 40.4386C64.0521 40.4386 63.6295 40.8611 63.6295 41.3823C63.6295 41.9034 64.0521 42.3259 64.5732 42.3259C65.0944 42.3259 65.5169 41.9034 65.5169 41.3823C65.5169 40.8611 65.0944 40.4386 64.5732 40.4386ZM63.0073 41.3823C63.0073 40.5175 63.7084 39.8164 64.5732 39.8164C65.4381 39.8164 66.1392 40.5175 66.1392 41.3823C66.1392 42.247 65.4381 42.9481 64.5732 42.9481C63.7084 42.9481 63.0073 42.247 63.0073 41.3823Z" fill="#66B0F0"/>
</g>
<defs>
<clipPath id="clip0_2234_10158">
<rect width="354" height="246" fill="white"/>
</clipPath>
</defs>
</svg>
