<svg width="16" height="17" viewBox="0 0 16 17" fill="none" xmlns="http://www.w3.org/2000/svg">
<path fill-rule="evenodd" clip-rule="evenodd" d="M5.3335 9.50065C5.3335 9.13246 5.63197 8.83398 6.00016 8.83398H10.0002C10.3684 8.83398 10.6668 9.13246 10.6668 9.50065C10.6668 9.86884 10.3684 10.1673 10.0002 10.1673H6.00016C5.63197 10.1673 5.3335 9.86884 5.3335 9.50065Z" fill="#424551"/>
<path fill-rule="evenodd" clip-rule="evenodd" d="M5.3335 12.0007C5.3335 11.6325 5.63197 11.334 6.00016 11.334H8.00016C8.36835 11.334 8.66683 11.6325 8.66683 12.0007C8.66683 12.3688 8.36835 12.6673 8.00016 12.6673H6.00016C5.63197 12.6673 5.3335 12.3688 5.3335 12.0007Z" fill="#424551"/>
<path fill-rule="evenodd" clip-rule="evenodd" d="M6.02877 1.52925C6.1538 1.40422 6.32337 1.33398 6.50018 1.33398H11.0002C12.4729 1.33398 13.6668 2.52789 13.6668 4.00065L13.6668 13.0007C13.6668 14.4734 12.4729 15.6673 11.0002 15.6673H5.00016C3.5274 15.6673 2.33349 14.4734 2.3335 13.0006L2.33351 5.50065C2.33351 5.32384 2.40375 5.15427 2.52877 5.02925L6.02877 1.52925ZM6.33349 3.11015V5.33398H4.10965L6.33349 3.11015ZM3.66684 6.66732L3.66683 13.0006C3.66683 13.737 4.26378 14.334 5.00016 14.334H11.0002C11.7366 14.334 12.3335 13.737 12.3335 13.0007L12.3335 4.00065C12.3335 3.26427 11.7366 2.66732 11.0002 2.66732H7.66682V6.00065C7.66682 6.36884 7.36835 6.66732 7.00016 6.66732H3.66684Z" fill="#424551"/>
</svg>
