<svg width="16" height="17" viewBox="0 0 16 17" fill="none" xmlns="http://www.w3.org/2000/svg">
<path fill-rule="evenodd" clip-rule="evenodd" d="M10.7117 7.44002C11.4099 7.97368 11.4099 9.02507 10.7117 9.55873L7.65841 11.8924C6.78101 12.5629 5.51541 11.9373 5.51541 10.833V6.16575C5.51541 5.06144 6.78101 4.43581 7.65841 5.1064L10.7117 7.44002ZM9.90204 8.49938L6.84875 6.16575L6.84875 10.833L9.90204 8.49938Z" fill="#424551"/>
<path fill-rule="evenodd" clip-rule="evenodd" d="M7.99984 2.49935C4.68613 2.49935 1.99984 5.18564 1.99984 8.49935C1.99984 11.8131 4.68613 14.4993 7.99984 14.4993C11.3135 14.4993 13.9998 11.8131 13.9998 8.49935C13.9998 5.18564 11.3135 2.49935 7.99984 2.49935ZM0.666504 8.49935C0.666504 4.44926 3.94975 1.16602 7.99984 1.16602C12.0499 1.16602 15.3332 4.44926 15.3332 8.49935C15.3332 12.5494 12.0499 15.8327 7.99984 15.8327C3.94975 15.8327 0.666504 12.5494 0.666504 8.49935Z" fill="#424551"/>
</svg>
