<svg width="20" height="20" viewBox="0 0 20 20" fill="none" xmlns="http://www.w3.org/2000/svg">
<g clip-path="url(#clip0_2492_18388)">
<path fill-rule="evenodd" clip-rule="evenodd" d="M0.833252 2.91634C0.833252 1.76575 1.76599 0.833008 2.91658 0.833008H7.08325C8.23384 0.833008 9.16658 1.76575 9.16658 2.91634V7.08301C9.16658 8.2336 8.23384 9.16634 7.08325 9.16634H2.91658C1.76599 9.16634 0.833252 8.2336 0.833252 7.08301V2.91634ZM2.91658 2.49967C2.68647 2.49967 2.49992 2.68622 2.49992 2.91634V7.08301C2.49992 7.31313 2.68647 7.49967 2.91658 7.49967H7.08325C7.31337 7.49967 7.49992 7.31313 7.49992 7.08301V2.91634C7.49992 2.68622 7.31337 2.49967 7.08325 2.49967H2.91658Z" fill="#FF3F3A"/>
<path fill-rule="evenodd" clip-rule="evenodd" d="M0.833252 12.9163C0.833252 11.7657 1.76599 10.833 2.91658 10.833H7.08325C8.23384 10.833 9.16658 11.7657 9.16658 12.9163V17.083C9.16658 18.2336 8.23384 19.1663 7.08325 19.1663H2.91658C1.76599 19.1663 0.833252 18.2336 0.833252 17.083V12.9163ZM2.91658 12.4997C2.68647 12.4997 2.49992 12.6862 2.49992 12.9163V17.083C2.49992 17.3131 2.68647 17.4997 2.91658 17.4997H7.08325C7.31337 17.4997 7.49992 17.3131 7.49992 17.083V12.9163C7.49992 12.6862 7.31337 12.4997 7.08325 12.4997H2.91658Z" fill="#FF3F3A"/>
<path fill-rule="evenodd" clip-rule="evenodd" d="M10.8333 2.91634C10.8333 1.76575 11.766 0.833008 12.9166 0.833008H17.0833C18.2338 0.833008 19.1666 1.76575 19.1666 2.91634V7.08301C19.1666 8.2336 18.2338 9.16634 17.0833 9.16634H12.9166C11.766 9.16634 10.8333 8.2336 10.8333 7.08301V2.91634ZM12.9166 2.49967C12.6865 2.49967 12.4999 2.68622 12.4999 2.91634V7.08301C12.4999 7.31313 12.6865 7.49967 12.9166 7.49967H17.0833C17.3134 7.49967 17.4999 7.31313 17.4999 7.08301V2.91634C17.4999 2.68622 17.3134 2.49967 17.0833 2.49967H12.9166Z" fill="#FF3F3A"/>
<path fill-rule="evenodd" clip-rule="evenodd" d="M10.8333 12.9163C10.8333 11.7657 11.766 10.833 12.9166 10.833H17.0833C18.2338 10.833 19.1666 11.7657 19.1666 12.9163V17.083C19.1666 18.2336 18.2338 19.1663 17.0833 19.1663H12.9166C11.766 19.1663 10.8333 18.2336 10.8333 17.083V12.9163ZM12.9166 12.4997C12.6865 12.4997 12.4999 12.6862 12.4999 12.9163V17.083C12.4999 17.3131 12.6865 17.4997 12.9166 17.4997H17.0833C17.3134 17.4997 17.4999 17.3131 17.4999 17.083V12.9163C17.4999 12.6862 17.3134 12.4997 17.0833 12.4997H12.9166Z" fill="#FF3F3A"/>
</g>
<defs>
<clipPath id="clip0_2492_18388">
<rect width="20" height="20" fill="white"/>
</clipPath>
</defs>
</svg>
