<svg width="16" height="16" viewBox="0 0 16 16" fill="none" xmlns="http://www.w3.org/2000/svg">
<path fill-rule="evenodd" clip-rule="evenodd" d="M7.25004 2.16634C4.44259 2.16634 2.16671 4.44223 2.16671 7.24967C2.16671 10.0571 4.44259 12.333 7.25004 12.333C8.65263 12.333 9.92148 11.7658 10.8419 10.8467C11.7641 9.92589 12.3334 8.6549 12.3334 7.24967C12.3334 4.44223 10.0575 2.16634 7.25004 2.16634ZM0.833374 7.24967C0.833374 3.70585 3.70621 0.833008 7.25004 0.833008C10.7939 0.833008 13.6667 3.70585 13.6667 7.24967C13.6667 8.78248 13.1286 10.1905 12.232 11.2939L14.971 14.0278C15.2316 14.2879 15.232 14.7101 14.9719 14.9706C14.7118 15.2312 14.2897 15.2316 14.0291 14.9715L11.2887 12.2362C10.1862 13.13 8.78027 13.6663 7.25004 13.6663C3.70621 13.6663 0.833374 10.7935 0.833374 7.24967Z" fill="#9A9CA5"/>
</svg>
