<svg width="259" height="259" viewBox="0 0 259 259" fill="none" xmlns="http://www.w3.org/2000/svg">
<path d="M129.089 0C57.7268 0 0 57.7268 0 129.089C0 200.273 57.7268 258.177 129.089 258.177C200.273 258.177 258.177 200.45 258.177 129.089C258 57.7268 200.273 0 129.089 0ZM129.089 249.855C62.3308 249.855 8.32258 195.846 8.32258 129.089C8.32258 62.3308 62.3308 8.32258 129.089 8.32258C195.846 8.32258 249.855 62.3308 249.855 129.089C249.855 195.669 195.669 249.855 129.089 249.855Z" fill="white"/>
<path d="M129.089 27.8008C73.3095 27.8008 27.978 73.1323 27.978 128.911C27.978 184.69 73.3095 230.022 129.089 230.022C184.868 230.022 230.199 184.867 230.199 129.088C230.199 73.1323 184.868 27.8008 129.089 27.8008ZM129.089 214.616C81.8092 214.616 43.3837 176.191 43.3837 128.911C43.3837 81.6319 81.8092 43.2064 129.089 43.2064C176.368 43.2064 214.793 81.6319 214.793 128.911C214.793 176.191 176.368 214.616 129.089 214.616Z" fill="white"/>
</svg>
