<svg width="172" height="138" viewBox="0 0 172 138" fill="none" xmlns="http://www.w3.org/2000/svg">
<g opacity="0.2" clip-path="url(#clip0_2320_3682)">
<path d="M30.0975 0C-48.4557 0 -112 63.5443 -112 142.097C-112 220.456 -48.4557 284.195 30.0975 284.195C108.456 284.195 172.195 220.651 172.195 142.097C172 63.5443 108.456 0 30.0975 0ZM30.0975 275.034C-43.3878 275.034 -102.839 215.583 -102.839 142.097C-102.839 68.6122 -43.3878 9.16129 30.0975 9.16129C103.583 9.16129 163.034 68.6122 163.034 142.097C163.034 215.388 103.388 275.034 30.0975 275.034Z" fill="white"/>
<path d="M30.0985 30.6025C-31.3016 30.6025 -81.2014 80.5023 -81.2014 141.902C-81.2014 203.303 -31.3016 253.202 30.0985 253.202C91.4986 253.202 141.398 203.498 141.398 142.097C141.398 80.5023 91.4986 30.6025 30.0985 30.6025ZM30.0985 236.244C-21.9454 236.244 -64.2433 193.946 -64.2433 141.902C-64.2433 89.8585 -21.9454 47.5607 30.0985 47.5607C82.1424 47.5607 124.44 89.8585 124.44 141.902C124.44 193.946 82.1424 236.244 30.0985 236.244Z" fill="white"/>
<path d="M30.098 79.5273C-4.40304 79.5273 -32.4717 107.596 -32.4717 142.097C-32.4717 176.598 -4.59796 204.667 30.098 204.667C64.599 204.667 92.6677 176.598 92.6677 142.097C92.4727 107.596 64.599 79.5273 30.098 79.5273ZM30.098 175.623C11.5805 175.623 -3.42843 160.614 -3.42843 142.097C-3.42843 123.579 11.5805 108.571 30.098 108.571C48.6155 108.571 63.6244 123.579 63.6244 142.097C63.6244 160.614 48.6155 175.623 30.098 175.623Z" fill="white"/>
</g>
<defs>
<clipPath id="clip0_2320_3682">
<rect width="284" height="284" fill="white" transform="translate(-112)"/>
</clipPath>
</defs>
</svg>
