<svg width="157" height="137" viewBox="0 0 157 137" fill="none" xmlns="http://www.w3.org/2000/svg">
<path d="M5.3356 40.2644C5.3356 41.7838 4.19226 42.9234 2.6678 42.9234C1.14334 42.9234 0 41.7838 0 40.2644C0 38.745 1.14334 37.6055 2.6678 37.6055C4.19226 37.6055 5.3356 38.8716 5.3356 40.2644Z" fill="white"/>
<path d="M28.0755 40.2644C28.0755 41.7838 26.9321 42.9234 25.4077 42.9234C23.8832 42.9234 22.7399 41.7838 22.7399 40.2644C22.7399 38.745 23.8832 37.6055 25.4077 37.6055C26.8051 37.6055 28.0755 38.8716 28.0755 40.2644Z" fill="white"/>
<path d="M50.688 40.2644C50.688 41.7838 49.5447 42.9234 48.0202 42.9234C46.4958 42.9234 45.3524 41.7838 45.3524 40.2644C45.3524 38.745 46.4958 37.6055 48.0202 37.6055C49.5447 37.6055 50.688 38.8716 50.688 40.2644Z" fill="white"/>
<path d="M73.4279 40.2644C73.4279 41.7838 72.2845 42.9234 70.7601 42.9234C69.2356 42.9234 68.0923 41.7838 68.0923 40.2644C68.0923 38.745 69.2356 37.6055 70.7601 37.6055C72.2845 37.6055 73.4279 38.8716 73.4279 40.2644Z" fill="white"/>
<path d="M96.1677 40.2644C96.1677 41.7838 95.0244 42.9234 93.5 42.9234C91.9755 42.9234 90.8322 41.7838 90.8322 40.2644C90.8322 38.745 91.9755 37.6055 93.5 37.6055C94.8974 37.6055 96.1677 38.8716 96.1677 40.2644Z" fill="white"/>
<path d="M118.908 40.2644C118.908 41.7838 117.764 42.9234 116.24 42.9234C114.715 42.9234 113.572 41.7838 113.572 40.2644C113.572 38.745 114.715 37.6055 116.24 37.6055C117.764 37.6055 118.908 38.8716 118.908 40.2644Z" fill="white"/>
<path d="M141.52 40.2644C141.52 41.7838 140.377 42.9234 138.852 42.9234C137.328 42.9234 136.185 41.7838 136.185 40.2644C136.185 38.745 137.328 37.6055 138.852 37.6055C140.377 37.6055 141.52 38.8716 141.52 40.2644Z" fill="white"/>
<path d="M5.3356 59.1306C5.3356 60.6501 4.19226 61.7896 2.6678 61.7896C1.14334 61.7896 0 60.6501 0 59.1306C0 57.6112 1.14334 56.4717 2.6678 56.4717C4.19226 56.4717 5.3356 57.6112 5.3356 59.1306Z" fill="white"/>
<path d="M28.0755 59.1306C28.0755 60.6501 26.9321 61.7896 25.4077 61.7896C23.8832 61.7896 22.7399 60.6501 22.7399 59.1306C22.7399 57.6112 23.8832 56.4717 25.4077 56.4717C26.8051 56.4717 28.0755 57.6112 28.0755 59.1306Z" fill="white"/>
<path d="M50.688 59.1306C50.688 60.6501 49.5447 61.7896 48.0202 61.7896C46.4958 61.7896 45.3524 60.6501 45.3524 59.1306C45.3524 57.6112 46.4958 56.4717 48.0202 56.4717C49.5447 56.4717 50.688 57.6112 50.688 59.1306Z" fill="white"/>
<path d="M73.4279 59.1306C73.4279 60.6501 72.2845 61.7896 70.7601 61.7896C69.2356 61.7896 68.0923 60.6501 68.0923 59.1306C68.0923 57.6112 69.2356 56.4717 70.7601 56.4717C72.2845 56.4717 73.4279 57.6112 73.4279 59.1306Z" fill="white"/>
<path d="M96.1677 59.1306C96.1677 60.6501 95.0244 61.7896 93.5 61.7896C91.9755 61.7896 90.8322 60.6501 90.8322 59.1306C90.8322 57.6112 91.9755 56.4717 93.5 56.4717C94.8974 56.4717 96.1677 57.6112 96.1677 59.1306Z" fill="white"/>
<path d="M118.908 59.1306C118.908 60.6501 117.764 61.7896 116.24 61.7896C114.715 61.7896 113.572 60.6501 113.572 59.1306C113.572 57.6112 114.715 56.4717 116.24 56.4717C117.764 56.4717 118.908 57.6112 118.908 59.1306Z" fill="white"/>
<path d="M141.52 59.1306C141.52 60.6501 140.377 61.7896 138.852 61.7896C137.328 61.7896 136.185 60.6501 136.185 59.1306C136.185 57.6112 137.328 56.4717 138.852 56.4717C140.377 56.4717 141.52 57.6112 141.52 59.1306Z" fill="white"/>
<path d="M5.3356 2.65896C5.3356 4.17837 4.19226 5.31793 2.6678 5.31793C1.14334 5.31793 0 4.17837 0 2.65896C0 1.13956 1.14334 0 2.6678 0C4.19226 0 5.3356 1.13956 5.3356 2.65896Z" fill="white"/>
<path d="M28.0755 2.65896C28.0755 4.17837 26.9321 5.31793 25.4077 5.31793C23.8832 5.31793 22.7399 4.17837 22.7399 2.65896C22.7399 1.13956 23.8832 0 25.4077 0C26.8051 0 28.0755 1.13956 28.0755 2.65896Z" fill="white"/>
<path d="M50.688 2.65896C50.688 4.17837 49.5447 5.31793 48.0202 5.31793C46.4958 5.31793 45.3524 4.17837 45.3524 2.65896C45.3524 1.13956 46.6228 0 48.0202 0C49.5447 0 50.688 1.13956 50.688 2.65896Z" fill="white"/>
<path d="M73.4279 2.65896C73.4279 4.17837 72.2845 5.31793 70.7601 5.31793C69.2356 5.31793 68.0923 4.17837 68.0923 2.65896C68.0923 1.13956 69.3627 0 70.7601 0C72.1575 0 73.4279 1.13956 73.4279 2.65896Z" fill="white"/>
<path d="M96.1677 2.65896C96.1677 4.17837 95.0244 5.31793 93.5 5.31793C91.9755 5.31793 90.8322 4.17837 90.8322 2.65896C90.8322 1.13956 91.9755 0 93.5 0C94.8974 0 96.1677 1.13956 96.1677 2.65896Z" fill="white"/>
<path d="M118.908 2.65896C118.908 4.17837 117.764 5.31793 116.24 5.31793C114.715 5.31793 113.572 4.17837 113.572 2.65896C113.572 1.13956 114.715 0 116.24 0C117.764 0 118.908 1.13956 118.908 2.65896Z" fill="white"/>
<path d="M141.52 2.65896C141.52 4.17837 140.377 5.31793 138.852 5.31793C137.328 5.31793 136.185 4.17837 136.185 2.65896C136.185 1.13956 137.328 0 138.852 0C140.377 0 141.52 1.13956 141.52 2.65896Z" fill="white"/>
<path d="M5.3356 21.5252C5.3356 23.0446 4.19226 24.1841 2.6678 24.1841C1.14334 24.1841 0 22.918 0 21.5252C0 20.0058 1.14334 18.8662 2.6678 18.8662C4.19226 18.8662 5.3356 20.0058 5.3356 21.5252Z" fill="white"/>
<path d="M28.0755 21.5252C28.0755 23.0446 26.9321 24.1841 25.4077 24.1841C23.8832 24.1841 22.7399 23.0446 22.7399 21.5252C22.7399 20.0058 23.8832 18.8662 25.4077 18.8662C26.8051 18.8662 28.0755 20.0058 28.0755 21.5252Z" fill="white"/>
<path d="M50.688 21.5252C50.688 23.0446 49.5447 24.1841 48.0202 24.1841C46.4958 24.1841 45.3524 23.0446 45.3524 21.5252C45.3524 20.0058 46.4958 18.8662 48.0202 18.8662C49.5447 18.8662 50.688 20.0058 50.688 21.5252Z" fill="white"/>
<path d="M73.4279 21.5252C73.4279 23.0446 72.2845 24.1841 70.7601 24.1841C69.2356 24.1841 68.0923 23.0446 68.0923 21.5252C68.0923 20.0058 69.2356 18.8662 70.7601 18.8662C72.2845 18.8662 73.4279 20.0058 73.4279 21.5252Z" fill="white"/>
<path d="M96.1677 21.5252C96.1677 23.0446 95.0244 24.1841 93.5 24.1841C91.9755 24.1841 90.8322 23.0446 90.8322 21.5252C90.8322 20.0058 91.9755 18.8662 93.5 18.8662C94.8974 18.8662 96.1677 20.0058 96.1677 21.5252Z" fill="white"/>
<path d="M118.908 21.5252C118.908 23.0446 117.764 24.1841 116.24 24.1841C114.715 24.1841 113.572 23.0446 113.572 21.5252C113.572 20.0058 114.715 18.8662 116.24 18.8662C117.764 18.8662 118.908 20.0058 118.908 21.5252Z" fill="white"/>
<path d="M141.52 21.5252C141.52 23.0446 140.377 24.1841 138.852 24.1841C137.328 24.1841 136.185 23.0446 136.185 21.5252C136.185 20.0058 137.328 18.8662 138.852 18.8662C140.377 18.8662 141.52 20.0058 141.52 21.5252Z" fill="white"/>
<path d="M5.3356 77.8699C5.3356 79.3893 4.19226 80.5289 2.6678 80.5289C1.14334 80.5289 0 79.3893 0 77.8699C0 76.3505 1.14334 75.2109 2.6678 75.2109C4.19226 75.2109 5.3356 76.4771 5.3356 77.8699Z" fill="white"/>
<path d="M28.0755 77.8699C28.0755 79.3893 26.9321 80.5289 25.4077 80.5289C23.8832 80.5289 22.7399 79.3893 22.7399 77.8699C22.7399 76.3505 23.8832 75.2109 25.4077 75.2109C26.8051 75.2109 28.0755 76.4771 28.0755 77.8699Z" fill="white"/>
<path d="M50.688 77.8699C50.688 79.3893 49.5447 80.5289 48.0202 80.5289C46.4958 80.5289 45.3524 79.3893 45.3524 77.8699C45.3524 76.3505 46.4958 75.2109 48.0202 75.2109C49.5447 75.2109 50.688 76.4771 50.688 77.8699Z" fill="white"/>
<path d="M73.4279 77.8699C73.4279 79.3893 72.2845 80.5289 70.7601 80.5289C69.2356 80.5289 68.0923 79.3893 68.0923 77.8699C68.0923 76.3505 69.2356 75.2109 70.7601 75.2109C72.2845 75.2109 73.4279 76.4771 73.4279 77.8699Z" fill="white"/>
<path d="M96.1677 77.8699C96.1677 79.3893 95.0244 80.5289 93.5 80.5289C91.9755 80.5289 90.8322 79.3893 90.8322 77.8699C90.8322 76.3505 91.9755 75.2109 93.5 75.2109C94.8974 75.2109 96.1677 76.4771 96.1677 77.8699Z" fill="white"/>
<path d="M118.908 77.8699C118.908 79.3893 117.764 80.5289 116.24 80.5289C114.715 80.5289 113.572 79.3893 113.572 77.8699C113.572 76.3505 114.715 75.2109 116.24 75.2109C117.764 75.2109 118.908 76.4771 118.908 77.8699Z" fill="white"/>
<path d="M141.52 77.8699C141.52 79.3893 140.377 80.5289 138.852 80.5289C137.328 80.5289 136.185 79.3893 136.185 77.8699C136.185 76.3505 137.328 75.2109 138.852 75.2109C140.377 75.2109 141.52 76.4771 141.52 77.8699Z" fill="white"/>
<path d="M5.3356 96.7361C5.3356 98.2555 4.19226 99.3951 2.6678 99.3951C1.14334 99.3951 0 98.2555 0 96.7361C0 95.2167 1.14334 94.0771 2.6678 94.0771C4.19226 94.0771 5.3356 95.2167 5.3356 96.7361Z" fill="white"/>
<path d="M28.0755 96.7361C28.0755 98.2555 26.9321 99.3951 25.4077 99.3951C23.8832 99.3951 22.7399 98.2555 22.7399 96.7361C22.7399 95.2167 23.8832 94.0771 25.4077 94.0771C26.8051 94.0771 28.0755 95.2167 28.0755 96.7361Z" fill="white"/>
<path d="M50.688 96.7361C50.688 98.2555 49.5447 99.3951 48.0202 99.3951C46.4958 99.3951 45.3524 98.2555 45.3524 96.7361C45.3524 95.2167 46.4958 94.0771 48.0202 94.0771C49.5447 94.0771 50.688 95.2167 50.688 96.7361Z" fill="white"/>
<path d="M70.7601 99.3951C72.2335 99.3951 73.4279 98.2046 73.4279 96.7361C73.4279 95.2676 72.2335 94.0771 70.7601 94.0771C69.2867 94.0771 68.0923 95.2676 68.0923 96.7361C68.0923 98.2046 69.2867 99.3951 70.7601 99.3951Z" fill="white"/>
<path d="M96.1677 96.7361C96.1677 98.2555 95.0244 99.3951 93.5 99.3951C91.9755 99.3951 90.8322 98.2555 90.8322 96.7361C90.8322 95.2167 91.9755 94.0771 93.5 94.0771C94.8974 94.0771 96.1677 95.2167 96.1677 96.7361Z" fill="white"/>
<path d="M118.908 96.7361C118.908 98.2555 117.764 99.3951 116.24 99.3951C114.715 99.3951 113.572 98.2555 113.572 96.7361C113.572 95.2167 114.715 94.0771 116.24 94.0771C117.764 94.0771 118.908 95.2167 118.908 96.7361Z" fill="white"/>
<path d="M141.52 96.7361C141.52 98.2555 140.377 99.3951 138.852 99.3951C137.328 99.3951 136.185 98.2555 136.185 96.7361C136.185 95.2167 137.328 94.0771 138.852 94.0771C140.377 94.0771 141.52 95.2167 141.52 96.7361Z" fill="white"/>
<path d="M5.3356 115.601C5.3356 117.121 4.19226 118.26 2.6678 118.26C1.14334 118.26 0 117.121 0 115.601C0 114.082 1.14334 112.942 2.6678 112.942C4.19226 112.942 5.3356 114.082 5.3356 115.601Z" fill="white"/>
<path d="M28.0755 115.601C28.0755 117.121 26.9321 118.26 25.4077 118.26C23.8832 118.26 22.7399 117.121 22.7399 115.601C22.7399 114.082 23.8832 112.942 25.4077 112.942C26.8051 112.942 28.0755 114.082 28.0755 115.601Z" fill="white"/>
<path d="M50.688 115.601C50.688 117.121 49.5447 118.26 48.0202 118.26C46.4958 118.26 45.3524 117.121 45.3524 115.601C45.3524 114.082 46.4958 112.942 48.0202 112.942C49.5447 112.942 50.688 114.082 50.688 115.601Z" fill="white"/>
<path d="M73.4279 115.601C73.4279 117.121 72.2845 118.26 70.7601 118.26C69.2356 118.26 68.0923 117.121 68.0923 115.601C68.0923 114.082 69.2356 112.942 70.7601 112.942C72.2845 112.942 73.4279 114.082 73.4279 115.601Z" fill="white"/>
<path d="M96.1677 115.601C96.1677 117.121 95.0244 118.26 93.5 118.26C91.9755 118.26 90.8322 117.121 90.8322 115.601C90.8322 114.082 91.9755 112.942 93.5 112.942C94.8974 112.942 96.1677 114.082 96.1677 115.601Z" fill="white"/>
<path d="M118.908 115.601C118.908 117.121 117.764 118.26 116.24 118.26C114.715 118.26 113.572 117.121 113.572 115.601C113.572 114.082 114.715 112.942 116.24 112.942C117.764 112.942 118.908 114.082 118.908 115.601Z" fill="white"/>
<path d="M141.52 115.601C141.52 117.121 140.377 118.26 138.852 118.26C137.328 118.26 136.185 117.121 136.185 115.601C136.185 114.082 137.328 112.942 138.852 112.942C140.377 112.942 141.52 114.082 141.52 115.601Z" fill="white"/>
<path d="M5.3356 134.341C5.3356 135.86 4.19226 137 2.6678 137C1.14334 137 0 135.86 0 134.341C0 132.821 1.14334 131.682 2.6678 131.682C4.19226 131.682 5.3356 132.948 5.3356 134.341Z" fill="white"/>
<path d="M28.0755 134.341C28.0755 135.86 26.9321 137 25.4077 137C23.8832 137 22.7399 135.86 22.7399 134.341C22.7399 132.821 23.8832 131.682 25.4077 131.682C26.8051 131.682 28.0755 132.948 28.0755 134.341Z" fill="white"/>
<path d="M50.688 134.341C50.688 135.86 49.5447 137 48.0202 137C46.4958 137 45.3524 135.86 45.3524 134.341C45.3524 132.821 46.4958 131.682 48.0202 131.682C49.5447 131.682 50.688 132.948 50.688 134.341Z" fill="white"/>
<path d="M73.4279 134.341C73.4279 135.86 72.2845 137 70.7601 137C69.2356 137 68.0923 135.86 68.0923 134.341C68.0923 132.821 69.2356 131.682 70.7601 131.682C72.2845 131.682 73.4279 132.948 73.4279 134.341Z" fill="white"/>
<path d="M96.1677 134.341C96.1677 135.86 95.0244 137 93.5 137C91.9755 137 90.8322 135.86 90.8322 134.341C90.8322 132.821 91.9755 131.682 93.5 131.682C94.8974 131.682 96.1677 132.948 96.1677 134.341Z" fill="white"/>
<path d="M118.908 134.341C118.908 135.86 117.764 137 116.24 137C114.715 137 113.572 135.86 113.572 134.341C113.572 132.821 114.715 131.682 116.24 131.682C117.764 131.682 118.908 132.948 118.908 134.341Z" fill="white"/>
<path d="M141.52 134.341C141.52 135.86 140.377 137 138.852 137C137.328 137 136.185 135.86 136.185 134.341C136.185 132.821 137.328 131.682 138.852 131.682C140.377 131.682 141.52 132.948 141.52 134.341Z" fill="white"/>
</svg>
