<svg width="135" height="42" viewBox="0 0 135 42" fill="none" xmlns="http://www.w3.org/2000/svg">
<g opacity="0.2">
<path d="M67.954 -96.8984C105.018 -96.8984 135 -65.8893 135 -27.556C135 10.6823 105.018 41.7865 67.954 41.7865C30.9821 41.7865 0.908011 10.7774 0.908014 -27.556C0.999982 -65.8893 30.9821 -96.8984 67.954 -96.8984ZM67.954 37.3158C102.627 37.3158 130.677 8.30425 130.677 -27.556C130.677 -63.4162 102.627 -92.4278 67.954 -92.4278C33.2814 -92.4278 5.23059 -63.4162 5.23058 -27.556C5.23058 8.20912 33.3734 37.3158 67.954 37.3158Z" fill="white"/>
<path d="M67.9535 -81.9648C96.924 -81.9648 120.468 -57.6141 120.468 -27.6514C120.468 2.31142 96.924 26.6621 67.9535 26.6621C38.983 26.6621 15.4388 2.40654 15.4388 -27.5562C15.4388 -57.6141 38.983 -81.9649 67.9535 -81.9648ZM67.9535 18.3867C92.5094 18.3867 112.467 -2.25433 112.467 -27.6514C112.467 -53.0484 92.5094 -73.6894 67.9535 -73.6894C43.3976 -73.6894 23.4401 -53.0484 23.4401 -27.6514C23.4401 -2.25434 43.3976 18.3867 67.9535 18.3867Z" fill="white"/>
</g>
</svg>
