<svg width="112" height="170" viewBox="0 0 112 170" fill="none" xmlns="http://www.w3.org/2000/svg">
<path d="M6.83187 35.7462C6.03981 36.5382 4.84482 36.5314 4.04356 35.7301C3.2423 34.9288 3.2354 33.7338 4.02746 32.9418C4.81953 32.1497 6.01452 32.1566 6.81578 32.9579C7.55027 33.6924 7.55793 35.0201 6.83187 35.7462Z" fill="#FFCF2D"/>
<path d="M18.7171 47.6319C17.9251 48.424 16.7301 48.4171 15.9288 47.6158C15.1275 46.8146 15.1207 45.6196 15.9127 44.8275C16.7048 44.0355 17.8998 44.0423 18.701 44.8436C19.5023 45.6449 19.4432 46.9059 18.7171 47.6319Z" fill="#FFCF2D"/>
<path d="M30.6693 59.5841C29.8772 60.3761 28.6822 60.3692 27.881 59.568C27.0797 58.7667 27.0728 57.5717 27.8649 56.7797C28.6569 55.9876 29.8519 55.9945 30.6532 56.7958C31.4544 57.597 31.3953 58.858 30.6693 59.5841Z" fill="#FFCF2D"/>
<path d="M42.6214 71.5362C41.8293 72.3283 40.6344 72.3214 39.8331 71.5201C39.0318 70.7189 39.0249 69.5239 39.817 68.7318C40.6091 67.9398 41.8041 67.9466 42.6053 68.7479C43.3398 69.4824 43.3475 70.8102 42.6214 71.5362Z" fill="#FFCF2D"/>
<path d="M54.5736 83.4874C53.7815 84.2795 52.5865 84.2726 51.7853 83.4713C50.984 82.67 50.9771 81.4751 51.7692 80.683C52.5612 79.8909 53.7562 79.8978 54.5575 80.6991C55.3587 81.5003 55.2996 82.7613 54.5736 83.4874Z" fill="#FFCF2D"/>
<path d="M66.4588 95.3741C65.6668 96.1662 64.4718 96.1593 63.6705 95.358C62.8693 94.5568 62.8624 93.3618 63.6544 92.5697C64.4465 91.7776 65.6415 91.7845 66.4427 92.5858C67.244 93.3871 67.1849 94.6481 66.4588 95.3741Z" fill="#FFCF2D"/>
<path d="M78.4112 107.325C77.6192 108.117 76.4242 108.11 75.6229 107.309C74.8216 106.508 74.8147 105.313 75.6068 104.521C76.3989 103.729 77.5939 103.736 78.3951 104.537C79.1964 105.338 79.1373 106.599 78.4112 107.325Z" fill="#FFCF2D"/>
<path d="M90.3631 119.278C89.571 120.07 88.3761 120.064 87.5748 119.262C86.7735 118.461 86.7666 117.266 87.5587 116.474C88.3508 115.682 89.5458 115.689 90.347 116.49C91.0815 117.225 91.0892 118.552 90.3631 119.278Z" fill="#FFCF2D"/>
<path d="M8.88216 57.4669C8.0901 58.2589 6.89511 58.252 6.09385 57.4508C5.29259 56.6495 5.28569 55.4545 6.07776 54.6625C6.86982 53.8704 8.06481 53.8773 8.86607 54.6786C9.66733 55.4798 9.67423 56.6748 8.88216 57.4669Z" fill="#FFCF2D"/>
<path d="M20.8346 69.419C20.0425 70.2111 18.8475 70.2042 18.0462 69.4029C17.245 68.6017 17.2381 67.4067 18.0301 66.6146C18.8222 65.8226 20.0172 65.8295 20.8185 66.6307C21.6197 67.432 21.6266 68.627 20.8346 69.419Z" fill="#FFCF2D"/>
<path d="M32.7865 81.3702C31.9944 82.1623 30.7994 82.1554 29.9981 81.3541C29.1969 80.5529 29.19 79.3579 29.982 78.5658C30.7741 77.7737 31.9691 77.7806 32.7704 78.5819C33.5049 79.3164 33.5785 80.5781 32.7865 81.3702Z" fill="#FFCF2D"/>
<path d="M44.7386 93.3233C43.9465 94.1154 42.7516 94.1085 41.9503 93.3072C41.149 92.506 41.1421 91.311 41.9342 90.5189C42.7263 89.7269 43.9213 89.7338 44.7225 90.535C45.5238 91.3363 45.5307 92.5313 44.7386 93.3233Z" fill="#FFCF2D"/>
<path d="M56.6241 105.208C55.832 106 54.6371 105.993 53.8358 105.192C53.0345 104.391 53.0276 103.196 53.8197 102.404C54.6118 101.612 55.8068 101.619 56.608 102.42C57.4093 103.221 57.4162 104.416 56.6241 105.208Z" fill="#FFCF2D"/>
<path d="M68.5763 117.161C67.7842 117.953 66.5892 117.946 65.7879 117.145C64.9867 116.344 64.9798 115.149 65.7718 114.357C66.5639 113.565 67.7589 113.572 68.5602 114.373C69.3614 115.174 69.3683 116.369 68.5763 117.161Z" fill="#FFCF2D"/>
<path d="M80.5284 129.112C79.7363 129.904 78.5413 129.898 77.7401 129.096C76.9388 128.295 76.9319 127.1 77.724 126.308C78.5161 125.516 79.7111 125.523 80.5123 126.324C81.2468 127.059 81.3205 128.32 80.5284 129.112Z" fill="#FFCF2D"/>
<path d="M14.4832 4.19052C13.6912 4.98258 12.4962 4.97569 11.6949 4.17443C10.8937 3.37317 10.8868 2.17818 11.6788 1.38611C12.4709 0.594048 13.6659 0.600945 14.4671 1.4022C15.2684 2.20346 15.2753 3.39846 14.4832 4.19052Z" fill="#FFCF2D"/>
<path d="M26.4354 16.1427C25.6433 16.9347 24.4483 16.9278 23.6471 16.1266C22.8458 15.3253 22.8389 14.1303 23.631 13.3383C24.423 12.5462 25.618 12.5531 26.4193 13.3544C27.1538 14.0888 27.2274 15.3506 26.4354 16.1427Z" fill="#FFCF2D"/>
<path d="M38.3206 28.0284C37.5286 28.8205 36.3336 28.8136 35.5323 28.0123C34.7311 27.2111 34.7242 26.0161 35.5162 25.224C36.3083 24.4319 37.5701 24.5056 38.3045 25.2401C39.1058 26.0414 39.1127 27.2363 38.3206 28.0284Z" fill="#FFCF2D"/>
<path d="M50.2728 39.9806C49.4807 40.7726 48.2857 40.7657 47.4845 39.9645C46.6832 39.1632 46.6763 37.9682 47.4684 37.1762C48.2604 36.3841 49.5222 36.4578 50.2567 37.1922C50.9912 37.9267 51.0648 39.1885 50.2728 39.9806Z" fill="#FFCF2D"/>
<path d="M62.2249 51.9327C61.4329 52.7248 60.2379 52.7179 59.4366 51.9166C58.6354 51.1154 58.6285 49.9204 59.4205 49.1283C60.2126 48.3362 61.4076 48.3431 62.2088 49.1444C62.9433 49.8789 63.017 51.1406 62.2249 51.9327Z" fill="#FFCF2D"/>
<path d="M74.1771 63.8839C73.385 64.676 72.19 64.6691 71.3888 63.8678C70.5875 63.0665 70.5806 61.8715 71.3727 61.0795C72.1647 60.2874 73.3597 60.2943 74.161 61.0956C74.9623 61.8968 74.9692 63.0918 74.1771 63.8839Z" fill="#FFCF2D"/>
<path d="M86.0626 75.7706C85.2705 76.5627 84.0755 76.5558 83.2743 75.7545C82.473 74.9533 82.4661 73.7583 83.2582 72.9662C84.0502 72.1741 85.2452 72.181 86.0465 72.9823C86.8478 73.7835 86.8546 74.9785 86.0626 75.7706Z" fill="#FFCF2D"/>
<path d="M98.0147 87.7218C97.2227 88.5138 96.0277 88.5069 95.2264 87.7057C94.4252 86.9044 94.4183 85.7094 95.2103 84.9174C96.0024 84.1253 97.1974 84.1322 97.9986 84.9335C98.7999 85.7347 98.8068 86.9297 98.0147 87.7218Z" fill="#FFCF2D"/>
<path d="M109.967 99.6749C109.175 100.467 107.98 100.46 107.178 99.6588C106.377 98.8575 106.37 97.6626 107.162 96.8705C107.954 96.0784 109.149 96.0853 109.951 96.8866C110.685 97.6211 110.759 98.8828 109.967 99.6749Z" fill="#FFCF2D"/>
<path d="M4.64852 14.0255C3.85646 14.8175 2.66146 14.8107 1.8602 14.0094C1.05894 13.2081 1.11805 11.9471 1.84411 11.2211C2.63618 10.429 3.83117 10.4359 4.63243 11.2372C5.43369 12.0384 5.44058 13.2334 4.64852 14.0255Z" fill="#FFCF2D"/>
<path d="M16.6007 25.9776C15.8086 26.7697 14.6136 26.7628 13.8124 25.9615C13.0111 25.1603 13.0042 23.9653 13.7963 23.1732C14.5883 22.3812 15.7833 22.3881 16.5846 23.1893C17.3191 23.9238 17.3927 25.1856 16.6007 25.9776Z" fill="#FFCF2D"/>
<path d="M28.4859 37.8624C27.6939 38.6545 26.4989 38.6476 25.6976 37.8463C24.8963 37.045 24.8894 35.8501 25.6815 35.058C26.4736 34.2659 27.6686 34.2728 28.4698 35.0741C29.2711 35.8753 29.278 37.0703 28.4859 37.8624Z" fill="#FFCF2D"/>
<path d="M40.4383 49.8145C39.6462 50.6066 38.4513 50.5997 37.65 49.7985C36.8487 48.9972 36.8418 47.8022 37.6339 47.0101C38.426 46.2181 39.621 46.225 40.4222 47.0262C41.2235 47.8275 41.2304 49.0225 40.4383 49.8145Z" fill="#FFCF2D"/>
<path d="M52.3902 61.7667C51.5981 62.5588 50.4032 62.5519 49.6019 61.7506C48.8006 60.9493 48.7937 59.7543 49.5858 58.9623C50.3779 58.1702 51.5729 58.1771 52.3741 58.9784C53.1086 59.7129 53.1823 60.9746 52.3902 61.7667Z" fill="#FFCF2D"/>
<path d="M64.3424 73.7198C63.5503 74.5119 62.3553 74.505 61.5541 73.7037C60.7528 72.9025 60.7459 71.7075 61.538 70.9154C62.33 70.1233 63.525 70.1302 64.3263 70.9315C65.1275 71.7328 65.1344 72.9278 64.3424 73.7198Z" fill="#FFCF2D"/>
<path d="M76.2276 85.6046C75.4356 86.3967 74.2406 86.3898 73.4393 85.5885C72.6381 84.7872 72.6312 83.5922 73.4232 82.8002C74.2153 82.0081 75.4103 82.015 76.2115 82.8163C77.0128 83.6175 77.0197 84.8125 76.2276 85.6046Z" fill="#FFCF2D"/>
<path d="M88.18 97.5558C87.388 98.3478 86.193 98.3409 85.3917 97.5397C84.5904 96.7384 84.5835 95.5434 85.3756 94.7513C86.1677 93.9593 87.3627 93.9662 88.1639 94.7674C88.9652 95.5687 88.9721 96.7637 88.18 97.5558Z" fill="#FFCF2D"/>
<path d="M100.132 109.509C99.3398 110.301 98.1449 110.294 97.3436 109.493C96.5423 108.692 96.5354 107.497 97.3275 106.704C98.1196 105.912 99.3146 105.919 100.116 106.721C100.85 107.455 100.924 108.717 100.132 109.509Z" fill="#FFCF2D"/>
<path d="M-0.886637 67.2354C-1.6787 68.0275 -2.87369 68.0206 -3.67495 67.2193C-4.47621 66.4181 -4.48311 65.2231 -3.69104 64.431C-2.89898 63.639 -1.70399 63.6459 -0.90273 64.4471C-0.10147 65.2484 -0.160578 66.5094 -0.886637 67.2354Z" fill="#FFCF2D"/>
<path d="M11.0655 79.1866C10.2734 79.9787 9.07845 79.9718 8.2772 79.1705C7.47594 78.3693 7.46904 77.1743 8.2611 76.3822C9.05317 75.5901 10.2482 75.597 11.0494 76.3983C11.8507 77.1996 11.7916 78.4606 11.0655 79.1866Z" fill="#FFCF2D"/>
<path d="M23.0177 91.1397C22.2256 91.9318 21.0306 91.9249 20.2293 91.1236C19.4281 90.3224 19.4212 89.1274 20.2133 88.3353C21.0053 87.5433 22.2003 87.5502 23.0016 88.3514C23.7361 89.0859 23.7437 90.4137 23.0177 91.1397Z" fill="#FFCF2D"/>
<path d="M34.9698 103.091C34.1778 103.883 32.9828 103.876 32.1815 103.075C31.3802 102.274 31.3733 101.079 32.1654 100.287C32.9575 99.4944 34.1525 99.5013 34.9537 100.303C35.755 101.104 35.6959 102.365 34.9698 103.091Z" fill="#FFCF2D"/>
<path d="M46.8551 114.978C46.063 115.77 44.868 115.763 44.0668 114.962C43.2655 114.16 43.2586 112.965 44.0507 112.173C44.8427 111.381 46.0377 111.388 46.839 112.189C47.6402 112.991 47.5811 114.252 46.8551 114.978Z" fill="#FFCF2D"/>
<path d="M58.8075 126.929C58.0154 127.721 56.8204 127.714 56.0191 126.913C55.2179 126.111 55.211 124.916 56.0031 124.124C56.7951 123.332 57.9901 123.339 58.7914 124.14C59.5926 124.942 59.5335 126.203 58.8075 126.929Z" fill="#FFCF2D"/>
<path d="M70.7594 138.882C69.9673 139.674 68.7723 139.667 67.971 138.866C67.1698 138.065 67.1629 136.87 67.955 136.078C68.747 135.285 69.942 135.292 70.7433 136.094C71.4778 136.828 71.4854 138.156 70.7594 138.882Z" fill="#FFCF2D"/>
<path d="M-1.55752 89.0065C-0.783101 89.7809 0.465267 89.7881 1.23079 89.0225C1.99632 88.257 1.98912 87.0086 1.2147 86.2342C0.440289 85.4598 -0.808082 85.4526 -1.57361 86.2181C-2.33914 86.9837 -2.33193 88.232 -1.55752 89.0065Z" fill="#FFCF2D"/>
<path d="M13.1832 100.974C12.3911 101.766 11.1961 101.759 10.3949 100.958C9.59362 100.156 9.58672 98.9614 10.3788 98.1693C11.1708 97.3772 12.3658 97.3841 13.1671 98.1854C13.9016 98.9199 13.9753 100.182 13.1832 100.974Z" fill="#FFCF2D"/>
<path d="M25.1351 112.927C24.343 113.719 23.148 113.712 22.3468 112.911C21.5455 112.109 21.5386 110.915 22.3307 110.122C23.1228 109.33 24.3177 109.337 25.119 110.139C25.9203 110.94 25.9272 112.135 25.1351 112.927Z" fill="#FFCF2D"/>
<path d="M37.0206 124.812C36.2285 125.604 35.0335 125.597 34.2323 124.796C33.431 123.994 33.4241 122.799 34.2162 122.007C35.0082 121.215 36.2032 121.222 37.0045 122.023C37.8058 122.825 37.8127 124.02 37.0206 124.812Z" fill="#FFCF2D"/>
<path d="M46.1844 136.749C46.9588 137.523 48.2072 137.53 48.9727 136.765C49.7383 135.999 49.7311 134.751 48.9566 133.976C48.1822 133.202 46.9339 133.195 46.1683 133.96C45.4028 134.726 45.41 135.974 46.1844 136.749Z" fill="#FFCF2D"/>
<path d="M60.9249 148.716C60.1328 149.508 58.9378 149.501 58.1366 148.7C57.3353 147.899 57.3284 146.704 58.1205 145.911C58.9125 145.119 60.1075 145.126 60.9088 145.928C61.6433 146.662 61.717 147.924 60.9249 148.716Z" fill="#FFCF2D"/>
<path d="M3.34798 110.81C2.55592 111.602 1.36093 111.595 0.559671 110.794C-0.241588 109.992 -0.248486 108.797 0.543576 108.005C1.33564 107.213 2.53063 107.22 3.33189 108.021C4.06638 108.756 4.14004 110.018 3.34798 110.81Z" fill="#FFCF2D"/>
<path d="M15.3001 122.761C14.5081 123.553 13.3131 123.546 12.5118 122.745C11.7106 121.943 11.7037 120.748 12.4957 119.956C13.2878 119.164 14.4828 119.171 15.284 119.973C16.0853 120.774 16.0922 121.969 15.3001 122.761Z" fill="#FFCF2D"/>
<path d="M27.1854 134.648C26.3933 135.44 25.1983 135.433 24.3971 134.631C23.5958 133.83 23.5889 132.635 24.381 131.843C25.173 131.051 26.368 131.058 27.1693 131.859C27.9706 132.661 27.9775 133.855 27.1854 134.648Z" fill="#FFCF2D"/>
<path d="M39.1375 146.599C38.3455 147.391 37.1505 147.384 36.3492 146.583C35.548 145.781 35.5411 144.586 36.3331 143.794C37.1252 143.002 38.3202 143.009 39.1214 143.81C39.9227 144.612 39.9296 145.807 39.1375 146.599Z" fill="#FFCF2D"/>
<path d="M51.0897 158.552C50.2976 159.344 49.1026 159.337 48.3014 158.536C47.5001 157.734 47.4932 156.54 48.2853 155.747C49.0773 154.955 50.2723 154.962 51.0736 155.764C51.8081 156.498 51.8817 157.76 51.0897 158.552Z" fill="#FFCF2D"/>
<path d="M5.53158 132.53C4.73951 133.322 3.54452 133.316 2.74326 132.514C1.94201 131.713 1.93511 130.518 2.72717 129.726C3.51924 128.934 4.71422 128.941 5.51548 129.742C6.31674 130.543 6.25763 131.804 5.53158 132.53Z" fill="#FFCF2D"/>
<path d="M17.4171 144.415C16.625 145.207 15.43 145.2 14.6288 144.399C13.8275 143.598 13.8206 142.403 14.6127 141.611C15.4047 140.819 16.5997 140.826 17.401 141.627C18.2022 142.428 18.1431 143.689 17.4171 144.415Z" fill="#FFCF2D"/>
<path d="M29.3692 156.368C28.5772 157.16 27.3822 157.153 26.5809 156.352C25.7797 155.551 25.7728 154.356 26.5648 153.564C27.3569 152.772 28.5519 152.779 29.3531 153.58C30.1544 154.381 30.0953 155.642 29.3692 156.368Z" fill="#FFCF2D"/>
<path d="M41.3214 168.319C40.5293 169.111 39.3343 169.105 38.5331 168.303C37.7318 167.502 37.7249 166.307 38.517 165.515C39.309 164.723 40.504 164.73 41.3053 165.531C42.0398 166.266 42.0474 167.593 41.3214 168.319Z" fill="#FFCF2D"/>
</svg>
