<svg width="16" height="16" viewBox="0 0 16 16" fill="none" xmlns="http://www.w3.org/2000/svg">
<path d="M8.00008 15.3337C12.0435 15.3337 15.3334 12.044 15.3334 8.00033C15.3334 7.30238 15.236 6.61458 15.0431 5.95588C14.948 5.63197 14.6098 5.44592 14.285 5.54096C13.9608 5.6357 13.7753 5.97512 13.8701 6.29903C14.0299 6.84629 14.1112 7.4189 14.1112 8.00033C14.1112 11.3699 11.3697 14.1114 8.00008 14.1114C4.63047 14.1114 1.88897 11.3699 1.88897 8.00033C1.88897 4.63071 4.63047 1.88921 8.00008 1.88921C9.22469 1.88921 10.4029 2.24729 11.4073 2.92449C11.6869 3.11323 12.067 3.03908 12.2555 2.75948C12.4441 2.47959 12.3705 2.09973 12.0906 1.91115C10.8836 1.09728 9.46922 0.666992 8.00008 0.666992C3.95669 0.666992 0.666748 3.95664 0.666748 8.00033C0.666748 12.044 3.95669 15.3337 8.00008 15.3337Z" fill="#FF3F3A"/>
<path d="M14.8619 1.52885L7.99996 8.3905L5.80465 6.19552C5.54423 5.93526 5.12235 5.93526 4.86194 6.19552C4.60168 6.45593 4.60168 6.87781 4.86194 7.13822L7.5286 9.80489C7.65898 9.93526 7.82922 10.0002 7.99996 10.0002C8.17069 10.0002 8.34094 9.93526 8.47131 9.80489L15.8046 2.47156C16.0649 2.21114 16.0649 1.78927 15.8046 1.52885C15.5442 1.2686 15.1224 1.2686 14.8619 1.52885Z" fill="#FF3F3A"/>
</svg>
