<svg width="14" height="16" viewBox="0 0 14 16" fill="none" xmlns="http://www.w3.org/2000/svg">
<path fill-rule="evenodd" clip-rule="evenodd" d="M7.00006 2.16634C5.71139 2.16634 4.66672 3.21101 4.66672 4.49967C4.66672 5.78834 5.71139 6.83301 7.00006 6.83301C8.28872 6.83301 9.33339 5.78834 9.33339 4.49967C9.33339 3.21101 8.28872 2.16634 7.00006 2.16634ZM3.33339 4.49967C3.33339 2.47463 4.97501 0.833008 7.00006 0.833008C9.0251 0.833008 10.6667 2.47463 10.6667 4.49967C10.6667 6.52472 9.0251 8.16634 7.00006 8.16634C4.97501 8.16634 3.33339 6.52472 3.33339 4.49967Z" fill="#FF3F3A"/>
<path fill-rule="evenodd" clip-rule="evenodd" d="M3.06943 10.1663C2.60722 10.1663 2.24595 10.3914 2.0993 10.7148C1.89632 11.1623 1.71252 11.6951 1.66915 12.2005C1.64976 12.4264 1.74395 12.5928 1.87374 12.6735C2.55985 13.0997 4.14965 13.833 7.00006 13.833C9.85046 13.833 11.4403 13.0997 12.1264 12.6735C12.2562 12.5928 12.3504 12.4264 12.331 12.2005C12.2876 11.6951 12.1038 11.1623 11.9008 10.7148C11.7542 10.3914 11.3929 10.1663 10.9307 10.1663H3.06943ZM0.885011 10.164C1.29031 9.27039 2.19533 8.83301 3.06943 8.83301H10.9307C11.8048 8.83301 12.7098 9.27039 13.1151 10.164C13.3479 10.6773 13.5977 11.3674 13.6594 12.0864C13.7156 12.7413 13.4435 13.4249 12.83 13.8061C11.9276 14.3666 10.0931 15.1663 7.00006 15.1663C3.90699 15.1663 2.07253 14.3666 1.17017 13.8061C0.55666 13.4249 0.2845 12.7413 0.340703 12.0864C0.402421 11.3673 0.65222 10.6773 0.885011 10.164Z" fill="#FF3F3A"/>
</svg>
