<?xml version="1.0" standalone="no"?>
<svg xmlns="http://www.w3.org/2000/svg" xmlns:xlink="http://www.w3.org/1999/xlink">

<svg id="facebook">
<path d="M11.5628 0.00457747L8.78558 0C5.66542 0 3.64903 2.12509 3.64903 5.41423V7.91055H0.85662C0.615322 7.91055 0.419922 8.1115 0.419922 8.35937V11.9763C0.419922 12.2241 0.615545 12.4249 0.85662 12.4249H3.64903V21.5514C3.64903 21.7993 3.84443 22 4.08573 22H7.72904C7.97033 22 8.16573 21.799 8.16573 21.5514V12.4249H11.4307C11.672 12.4249 11.8674 12.2241 11.8674 11.9763L11.8688 8.35937C11.8688 8.24036 11.8226 8.12638 11.7409 8.04215C11.6591 7.95793 11.5477 7.91055 11.4318 7.91055H8.16573V5.79439C8.16573 4.77728 8.40168 4.26094 9.6915 4.26094L11.5624 4.26025C11.8035 4.26025 11.9989 4.0593 11.9989 3.81166V0.453169C11.9989 0.205757 11.8037 0.00503522 11.5628 0.00457747Z"/>
</svg>

<svg id="be">
<path d="M12.3652 11.1437C12.3652 9.17243 11.486 7.71534 9.66971 7.1692C10.9949 6.49612 11.6861 5.47637 11.6861 3.8902C11.6861 0.762681 9.49368 0 6.96423 0H0V15.7027H7.15926C9.84374 15.7027 12.3652 14.3341 12.3652 11.1437ZM3.24657 2.68058H6.29311C7.46432 2.68058 8.51851 3.03045 8.51851 4.47475C8.51851 5.8081 7.69836 6.34465 6.53816 6.34465H3.24657V2.68058ZM3.24557 13.036V8.71162H6.7842C8.21345 8.71162 9.11761 9.34523 9.11761 10.9538C9.11761 12.54 8.03842 13.036 6.71719 13.036H3.24557Z"/>
<path d="M18.7993 16C21.3537 16 23.008 14.7765 23.8041 12.1759H21.2117C20.9326 13.1466 19.7824 13.6597 18.8903 13.6597C17.169 13.6597 16.2648 12.5877 16.2648 10.7658H23.9792C24.2232 7.11983 22.3189 4.01257 18.7983 4.01257C15.5387 4.01257 13.3263 6.61742 13.3263 10.0297C13.3263 13.5711 15.4227 16 18.7993 16ZM18.7073 6.37208C20.1825 6.37208 20.9246 7.29369 21.0487 8.80092H16.2688C16.3658 7.3065 17.299 6.37208 18.7073 6.37208Z"/>
<path d="M15.6701 0.825073H21.6591V2.37177H15.6701V0.825073Z"/>
</svg>

<svg id="twitter">
<path d="M21.5 2.77233C20.7271 3.10027 19.8978 3.32267 19.0264 3.42196C19.9161 2.91181 20.5972 2.10263 20.92 1.1414C20.0854 1.61383 19.1642 1.95688 18.1826 2.14285C17.3966 1.33994 16.2785 0.839844 15.0384 0.839844C12.6593 0.839844 10.7303 2.68691 10.7303 4.9637C10.7303 5.2866 10.7683 5.60199 10.8418 5.90357C7.26201 5.73141 4.08768 4.08917 1.96314 1.59372C1.59176 2.20189 1.38049 2.91053 1.38049 3.66697C1.38049 5.09814 2.14161 6.36093 3.2964 7.09973C2.5904 7.07713 1.92639 6.89116 1.34508 6.58205V6.63357C1.34508 8.63141 2.83056 10.2988 4.80024 10.6783C4.43936 10.7713 4.05882 10.8228 3.66514 10.8228C3.38696 10.8228 3.11794 10.7964 2.85417 10.7461C3.40267 12.3859 4.99315 13.5783 6.87756 13.611C5.40388 14.7167 3.54573 15.3739 1.52749 15.3739C1.17976 15.3739 0.837236 15.3537 0.5 15.3173C2.40671 16.4896 4.67036 17.1732 7.10327 17.1732C15.028 17.1732 19.3597 10.8881 19.3597 5.43741L19.3453 4.90341C20.1917 4.32537 20.9239 3.59912 21.5 2.77233Z"/>
</svg>

<svg id="in">
<path d="M19.995 20L20 19.9992V12.6642C20 9.07583 19.2275 6.31167 15.0325 6.31167C13.0158 6.31167 11.6625 7.41833 11.11 8.4675H11.0517V6.64667H7.07416V19.9992H11.2158V13.3875C11.2158 11.6467 11.5458 9.96334 13.7017 9.96334C15.8258 9.96334 15.8575 11.95 15.8575 13.4992V20H19.995Z"/>
<path d="M0.329995 6.6475H4.47666V20H0.329995V6.6475Z"/>
<path d="M2.40167 0C1.07583 0 0 1.07583 0 2.40167C0 3.7275 1.07583 4.82583 2.40167 4.82583C3.7275 4.82583 4.80333 3.7275 4.80333 2.40167C4.8025 1.07583 3.72667 0 2.40167 0Z"/>
</svg>

<svg id="check">
<path d="M8.00008 15.3337C12.0435 15.3337 15.3334 12.044 15.3334 8.00033C15.3334 7.30238 15.236 6.61458 15.0431 5.95588C14.948 5.63197 14.6098 5.44592 14.285 5.54096C13.9608 5.6357 13.7753 5.97512 13.8701 6.29903C14.0299 6.84629 14.1112 7.4189 14.1112 8.00033C14.1112 11.3699 11.3697 14.1114 8.00008 14.1114C4.63047 14.1114 1.88897 11.3699 1.88897 8.00033C1.88897 4.63071 4.63047 1.88921 8.00008 1.88921C9.22469 1.88921 10.4029 2.24729 11.4073 2.92449C11.6869 3.11323 12.067 3.03908 12.2555 2.75948C12.4441 2.47959 12.3705 2.09973 12.0906 1.91115C10.8836 1.09728 9.46922 0.666992 8.00008 0.666992C3.95669 0.666992 0.666748 3.95664 0.666748 8.00033C0.666748 12.044 3.95669 15.3337 8.00008 15.3337Z"/>
<path d="M14.8619 1.52885L7.99996 8.3905L5.80465 6.19552C5.54423 5.93526 5.12235 5.93526 4.86194 6.19552C4.60168 6.45593 4.60168 6.87781 4.86194 7.13822L7.5286 9.80489C7.65898 9.93526 7.82922 10.0002 7.99996 10.0002C8.17069 10.0002 8.34094 9.93526 8.47131 9.80489L15.8046 2.47156C16.0649 2.21114 16.0649 1.78927 15.8046 1.52885C15.5442 1.2686 15.1224 1.2686 14.8619 1.52885Z"/>
</svg>

<svg id="star">
<path d="M6.77956 1.46807C7.24272 0.399968 8.75744 0.399967 9.2206 1.46807L10.6217 4.69907L14.1275 5.03314C15.2864 5.14357 15.7545 6.58415 14.8818 7.3547L12.2419 9.68564L13.0076 13.1231C13.2607 14.2595 12.0352 15.1498 11.0327 14.5579L8.00008 12.7675L4.96745 14.5579C3.96493 15.1498 2.7395 14.2595 2.99261 13.1231L3.75825 9.68564L1.11834 7.35471C0.245643 6.58415 0.713714 5.14357 1.87266 5.03314L5.37849 4.69907L6.77956 1.46807ZM9.40116 5.22833L8.00008 1.99733L6.59901 5.22833C6.40624 5.67287 5.98703 5.97744 5.50468 6.0234L1.99886 6.35747L4.63877 8.68841C5.00198 9.00911 5.1621 9.50192 5.05676 9.97487L4.29112 13.4123L7.32375 11.6219C7.74099 11.3756 8.25917 11.3756 8.67641 11.6219L11.709 13.4123L10.9434 9.97486C10.8381 9.50192 10.9982 9.00911 11.3614 8.68841L14.0013 6.35747L10.4955 6.0234C10.0131 5.97744 9.59392 5.67286 9.40116 5.22833Z"/>
</svg>

<svg id="play">
<path d="M10.7119 6.941C11.4102 7.47466 11.4102 8.52605 10.7119 9.0597L7.65865 11.3933C6.78126 12.0639 5.51566 11.4383 5.51566 10.334V5.66673C5.51566 4.56241 6.78125 3.93678 7.65865 4.60738L10.7119 6.941ZM9.90228 8.00035L6.84899 5.66673L6.84899 10.334L9.90228 8.00035Z"/>
<path d="M8.00008 2.00033C4.68637 2.00033 2.00008 4.68662 2.00008 8.00033C2.00008 11.314 4.68637 14.0003 8.00008 14.0003C11.3138 14.0003 14.0001 11.314 14.0001 8.00033C14.0001 4.68662 11.3138 2.00033 8.00008 2.00033ZM0.666748 8.00033C0.666748 3.95024 3.94999 0.666992 8.00008 0.666992C12.0502 0.666992 15.3334 3.95024 15.3334 8.00033C15.3334 12.0504 12.0502 15.3337 8.00008 15.3337C3.94999 15.3337 0.666748 12.0504 0.666748 8.00033Z"/>
</svg>

<svg id="profile">
<path d="M7.00006 2.16634C5.71139 2.16634 4.66673 3.21101 4.66673 4.49967C4.66673 5.78834 5.71139 6.83301 7.00006 6.83301C8.28872 6.83301 9.33339 5.78834 9.33339 4.49967C9.33339 3.21101 8.28872 2.16634 7.00006 2.16634ZM3.33339 4.49967C3.33339 2.47463 4.97501 0.833008 7.00006 0.833008C9.0251 0.833008 10.6667 2.47463 10.6667 4.49967C10.6667 6.52472 9.0251 8.16634 7.00006 8.16634C4.97501 8.16634 3.33339 6.52472 3.33339 4.49967Z"/>
<path d="M3.06943 10.1663C2.60722 10.1663 2.24595 10.3914 2.0993 10.7148C1.89632 11.1623 1.71252 11.6951 1.66915 12.2005C1.64976 12.4264 1.74395 12.5928 1.87374 12.6735C2.55985 13.0997 4.14965 13.833 7.00006 13.833C9.85046 13.833 11.4403 13.0997 12.1264 12.6735C12.2562 12.5928 12.3504 12.4264 12.331 12.2005C12.2876 11.6951 12.1038 11.1623 11.9008 10.7148C11.7542 10.3914 11.3929 10.1663 10.9307 10.1663H3.06943ZM0.885011 10.164C1.29031 9.27039 2.19533 8.83301 3.06943 8.83301H10.9307C11.8048 8.83301 12.7098 9.27039 13.1151 10.164C13.3479 10.6773 13.5977 11.3673 13.6594 12.0864C13.7156 12.7413 13.4435 13.4249 12.83 13.8061C11.9276 14.3666 10.0931 15.1663 7.00006 15.1663C3.90699 15.1663 2.07253 14.3666 1.17017 13.8061C0.55666 13.4249 0.2845 12.7413 0.340703 12.0864C0.402421 11.3673 0.65222 10.6773 0.885011 10.164Z"/>
</svg>

<svg id="arrow">
<path d="M6.20711 11.2071C5.81658 11.5976 5.18342 11.5976 4.79289 11.2071L0.292892 6.70711C-0.0976315 6.31658 -0.0976315 5.68342 0.292892 5.29289L4.79289 0.792893C5.18342 0.402369 5.81658 0.402369 6.20711 0.792893C6.59763 1.18342 6.59763 1.81658 6.20711 2.20711L3.41421 5L17 5C17.5523 5 18 5.44772 18 6C18 6.55228 17.5523 7 17 7L3.41421 7L6.20711 9.79289C6.59763 10.1834 6.59763 10.8166 6.20711 11.2071Z"/>
</svg>


</svg>