<svg width="16" height="15" viewBox="0 0 16 15" fill="none" xmlns="http://www.w3.org/2000/svg">
<path fill-rule="evenodd" clip-rule="evenodd" d="M6.77956 1.46807C7.24272 0.399968 8.75744 0.399967 9.2206 1.46807L10.6217 4.69907L14.1275 5.03314C15.2864 5.14357 15.7545 6.58415 14.8818 7.35471L12.2419 9.68564L13.0076 13.1231C13.2607 14.2595 12.0352 15.1498 11.0327 14.5579L8.00008 12.7675L4.96745 14.5579C3.96493 15.1498 2.7395 14.2595 2.99261 13.1231L3.75825 9.68564L1.11834 7.35471C0.245643 6.58415 0.713714 5.14357 1.87266 5.03314L5.37849 4.69907L6.77956 1.46807ZM9.40116 5.22833L8.00008 1.99733L6.59901 5.22833C6.40624 5.67287 5.98703 5.97744 5.50468 6.0234L1.99886 6.35747L4.63877 8.68841C5.00198 9.00911 5.1621 9.50192 5.05676 9.97487L4.29112 13.4123L7.32375 11.6219C7.74099 11.3756 8.25917 11.3756 8.67641 11.6219L11.709 13.4123L10.9434 9.97487C10.8381 9.50192 10.9982 9.00911 11.3614 8.68841L14.0013 6.35747L10.4955 6.0234C10.0131 5.97744 9.59392 5.67286 9.40116 5.22833Z" fill="#FF3F3A"/>
</svg>
