<svg width="22" height="20" viewBox="0 0 22 20" fill="none" xmlns="http://www.w3.org/2000/svg">
<path fill-rule="evenodd" clip-rule="evenodd" d="M20.923 8.56738C20.7806 9.55411 20.443 10.4919 19.9428 11.3544C19.9803 11.5679 19.9995 11.7837 19.9995 12.0005C19.9995 12.7533 19.7814 13.4738 19.3774 14.1284C19.1757 14.4551 19.1238 14.838 19.1038 15.0909C19.0809 15.3808 19.0886 15.6981 19.1093 16.0028C19.1325 16.3447 19.1746 16.7036 19.2227 17.0422C18.8324 16.9284 18.4093 16.8141 18.0056 16.723C17.6698 16.6472 17.3262 16.5826 17.0149 16.5505C16.7434 16.5224 16.3511 16.5007 16.0003 16.6142C15.2332 16.8621 14.3891 17.0005 13.4995 17.0005C12.4416 17.0005 11.47 16.8127 10.6184 16.4865C10.4135 16.4957 10.2072 16.5005 9.99951 16.5005C8.7949 16.5005 7.63552 16.342 6.55078 16.0493C8.12774 17.8731 10.7274 19.0005 13.4995 19.0005C14.5825 19.0005 15.6219 18.8342 16.5797 18.5287C16.5814 18.5287 16.5845 18.5287 16.589 18.5286C16.6136 18.5281 16.6819 18.5267 16.8094 18.5399C17.01 18.5606 17.268 18.6068 17.5655 18.674C18.1578 18.8076 18.8235 19.0048 19.3423 19.1694C20.4424 19.5187 21.5084 18.5586 21.3118 17.4422C21.2271 16.9617 21.1392 16.3753 21.1047 15.8673C21.0874 15.6118 21.0855 15.4022 21.0976 15.2483C21.1026 15.1845 21.1091 15.1446 21.1132 15.1233C21.6758 14.1913 21.9995 13.1302 21.9995 12.0005C21.9995 10.7269 21.604 9.56394 20.923 8.56738Z" fill="#FF3F3A"/>
<path fill-rule="evenodd" clip-rule="evenodd" d="M4.59664 3.69816C3.24868 4.72895 2.49959 6.08209 2.49959 7.5C2.49959 8.20704 2.68366 8.888 3.02898 9.52123C3.1605 9.76241 3.19782 10.0112 3.21116 10.1796C3.22571 10.3633 3.21845 10.552 3.20248 10.7285C3.17051 11.0819 3.09423 11.4823 3.00274 11.8766C2.89572 12.3379 2.75859 12.8299 2.61943 13.2918C3.14769 13.0998 3.72505 12.903 4.2724 12.7434C4.71477 12.6143 5.16151 12.5023 5.55911 12.4394C5.90162 12.3853 6.39864 12.3321 6.82655 12.4801C7.78688 12.8123 8.86117 13 9.99959 13C12.1468 13 14.0537 12.3333 15.4026 11.3018C16.7505 10.271 17.4996 8.91791 17.4996 7.5C17.4996 6.08209 16.7505 4.72895 15.4026 3.69816C14.0537 2.66667 12.1468 2 9.99959 2C7.85242 2 5.94552 2.66667 4.59664 3.69816ZM3.38174 2.10945C5.10925 0.788407 7.45234 0 9.99959 0C12.5468 0 14.8899 0.788407 16.6175 2.10945C18.3459 3.43119 19.4996 5.32806 19.4996 7.5C19.4996 9.67194 18.3459 11.5688 16.6175 12.8906C14.8899 14.2116 12.5468 15 9.99959 15C8.65654 15 7.37366 14.7811 6.20886 14.3826C6.2077 14.3859 6.11322 14.3767 5.87147 14.4149C5.59282 14.459 5.23713 14.5453 4.83253 14.6633C4.02707 14.8983 3.12252 15.2308 2.43353 15.4989C1.2399 15.9634 0.023949 14.8171 0.426109 13.5959C0.63926 12.9487 0.890646 12.1308 1.05449 11.4246C1.13702 11.0689 1.19058 10.7698 1.21062 10.5483C1.21758 10.4714 1.21938 10.4154 1.21897 10.3775C0.758692 9.49791 0.499594 8.52524 0.499594 7.5C0.499594 5.32806 1.6533 3.43119 3.38174 2.10945Z" fill="#FF3F3A"/>
</svg>
