<svg width="14" height="24" viewBox="0 0 14 24" fill="none" xmlns="http://www.w3.org/2000/svg">
<path fill-rule="evenodd" clip-rule="evenodd" d="M3.5 2.92188C2.67157 2.92188 2 3.59345 2 4.42188V19.5781C2 20.4066 2.67157 21.0781 3.5 21.0781H10.5C11.3284 21.0781 12 20.4066 12 19.5781V4.42188C12 3.59345 11.3284 2.92188 10.5 2.92188H10.4166L10.1731 3.50633C10.0178 3.87894 9.65368 4.12165 9.25 4.12165H4.75C4.34632 4.12165 3.98223 3.87894 3.82695 3.50633L3.58338 2.92188H3.5ZM0 4.42188C0 2.48888 1.567 0.921875 3.5 0.921875H10.5C12.433 0.921875 14 2.48888 14 4.42188V19.5781C14 21.5111 12.433 23.0781 10.5 23.0781H3.5C1.567 23.0781 0 21.5111 0 19.5781V4.42188Z" fill="#FF3F3A"/>
</svg>
