<svg width="18" height="22" viewBox="0 0 18 22" fill="none" xmlns="http://www.w3.org/2000/svg">
<path fill-rule="evenodd" clip-rule="evenodd" d="M9 6.75C7.89543 6.75 7 7.64543 7 8.75C7 9.85457 7.89543 10.75 9 10.75C10.1046 10.75 11 9.85457 11 8.75C11 7.64543 10.1046 6.75 9 6.75ZM5 8.75C5 6.54086 6.79086 4.75 9 4.75C11.2091 4.75 13 6.54086 13 8.75C13 10.9591 11.2091 12.75 9 12.75C6.79086 12.75 5 10.9591 5 8.75Z" fill="#FF3F3A"/>
<path fill-rule="evenodd" clip-rule="evenodd" d="M9 2.25C5.38046 2.25 2.5 5.08606 2.5 8.51923C2.5 11.318 4.18201 14.1448 6.02064 16.3682C6.92325 17.4597 7.82842 18.3639 8.50846 18.9951C8.69038 19.164 8.85571 19.3129 9 19.4402C9.14429 19.3129 9.30962 19.164 9.49154 18.9951C10.1716 18.3639 11.0768 17.4597 11.9794 16.3682C13.818 14.1448 15.5 11.318 15.5 8.51923C15.5 5.08606 12.6195 2.25 9 2.25ZM9 20.75C8.38117 21.5355 8.38094 21.5353 8.38069 21.5351L8.3782 21.5332L8.37251 21.5287L8.35313 21.5132C8.33672 21.5 8.31339 21.4812 8.2836 21.4569C8.22403 21.4083 8.13859 21.3377 8.03097 21.2465C7.81582 21.064 7.51153 20.7986 7.14779 20.4609C6.42158 19.7868 5.45175 18.8187 4.47936 17.6428C2.56799 15.3314 0.5 12.0428 0.5 8.51923C0.5 3.92303 4.33527 0.25 9 0.25C13.6647 0.25 17.5 3.92303 17.5 8.51923C17.5 12.0428 15.432 15.3314 13.5206 17.6428C12.5482 18.8187 11.5784 19.7868 10.8522 20.4609C10.4885 20.7986 10.1842 21.064 9.96903 21.2465C9.86141 21.3377 9.77597 21.4083 9.7164 21.4569C9.68661 21.4812 9.66328 21.5 9.64687 21.5132L9.62749 21.5287L9.6218 21.5332L9.61997 21.5346C9.61971 21.5348 9.61883 21.5355 9 20.75ZM9 20.75L9.61883 21.5355C9.25583 21.8215 8.74368 21.8211 8.38069 21.5351L9 20.75Z" fill="#FF3F3A"/>
</svg>
