<svg width="22" height="18" viewBox="0 0 22 18" fill="none" xmlns="http://www.w3.org/2000/svg">
<path d="M21.5 2.77233C20.7271 3.10027 19.8978 3.32267 19.0264 3.42196C19.9161 2.91181 20.5972 2.10263 20.92 1.1414C20.0854 1.61383 19.1642 1.95688 18.1826 2.14285C17.3966 1.33994 16.2785 0.839844 15.0384 0.839844C12.6593 0.839844 10.7303 2.68691 10.7303 4.9637C10.7303 5.2866 10.7683 5.60199 10.8418 5.90357C7.26201 5.73141 4.08768 4.08917 1.96314 1.59372C1.59176 2.20189 1.38049 2.91053 1.38049 3.66697C1.38049 5.09814 2.14161 6.36093 3.2964 7.09973C2.5904 7.07713 1.92639 6.89116 1.34508 6.58205V6.63357C1.34508 8.63141 2.83056 10.2988 4.80024 10.6783C4.43936 10.7713 4.05882 10.8228 3.66514 10.8228C3.38696 10.8228 3.11794 10.7964 2.85417 10.7461C3.40267 12.3859 4.99315 13.5783 6.87756 13.611C5.40388 14.7167 3.54573 15.3739 1.52749 15.3739C1.17976 15.3739 0.837236 15.3537 0.5 15.3173C2.40671 16.4896 4.67036 17.1732 7.10327 17.1732C15.028 17.1732 19.3597 10.8881 19.3597 5.43741L19.3453 4.90341C20.1917 4.32537 20.9239 3.59912 21.5 2.77233Z" fill="#787A80"/>
</svg>
