<svg width="16" height="16" viewBox="0 0 16 16" fill="none" xmlns="http://www.w3.org/2000/svg">
<path fill-rule="evenodd" clip-rule="evenodd" d="M4.99967 0.833008C5.36786 0.833008 5.66634 1.13148 5.66634 1.49967V1.83302L10.333 1.83303V1.49967C10.333 1.13148 10.6315 0.833008 10.9997 0.833008C11.3679 0.833008 11.6663 1.13148 11.6663 1.49967V1.83303L12.4997 1.83303C13.9724 1.83303 15.1663 3.02694 15.1663 4.4997V12.4997C15.1663 13.9724 13.9724 15.1663 12.4997 15.1663L3.49967 15.1663C2.02691 15.1663 0.833008 13.9724 0.833008 12.4997L0.833008 5.9998L0.833008 4.49968C0.833008 3.02692 2.02692 1.83301 3.49968 1.83301L4.33301 1.83301V1.49967C4.33301 1.13148 4.63148 0.833008 4.99967 0.833008ZM4.33301 3.16635L3.49968 3.16634C2.7633 3.16634 2.16634 3.7633 2.16634 4.49968V5.33301H13.833V4.4997C13.833 3.76332 13.2361 3.16636 12.4997 3.16636L11.6663 3.16636V3.49967C11.6663 3.86786 11.3679 4.16634 10.9997 4.16634C10.6315 4.16634 10.333 3.86786 10.333 3.49967V3.16636L5.66634 3.16635V3.49967C5.66634 3.86786 5.36786 4.16634 4.99967 4.16634C4.63148 4.16634 4.33301 3.86786 4.33301 3.49967V3.16635ZM13.833 6.66634H2.16634L2.16634 12.4997C2.16634 13.2361 2.76329 13.833 3.49967 13.833L12.4997 13.833C13.2361 13.833 13.833 13.2361 13.833 12.4997V6.66634Z" fill="#787A80"/>
</svg>
