<svg width="16" height="16" viewBox="0 0 16 16" fill="none" xmlns="http://www.w3.org/2000/svg">
<path d="M8.00033 15.3337C12.0437 15.3337 15.3337 12.044 15.3337 8.00033C15.3337 7.30238 15.2362 6.61458 15.0433 5.95588C14.9483 5.63197 14.6101 5.44592 14.2853 5.54096C13.961 5.6357 13.7756 5.97512 13.8703 6.29903C14.0301 6.84629 14.1114 7.4189 14.1114 8.00033C14.1114 11.3699 11.3699 14.1114 8.00033 14.1114C4.63071 14.1114 1.88921 11.3699 1.88921 8.00033C1.88921 4.63071 4.63071 1.88921 8.00033 1.88921C9.22493 1.88921 10.4031 2.24729 11.4075 2.92449C11.6871 3.11323 12.0673 3.03908 12.2557 2.75948C12.4443 2.47959 12.3708 2.09973 12.0909 1.91115C10.8839 1.09728 9.46947 0.666992 8.00033 0.666992C3.95694 0.666992 0.666992 3.95664 0.666992 8.00033C0.666992 12.044 3.95694 15.3337 8.00033 15.3337Z" fill="#FF3F3A"/>
<path d="M14.8622 1.52885L8.0002 8.3905L5.80489 6.19552C5.54447 5.93526 5.1226 5.93526 4.86218 6.19552C4.60193 6.45593 4.60193 6.87781 4.86218 7.13822L7.52885 9.80489C7.65922 9.93526 7.82947 10.0002 8.0002 10.0002C8.17094 10.0002 8.34119 9.93526 8.47156 9.80489L15.8049 2.47156C16.0651 2.21114 16.0651 1.78927 15.8049 1.52885C15.5445 1.2686 15.1226 1.2686 14.8622 1.52885Z" fill="#FF3F3A"/>
</svg>
