<svg width="12" height="16" viewBox="0 0 12 16" fill="none" xmlns="http://www.w3.org/2000/svg">
<path fill-rule="evenodd" clip-rule="evenodd" d="M3.33301 8.99967C3.33301 8.63148 3.63148 8.33301 3.99967 8.33301H7.99967C8.36786 8.33301 8.66634 8.63148 8.66634 8.99967C8.66634 9.36786 8.36786 9.66634 7.99967 9.66634H3.99967C3.63148 9.66634 3.33301 9.36786 3.33301 8.99967Z" fill="#424551"/>
<path fill-rule="evenodd" clip-rule="evenodd" d="M3.33301 11.4997C3.33301 11.1315 3.63148 10.833 3.99967 10.833H5.99967C6.36786 10.833 6.66634 11.1315 6.66634 11.4997C6.66634 11.8679 6.36786 12.1663 5.99967 12.1663H3.99967C3.63148 12.1663 3.33301 11.8679 3.33301 11.4997Z" fill="#424551"/>
<path fill-rule="evenodd" clip-rule="evenodd" d="M4.02829 1.02827C4.15331 0.903246 4.32288 0.833008 4.49969 0.833008H8.99969C10.4725 0.833008 11.6664 2.02692 11.6664 3.49967L11.6664 12.4997C11.6664 13.9724 10.4725 15.1663 8.99969 15.1663H2.99967C1.52691 15.1663 0.333004 13.9724 0.333008 12.4997L0.333024 4.99967C0.333025 4.82286 0.403263 4.65329 0.528286 4.52827L4.02829 1.02827ZM4.333 2.60917V4.83301H2.10917L4.333 2.60917ZM1.66636 6.16634L1.66634 12.4997C1.66634 13.2361 2.26329 13.833 2.99967 13.833H8.99969C9.73607 13.833 10.333 13.2361 10.333 12.4997L10.333 3.49967C10.333 2.76329 9.73607 2.16634 8.99969 2.16634H5.66634V5.49967C5.66634 5.86786 5.36786 6.16634 4.99967 6.16634H1.66636Z" fill="#424551"/>
</svg>
