<svg width="18" height="18" viewBox="0 0 18 18" fill="none" xmlns="http://www.w3.org/2000/svg">
<path d="M17.3295 17.3337L17.3337 17.333V11.2205C17.3337 8.23019 16.6899 5.92671 13.1941 5.92671C11.5135 5.92671 10.3857 6.84894 9.92532 7.72324H9.87671V6.20588H6.56212V17.333H10.0135V11.8232C10.0135 10.3726 10.2885 8.96977 12.085 8.96977C13.8552 8.96977 13.8816 10.6253 13.8816 11.9163V17.3337H17.3295Z" fill="#787A80"/>
<path d="M0.941988 6.20657H4.39754V17.3337H0.941988V6.20657Z" fill="#787A80"/>
<path d="M2.66838 0.666992C1.56352 0.666992 0.666992 1.56352 0.666992 2.66838C0.666992 3.77324 1.56352 4.68852 2.66838 4.68852C3.77324 4.68852 4.66977 3.77324 4.66977 2.66838C4.66908 1.56352 3.77255 0.666992 2.66838 0.666992Z" fill="#787A80"/>
</svg>
