<svg width="18" height="14" viewBox="0 0 18 14" fill="none" xmlns="http://www.w3.org/2000/svg">
<path d="M17.75 1.8106C17.1059 2.08388 16.4148 2.26922 15.6887 2.35196C16.4301 1.92683 16.9976 1.25252 17.2666 0.451489C16.5711 0.845186 15.8035 1.13106 14.9855 1.28603C14.3305 0.616946 13.3988 0.200195 12.3653 0.200195C10.3827 0.200195 8.77523 1.73942 8.77523 3.63674C8.77523 3.90583 8.80694 4.16865 8.86819 4.41997C5.88501 4.2765 3.23973 2.90797 1.46928 0.828429C1.1598 1.33523 0.983743 1.92576 0.983743 2.55613C0.983743 3.74878 1.618 4.8011 2.58033 5.41677C1.992 5.39793 1.43866 5.24296 0.954233 4.98537V5.0283C0.954233 6.69317 2.19213 8.08265 3.83353 8.39889C3.5328 8.47637 3.21568 8.5193 2.88761 8.5193C2.6558 8.5193 2.43161 8.49732 2.2118 8.45543C2.66889 9.82188 3.99429 10.8156 5.56463 10.8428C4.33657 11.7642 2.7881 12.3119 1.10624 12.3119C0.816463 12.3119 0.53103 12.2951 0.25 12.2647C1.83893 13.2417 3.7253 13.8113 5.75273 13.8113C12.3566 13.8113 15.9665 8.57376 15.9665 4.0315L15.9544 3.5865C16.6597 3.1048 17.2699 2.49959 17.75 1.8106Z" fill="#787A80"/>
</svg>
