<svg width="16" height="16" viewBox="0 0 16 16" fill="none" xmlns="http://www.w3.org/2000/svg">
<g clip-path="url(#clip0_51559_158)">
<path fill-rule="evenodd" clip-rule="evenodd" d="M7.24967 2.16634C4.44223 2.16634 2.16634 4.44223 2.16634 7.24967C2.16634 10.0571 4.44223 12.333 7.24967 12.333C8.65227 12.333 9.92112 11.7658 10.8415 10.8467C11.7637 9.92589 12.333 8.6549 12.333 7.24967C12.333 4.44223 10.0571 2.16634 7.24967 2.16634ZM0.833008 7.24967C0.833008 3.70585 3.70585 0.833008 7.24967 0.833008C10.7935 0.833008 13.6663 3.70585 13.6663 7.24967C13.6663 8.78248 13.1282 10.1905 12.2317 11.2939L14.9706 14.0278C15.2312 14.2879 15.2316 14.7101 14.9715 14.9706C14.7114 15.2312 14.2893 15.2316 14.0287 14.9715L11.2883 12.2362C10.1858 13.13 8.7799 13.6663 7.24967 13.6663C3.70585 13.6663 0.833008 10.7935 0.833008 7.24967Z" fill="#9A9CA5"/>
</g>
<defs>
<clipPath id="clip0_51559_158">
<rect width="16" height="16" fill="white"/>
</clipPath>
</defs>
</svg>
