<svg width="48" height="48" viewBox="0 0 48 48" fill="none" xmlns="http://www.w3.org/2000/svg">
<g clip-path="url(#clip0_51138_314)">
<path d="M33.2982 37.0005C32.9796 36.6697 32.3918 36.5748 31.9597 36.9883C31.9567 36.9912 31.9536 36.9942 31.9505 36.9972C31.5241 37.4165 31.6012 38.007 31.9221 38.3354C32.0925 38.51 32.3384 38.6175 32.596 38.6175C32.8233 38.6175 33.0595 38.5338 33.2607 38.3385C33.69 37.9222 33.617 37.3311 33.2982 37.0005Z" fill="#FF3F3A"/>
<path d="M41.7867 18.9529C41.6067 18.4673 41.0676 18.2197 40.5821 18.3994C40.0966 18.5792 39.8488 19.1184 40.0286 19.6039C40.8379 21.7887 41.2481 24.0889 41.2481 26.4408C41.2481 37.295 32.4176 46.1255 21.5635 46.1255C17.5358 46.1255 13.664 44.9178 10.3664 42.633C9.94105 42.3381 9.35689 42.444 9.06205 42.8696C8.76711 43.2951 8.87305 43.8791 9.29868 44.1739C12.9114 46.6771 17.1525 48.0002 21.5636 48.0002C27.3224 48.0002 32.7363 45.7576 36.8084 41.6855C40.8805 37.6135 43.123 32.1994 43.123 26.4408C43.1229 23.866 42.6732 21.3467 41.7867 18.9529Z" fill="#FF3F3A"/>
<path d="M28.8232 6.13401C26.4975 5.30245 24.055 4.88086 21.5634 4.88086C15.8046 4.88086 10.3906 7.12345 6.31852 11.1954C2.2465 15.2676 0.00390625 20.6816 0.00390625 26.4403C0.00390625 30.9061 1.35728 35.1906 3.91796 38.8308C4.1004 39.0903 4.39055 39.2289 4.68549 39.2289C4.87177 39.2289 5.05993 39.1735 5.2239 39.0581C5.64736 38.7602 5.74918 38.1755 5.45133 37.7521C3.11406 34.4294 1.87862 30.5179 1.87862 26.4402C1.87862 15.5861 10.7092 6.75557 21.5633 6.75557C23.8393 6.75557 26.0694 7.14032 28.1919 7.89923C28.6793 8.0736 29.2159 7.81973 29.3901 7.33223C29.5644 6.84482 29.3106 6.30839 28.8232 6.13401Z" fill="#FF3F3A"/>
<path d="M47.9251 7.77379C47.78 7.42344 47.4383 7.19516 47.059 7.19516H42.1337L42.6634 6.66548C43.0294 6.29948 43.0294 5.70585 42.6634 5.33976C42.2973 4.97376 41.7039 4.97376 41.3377 5.33976L40.8012 5.8762V0.937456C40.8012 0.558426 40.5728 0.21652 40.2226 0.0713954C39.8723 -0.0737293 39.4691 0.0065205 39.2011 0.274551L30.9376 8.53804C30.7619 8.71382 30.663 8.95222 30.663 9.20085V12.4526C27.9592 10.6839 24.8421 9.75538 21.5626 9.75538C12.3624 9.75538 4.87744 17.2404 4.87744 26.4405C4.87744 35.6406 12.3624 43.1256 21.5626 43.1256C24.6162 43.1256 27.6036 42.2928 30.2019 40.7175C30.6446 40.4491 30.7858 39.8726 30.5175 39.4299C30.2491 38.9873 29.6727 38.8459 29.23 39.1144C26.9248 40.5121 24.2734 41.2508 21.5626 41.2508C13.3961 41.2508 6.75216 34.607 6.75216 26.4404C6.75216 18.2739 13.3961 11.63 21.5626 11.63C24.8972 11.63 28.0424 12.7108 30.663 14.7556V16.0142L28.9548 17.7224C26.9599 16.0283 24.3788 15.0044 21.5626 15.0044C15.2568 15.0044 10.1267 20.1345 10.1267 26.4403C10.1267 32.7461 15.2568 37.8762 21.5626 37.8762C27.8684 37.8762 32.9984 32.7461 32.9984 26.4403C32.9984 23.6242 31.9747 21.043 30.2805 19.048L31.9954 17.3331H33.2425C35.2633 19.9229 36.3729 23.1446 36.3729 26.4403C36.3729 29.2038 35.607 31.8992 34.1582 34.235C33.8853 34.6748 34.0208 35.2527 34.4609 35.5256C34.6147 35.621 34.7853 35.6665 34.954 35.6665C35.2677 35.6665 35.574 35.5091 35.7515 35.2232C37.3846 32.5904 38.2477 29.5534 38.2477 26.4403C38.2477 23.2025 37.2966 20.0278 35.5431 17.3331H38.7954C39.044 17.3331 39.2823 17.2343 39.4582 17.0585L47.7217 8.795C47.99 8.52725 48.0701 8.12404 47.9251 7.77379ZM31.1239 26.4405C31.1239 31.7125 26.8348 36.0017 21.5628 36.0017C16.2907 36.0017 12.0016 31.7125 12.0016 26.4405C12.0016 21.1685 16.2907 16.8793 21.5628 16.8793C23.862 16.8793 25.974 17.6952 27.6251 19.0525L25.4902 21.1874C24.3946 20.3661 23.0345 19.879 21.5628 19.879C17.9448 19.879 15.0013 22.8225 15.0013 26.4405C15.0013 30.0586 17.9449 33.0021 21.5628 33.0021C25.1809 33.0021 28.1244 30.0585 28.1244 26.4405C28.1244 24.9688 27.6373 23.6088 26.8159 22.513L28.9508 20.3782C30.308 22.0293 31.1239 24.1413 31.1239 26.4405ZM20.8999 27.1034C21.083 27.2865 21.3228 27.378 21.5628 27.378C21.8027 27.378 22.0425 27.2865 22.2256 27.1034L25.4711 23.8579C25.9624 24.599 26.2496 25.4867 26.2496 26.4405C26.2496 29.0248 24.1471 31.1273 21.5628 31.1273C18.9784 31.1273 16.8759 29.0248 16.8759 26.4405C16.8759 23.8562 18.9784 21.7537 21.5628 21.7537C22.5167 21.7537 23.4043 22.0408 24.1455 22.5322L20.8999 25.7777C20.5339 26.1437 20.5339 26.7372 20.8999 27.1034ZM32.538 14.1396V9.58916L38.9266 3.20048V7.75091L32.538 14.1396ZM38.4073 15.4586H33.8704L40.2591 9.06988H44.796L38.4073 15.4586Z" fill="#FF3F3A"/>
<path d="M7.62444 40.3401C7.45016 40.1658 7.20838 40.0654 6.96182 40.0654C6.71423 40.0654 6.47244 40.1657 6.2991 40.3401C6.12379 40.5145 6.02441 40.7563 6.02441 41.0028C6.02441 41.2494 6.12379 41.4912 6.2991 41.6656C6.47338 41.8399 6.71432 41.9402 6.96182 41.9402C7.20838 41.9402 7.45016 41.8399 7.62444 41.6656C7.79882 41.4912 7.89922 41.2494 7.89922 41.0028C7.89922 40.7563 7.79891 40.5154 7.62444 40.3401Z" fill="#FF3F3A"/>
</g>
<defs>
<clipPath id="clip0_51138_314">
<rect width="48" height="48" fill="white"/>
</clipPath>
</defs>
</svg>
