<svg width="48" height="48" viewBox="0 0 48 48" fill="none" xmlns="http://www.w3.org/2000/svg">
<g clip-path="url(#clip0_51138_283)">
<path d="M45.3492 26.4414C47.0849 23.6908 47.9997 20.5243 47.9997 17.2499C47.9997 7.73831 40.2614 0 30.7498 0C27.5638 0 24.4509 0.875719 21.7479 2.53247C21.3065 2.80303 21.1679 3.38016 21.4386 3.82162C21.709 4.263 22.2862 4.40166 22.7277 4.131C25.1358 2.65509 27.9098 1.875 30.7499 1.875C39.2276 1.875 46.1248 8.77209 46.1248 17.2499C46.1248 20.3246 45.2204 23.2919 43.5092 25.8309C43.2822 26.1677 43.3016 26.6031 43.5352 26.9157L44.5625 30.7497L40.439 29.6448C40.1689 29.5724 39.8806 29.6242 39.6528 29.7864C37.043 31.6434 33.9644 32.6249 30.7499 32.6249C28.9187 32.6249 27.1276 32.305 25.4242 31.6757C24.225 27.2596 20.7406 23.7751 16.3245 22.576C15.6951 20.8726 15.375 19.0818 15.375 17.25C15.375 14.3784 16.1714 11.578 17.6782 9.1515C17.9513 8.71163 17.8161 8.13366 17.3762 7.86047C16.9365 7.58738 16.3583 7.72247 16.0852 8.16244C14.3938 10.8863 13.4999 14.0287 13.4999 17.25C13.4999 18.9363 13.742 20.5921 14.2192 22.1887C13.7974 22.1471 13.3699 22.1253 12.9374 22.1253C5.80369 22.1253 0 27.9291 0 35.0627C0 37.6229 0.74025 40.0806 2.14481 42.1991L1.1415 45.944C1.05478 46.2675 1.14731 46.6127 1.38412 46.8496C1.62094 47.0864 1.96603 47.1788 2.28966 47.0922L6.12731 46.0639C8.17106 47.3317 10.5163 48 12.9374 48C15.4016 48 17.7985 47.3044 19.869 45.9883C20.306 45.7105 20.435 45.1312 20.1573 44.6942C19.8795 44.2572 19.2999 44.1282 18.8632 44.4059C17.0937 45.5306 15.0448 46.125 12.9374 46.125C10.7437 46.125 8.62331 45.4839 6.80578 44.271C6.58144 44.1213 6.30347 44.0753 6.04275 44.1453L3.37275 44.8607L4.06781 42.2667C4.14028 41.9963 4.08806 41.7075 3.92541 41.4796C2.58394 39.5993 1.87491 37.3804 1.87491 35.0625C1.87491 28.9627 6.83756 24.0001 12.9373 24.0001C19.0371 24.0001 23.9998 28.9627 23.9998 35.0626C23.9998 36.3652 23.7758 37.6402 23.3341 38.852C23.1567 39.3383 23.4073 39.8765 23.8938 40.0538C24.3802 40.2311 24.9184 39.9806 25.0957 39.4942C25.6127 38.076 25.8748 36.585 25.8748 35.0626C25.8748 34.6301 25.8531 34.2027 25.8114 33.781C27.4082 34.2581 29.0642 34.4998 30.7499 34.4998C34.2069 34.4998 37.5243 33.4877 40.373 31.5682L45.6457 32.981C45.9694 33.0677 46.3144 32.9752 46.5513 32.7383C46.7881 32.5015 46.8806 32.1563 46.7939 31.8327L45.3492 26.4414Z" fill="#FF3F3A"/>
<path d="M35.5824 19.2461H26.0337C25.5159 19.2461 25.0962 19.6658 25.0962 20.1836C25.0962 23.3331 27.6586 25.8955 30.8081 25.8955C33.9576 25.8955 36.52 23.3331 36.52 20.1836C36.5199 19.6658 36.1001 19.2461 35.5824 19.2461ZM30.8081 24.0204C29.0158 24.0204 27.5065 22.785 27.0871 21.121H34.5292C34.1096 22.785 32.6003 24.0204 30.8081 24.0204Z" fill="#FF3F3A"/>
<path d="M38.1075 14.0455C37.8358 13.6046 37.2582 13.4675 36.8176 13.739L36.6953 13.8145C36.2549 14.0867 36.1184 14.6643 36.3906 15.1048C36.5679 15.3918 36.8749 15.5497 37.189 15.5497C37.3571 15.5497 37.5274 15.5045 37.6809 15.4096L37.801 15.3354C38.2418 15.0638 38.3791 14.4863 38.1075 14.0455Z" fill="#FF3F3A"/>
<path d="M25.2266 14.0454C24.955 13.6046 24.3773 13.4675 23.9367 13.739L23.8145 13.8145C23.374 14.0867 23.2375 14.6644 23.5098 15.1048C23.6871 15.3918 23.994 15.5496 24.3082 15.5496C24.4763 15.5496 24.6465 15.5044 24.8001 15.4095L24.9202 15.3353C25.361 15.0637 25.4982 14.4862 25.2266 14.0454Z" fill="#FF3F3A"/>
<path d="M8.44309 34.3997C8.26871 34.2253 8.02684 34.125 7.78027 34.125C7.53371 34.125 7.29193 34.2253 7.11746 34.3997C6.94309 34.5741 6.84277 34.8159 6.84277 35.0625C6.84277 35.3091 6.94309 35.5509 7.11746 35.7253C7.29184 35.8997 7.53371 36 7.78027 36C8.02684 36 8.26871 35.8997 8.44309 35.7253C8.61746 35.5509 8.71777 35.3091 8.71777 35.0625C8.71777 34.8159 8.61746 34.5741 8.44309 34.3997Z" fill="#FF3F3A"/>
<path d="M13.5993 34.3997C13.425 34.2253 13.1831 34.125 12.9365 34.125C12.69 34.125 12.4482 34.2253 12.2737 34.3997C12.0993 34.5741 11.999 34.8159 11.999 35.0625C11.999 35.3091 12.0993 35.5509 12.2737 35.7253C12.4481 35.8997 12.69 36 12.9365 36C13.1831 36 13.425 35.8997 13.5993 35.7253C13.7737 35.5509 13.874 35.3091 13.874 35.0625C13.874 34.8159 13.7737 34.5741 13.5993 34.3997Z" fill="#FF3F3A"/>
<path d="M18.7566 34.3997C18.5822 34.2253 18.3403 34.125 18.0938 34.125C17.8472 34.125 17.6054 34.2253 17.4309 34.3997C17.2566 34.5741 17.1562 34.8159 17.1562 35.0625C17.1562 35.3091 17.2566 35.5509 17.4309 35.7253C17.6053 35.8997 17.8472 36 18.0938 36C18.3403 36 18.5822 35.8997 18.7566 35.7253C18.9309 35.5509 19.0312 35.3091 19.0312 35.0625C19.0312 34.8159 18.9309 34.5741 18.7566 34.3997Z" fill="#FF3F3A"/>
<path d="M22.9529 41.9182C22.7785 41.7439 22.5366 41.6436 22.29 41.6436C22.0425 41.6436 21.8016 41.7439 21.6272 41.9182C21.4529 42.0926 21.3525 42.3345 21.3525 42.5811C21.3525 42.8276 21.4529 43.0695 21.6272 43.2439C21.8016 43.4182 22.0425 43.5186 22.29 43.5186C22.5366 43.5186 22.7785 43.4182 22.9529 43.2439C23.1272 43.0695 23.2275 42.8276 23.2275 42.5811C23.2275 42.3345 23.1272 42.0926 22.9529 41.9182Z" fill="#FF3F3A"/>
<path d="M19.9099 5.0218C19.7355 4.84742 19.4936 4.74805 19.2471 4.74805C18.9996 4.74805 18.7586 4.84742 18.5843 5.0218C18.4089 5.19711 18.3096 5.43805 18.3096 5.68555C18.3096 5.93211 18.4089 6.17398 18.5843 6.34836C18.7586 6.52273 18.9995 6.62211 19.2471 6.62211C19.4936 6.62211 19.7355 6.52273 19.9099 6.34836C20.0843 6.17398 20.1846 5.93211 20.1846 5.68555C20.1846 5.43805 20.0843 5.19711 19.9099 5.0218Z" fill="#FF3F3A"/>
</g>
<defs>
<clipPath id="clip0_51138_283">
<rect width="48" height="48" fill="white"/>
</clipPath>
</defs>
</svg>
