<svg width="48" height="48" viewBox="0 0 48 48" fill="none" xmlns="http://www.w3.org/2000/svg">
<path d="M43.631 17.7122C43.4567 17.5378 43.2157 17.4375 42.9683 17.4375C42.7217 17.4375 42.4798 17.5378 42.3055 17.7122C42.1311 17.8866 42.0308 18.1284 42.0308 18.375C42.0308 18.6216 42.131 18.8634 42.3055 19.0378C42.4799 19.2122 42.7217 19.3125 42.9683 19.3125C43.2158 19.3125 43.4567 19.2122 43.631 19.0378C43.8054 18.8634 43.9058 18.6216 43.9058 18.375C43.9058 18.1284 43.8054 17.8866 43.631 17.7122Z" fill="#FF3F3A"/>
<path d="M42.7812 6.9375H41.7076C41.8735 6.76837 41.9762 6.53691 41.9762 6.28125V5.0625C41.9762 3.30488 40.5463 1.875 38.7887 1.875C37.0311 1.875 35.6012 3.30488 35.6012 5.0625V6.9375H26.907C27.0729 6.76837 27.1756 6.53691 27.1756 6.28125V5.0625C27.1756 3.30488 25.7457 1.875 23.9881 1.875C22.2305 1.875 20.8006 3.30488 20.8006 5.0625V6.9375H12.1064C12.2723 6.76837 12.375 6.53691 12.375 6.28125V5.0625C12.375 3.30488 10.9451 1.875 9.1875 1.875C7.42987 1.875 6 3.30488 6 5.0625V6.9375H5.21878C2.34113 6.9375 0 9.27863 0 12.1563V43.3125C0 44.8633 1.26169 46.125 2.8125 46.125H19C19.5177 46.125 19.9375 45.7053 19.9375 45.1875C19.9375 44.6697 19.5177 44.25 19 44.25H2.8125C2.29556 44.25 1.875 43.8294 1.875 43.3125V19.3125H38.3756C38.8933 19.3125 39.3131 18.8928 39.3131 18.375C39.3131 17.8572 38.8933 17.4375 38.3756 17.4375H1.875V12.1563C1.875 10.3125 3.375 8.8125 5.21878 8.8125H6V11.0782C6 12.8359 7.42987 14.2657 9.1875 14.2657C10.9451 14.2657 12.375 12.8359 12.375 11.0782C12.375 10.5605 11.9552 10.1407 11.4375 10.1407C10.9198 10.1407 10.5 10.5605 10.5 11.0782C10.5 11.802 9.91125 12.3907 9.1875 12.3907C8.46375 12.3907 7.875 11.802 7.875 11.0782V8.8125H20.8006V11.0782C20.8006 12.8359 22.2305 14.2657 23.9881 14.2657C25.7457 14.2657 27.1756 12.8359 27.1756 11.0782C27.1756 10.5605 26.7558 10.1407 26.2381 10.1407C25.7204 10.1407 25.3006 10.5605 25.3006 11.0782C25.3006 11.802 24.7118 12.3907 23.9881 12.3907C23.2643 12.3907 22.6756 11.802 22.6756 11.0782V8.8125H35.6012V11.0782C35.6012 12.8359 37.0311 14.2657 38.7887 14.2657C40.5463 14.2657 41.9762 12.8359 41.9762 11.0782C41.9762 10.5605 41.5564 10.1407 41.0387 10.1407C40.521 10.1407 40.1012 10.5605 40.1012 11.0782C40.1012 11.802 39.5124 12.3907 38.7887 12.3907C38.0649 12.3907 37.4762 11.802 37.4762 11.0782V8.8125H42.7812C44.625 8.8125 46.125 10.3125 46.125 12.1563V43.3125C46.125 43.8294 45.7044 44.25 45.1875 44.25H29C28.4823 44.25 28.0625 44.6697 28.0625 45.1875C28.0625 45.7053 28.4823 46.125 29 46.125H45.1875C46.7383 46.125 48 44.8633 48 43.3125V12.1563C48 9.27863 45.6589 6.9375 42.7812 6.9375ZM7.875 6.9375V5.0625C7.875 4.33875 8.46375 3.75 9.1875 3.75C9.91125 3.75 10.5 4.33875 10.5 5.0625V6.28125C10.5 6.53691 10.6027 6.76837 10.7686 6.9375H7.875ZM22.6756 6.9375V5.0625C22.6756 4.33875 23.2643 3.75 23.9881 3.75C24.7118 3.75 25.3006 4.33875 25.3006 5.0625V6.28125C25.3006 6.53691 25.4032 6.76837 25.5692 6.9375H22.6756ZM37.4762 6.9375V5.0625C37.4762 4.33875 38.0649 3.75 38.7887 3.75C39.5124 3.75 40.1012 4.33875 40.1012 5.0625V6.28125C40.1012 6.53691 40.2038 6.76837 40.3698 6.9375H37.4762Z" fill="#FF3F3A"/>
<path d="M9 22.3125C6.82884 22.3125 5.0625 24.0788 5.0625 26.25C5.0625 28.4212 6.82884 30.1875 9 30.1875C11.1712 30.1875 12.9375 28.4212 12.9375 26.25C12.9375 24.0788 11.1712 22.3125 9 22.3125ZM9 28.3125C7.86272 28.3125 6.9375 27.3873 6.9375 26.25C6.9375 25.1127 7.86272 24.1875 9 24.1875C10.1373 24.1875 11.0625 25.1127 11.0625 26.25C11.0625 27.3873 10.1373 28.3125 9 28.3125Z" fill="#FF3F3A"/>
<path d="M39 22.3125C36.8288 22.3125 35.0625 24.0788 35.0625 26.25C35.0625 28.4212 36.8288 30.1875 39 30.1875C41.1712 30.1875 42.9375 28.4212 42.9375 26.25C42.9375 24.0788 41.1712 22.3125 39 22.3125ZM39 28.3125C37.8627 28.3125 36.9375 27.3873 36.9375 26.25C36.9375 25.1127 37.8627 24.1875 39 24.1875C40.1373 24.1875 41.0625 25.1127 41.0625 26.25C41.0625 27.3873 40.1373 28.3125 39 28.3125Z" fill="#FF3F3A"/>
<path d="M29.001 22.3125C26.8298 22.3125 25.0635 24.0788 25.0635 26.25C25.0635 28.4212 26.8298 30.1875 29.001 30.1875C31.1721 30.1875 32.9385 28.4212 32.9385 26.25C32.9385 24.0788 31.1721 22.3125 29.001 22.3125ZM29.001 28.3125C27.8637 28.3125 26.9385 27.3873 26.9385 26.25C26.9385 25.1127 27.8637 24.1875 29.001 24.1875C30.1383 24.1875 31.0635 25.1127 31.0635 26.25C31.0635 27.3873 30.1383 28.3125 29.001 28.3125Z" fill="#FF3F3A"/>
<path d="M18.999 22.3125C16.8279 22.3125 15.0615 24.0788 15.0615 26.25C15.0615 28.4212 16.8279 30.1875 18.999 30.1875C21.1702 30.1875 22.9365 28.4212 22.9365 26.25C22.9365 24.0788 21.1702 22.3125 18.999 22.3125ZM18.999 28.3125C17.8617 28.3125 16.9365 27.3873 16.9365 26.25C16.9365 25.1127 17.8617 24.1875 18.999 24.1875C20.1363 24.1875 21.0615 25.1127 21.0615 26.25C21.0615 27.3873 20.1363 28.3125 18.999 28.3125Z" fill="#FF3F3A"/>
<path d="M9 33.75C6.82884 33.75 5.0625 35.5163 5.0625 37.6875C5.0625 39.8587 6.82884 41.625 9 41.625C11.1712 41.625 12.9375 39.8587 12.9375 37.6875C12.9375 35.5163 11.1712 33.75 9 33.75ZM9 39.75C7.86272 39.75 6.9375 38.8248 6.9375 37.6875C6.9375 36.5502 7.86272 35.625 9 35.625C10.1373 35.625 11.0625 36.5502 11.0625 37.6875C11.0625 38.8248 10.1373 39.75 9 39.75Z" fill="#FF3F3A"/>
<path d="M29.001 33.75C26.8298 33.75 25.0635 35.5163 25.0635 37.6875C25.0635 39.8587 26.8298 41.625 29.001 41.625C31.1721 41.625 32.9385 39.8587 32.9385 37.6875C32.9385 35.5163 31.1721 33.75 29.001 33.75ZM29.001 39.75C27.8637 39.75 26.9385 38.8248 26.9385 37.6875C26.9385 36.5502 27.8637 35.625 29.001 35.625C30.1383 35.625 31.0635 36.5502 31.0635 37.6875C31.0635 38.8248 30.1383 39.75 29.001 39.75Z" fill="#FF3F3A"/>
<path d="M39 33.75C36.8288 33.75 35.0625 35.5163 35.0625 37.6875C35.0625 39.8587 36.8288 41.625 39 41.625C41.1712 41.625 42.9375 39.8587 42.9375 37.6875C42.9375 35.5163 41.1712 33.75 39 33.75ZM39 39.75C37.8627 39.75 36.9375 38.8248 36.9375 37.6875C36.9375 36.5502 37.8627 35.625 39 35.625C40.1373 35.625 41.0625 36.5502 41.0625 37.6875C41.0625 38.8248 40.1373 39.75 39 39.75Z" fill="#FF3F3A"/>
<path d="M18.999 33.75C16.8279 33.75 15.0615 35.5163 15.0615 37.6875C15.0615 39.8587 16.8279 41.625 18.999 41.625C21.1702 41.625 22.9365 39.8587 22.9365 37.6875C22.9365 35.5163 21.1702 33.75 18.999 33.75ZM18.999 39.75C17.8617 39.75 16.9365 38.8248 16.9365 37.6875C16.9365 36.5502 17.8617 35.625 18.999 35.625C20.1363 35.625 21.0615 36.5502 21.0615 37.6875C21.0615 38.8248 20.1363 39.75 18.999 39.75Z" fill="#FF3F3A"/>
<path d="M24.6627 44.5247C24.4884 44.3503 24.2466 44.25 24 44.25C23.7524 44.25 23.5116 44.3503 23.3372 44.5247C23.1619 44.6991 23.0625 44.9409 23.0625 45.1875C23.0625 45.4341 23.1619 45.6759 23.3372 45.8503C23.5116 46.0247 23.7525 46.125 24 46.125C24.2466 46.125 24.4884 46.0247 24.6627 45.8503C24.8371 45.6759 24.9375 45.4341 24.9375 45.1875C24.9375 44.9409 24.8372 44.6991 24.6627 44.5247Z" fill="#FF3F3A"/>
</svg>
