<svg width="48" height="48" viewBox="0 0 48 48" fill="none" xmlns="http://www.w3.org/2000/svg">
<g clip-path="url(#clip0_51138_385)">
<path d="M32.802 23.6183C32.6278 23.444 32.386 23.3438 32.1397 23.3438C31.8933 23.3438 31.6515 23.4439 31.4772 23.6183C31.303 23.7927 31.2026 24.0344 31.2026 24.2808C31.2026 24.5272 31.3028 24.7689 31.4772 24.9431C31.6515 25.1174 31.8933 25.2178 32.1397 25.2178C32.386 25.2178 32.6269 25.1176 32.802 24.9431C32.9763 24.7689 33.0767 24.5272 33.0767 24.2808C33.0767 24.0344 32.9764 23.7926 32.802 23.6183Z" fill="#FF3F3A"/>
<path d="M38.9807 2.54199H8.9955C8.47809 2.54199 8.05847 2.96162 8.05847 3.47902V18.4716C8.05847 18.989 8.47809 19.4086 8.9955 19.4086H23.0511V23.3442H7.04353C6.52612 23.3442 6.1065 23.7638 6.1065 24.2812V31.5901H0.937031C0.419625 31.5901 0 32.0097 0 32.5271V44.5212C0 45.0386 0.419625 45.4582 0.937031 45.4582H12.9311C13.4485 45.4582 13.8682 45.0386 13.8682 44.5212V32.5271C13.8682 32.0097 13.4485 31.5901 12.9311 31.5901H7.98056V25.2182H23.0511V31.5901H18.003C17.4856 31.5901 17.066 32.0097 17.066 32.5271V44.5212C17.066 45.0386 17.4856 45.4582 18.003 45.4582H29.9971C30.5145 45.4582 30.9341 45.0386 30.9341 44.5212V32.5271C30.9341 32.0096 30.5145 31.5901 29.9971 31.5901H24.9252V25.2182H28.6733C29.1908 25.2182 29.6104 24.7986 29.6104 24.2812C29.6104 23.7638 29.1908 23.3442 28.6733 23.3442H24.9252V19.4086H38.9808C39.4982 19.4086 39.9178 18.989 39.9178 18.4716V3.47902C39.9177 2.96152 39.4981 2.54199 38.9807 2.54199ZM11.9941 33.4641V43.5841H1.87406V33.4641H11.9941ZM29.06 33.4641V43.5841H18.94V33.4641H29.06ZM38.0437 17.5345H9.93253V8.16418H16.2803C16.7978 8.16418 17.2174 7.74455 17.2174 7.22715C17.2174 6.70974 16.7978 6.29012 16.2803 6.29012H9.93253V4.41605H38.0436V17.5345H38.0437Z" fill="#FF3F3A"/>
<path d="M47.0634 31.5896H41.8702V24.2808C41.8702 23.7634 41.4505 23.3438 40.9331 23.3438H35.7952C35.2778 23.3438 34.8581 23.7634 34.8581 24.2808C34.8581 24.7982 35.2778 25.2178 35.7952 25.2178H39.9961V31.5896H35.0694C34.5519 31.5896 34.1323 32.0092 34.1323 32.5267V44.5207C34.1323 45.0382 34.5519 45.4578 35.0694 45.4578H47.0634C47.5809 45.4578 48.0005 45.0382 48.0005 44.5207V32.5267C48.0005 32.0092 47.5809 31.5896 47.0634 31.5896ZM46.1264 43.5836H36.0064V33.4637H46.1264V43.5836Z" fill="#FF3F3A"/>
<path d="M20.8847 6.56463C20.7103 6.39035 20.4686 6.29004 20.2223 6.29004C19.9749 6.29004 19.7341 6.39016 19.5588 6.56463C19.3846 6.73891 19.2852 6.98069 19.2852 7.22707C19.2852 7.47354 19.3845 7.71523 19.5588 7.88941C19.734 8.0637 19.9758 8.1641 20.2223 8.1641C20.4688 8.1641 20.7095 8.06388 20.8847 7.88941C21.059 7.71523 21.1593 7.47345 21.1593 7.22707C21.1593 6.98069 21.0592 6.73891 20.8847 6.56463Z" fill="#FF3F3A"/>
</g>
<defs>
<clipPath id="clip0_51138_385">
<rect width="48" height="48" fill="white"/>
</clipPath>
</defs>
</svg>
