<svg width="24" height="24" viewBox="0 0 24 24" fill="none" xmlns="http://www.w3.org/2000/svg">
<path fill-rule="evenodd" clip-rule="evenodd" d="M8 13.5C8 12.9477 8.44772 12.5 9 12.5H15C15.5523 12.5 16 12.9477 16 13.5C16 14.0523 15.5523 14.5 15 14.5H9C8.44772 14.5 8 14.0523 8 13.5Z" fill="#1E212C"/>
<path fill-rule="evenodd" clip-rule="evenodd" d="M8 17.25C8 16.6977 8.44772 16.25 9 16.25H12C12.5523 16.25 13 16.6977 13 17.25C13 17.8023 12.5523 18.25 12 18.25H9C8.44772 18.25 8 17.8023 8 17.25Z" fill="#1E212C"/>
<path fill-rule="evenodd" clip-rule="evenodd" d="M9.04292 1.54289C9.23045 1.35536 9.48481 1.25 9.75002 1.25H16.5C18.7092 1.25 20.5 3.04086 20.5 5.25L20.5 18.75C20.5 20.9591 18.7092 22.75 16.5 22.75H7.5C5.29086 22.75 3.49999 20.9591 3.5 18.75L3.50002 7.5C3.50003 7.23478 3.60538 6.98043 3.79292 6.79289L9.04292 1.54289ZM9.49999 3.91424V7.25H6.16424L9.49999 3.91424ZM5.50002 9.25L5.5 18.75C5.5 19.8546 6.39543 20.75 7.5 20.75H16.5C17.6046 20.75 18.5 19.8546 18.5 18.75L18.5 5.25C18.5 4.14543 17.6046 3.25 16.5 3.25H11.5V8.25C11.5 8.80228 11.0523 9.25 10.5 9.25H5.50002Z" fill="#1E212C"/>
</svg>
