<svg width="16" height="17" viewBox="0 0 16 17" fill="none" xmlns="http://www.w3.org/2000/svg">
<path fill-rule="evenodd" clip-rule="evenodd" d="M5.00016 1.33398C5.36835 1.33398 5.66683 1.63246 5.66683 2.00065V2.33399L10.3335 2.334V2.00065C10.3335 1.63246 10.632 1.33398 11.0002 1.33398C11.3684 1.33398 11.6668 1.63246 11.6668 2.00065V2.334L12.5002 2.33401C13.9729 2.33401 15.1668 3.52792 15.1668 5.00067V13.0006C15.1668 14.4734 13.9729 15.6673 12.5002 15.6673L3.50016 15.6673C2.0274 15.6673 0.833496 14.4734 0.833496 13.0007L0.833496 6.50078L0.833496 5.00065C0.833496 3.52789 2.02741 2.33398 3.50017 2.33399L4.3335 2.33399V2.00065C4.3335 1.63246 4.63197 1.33398 5.00016 1.33398ZM4.3335 3.66732L3.50017 3.66732C2.76378 3.66732 2.16683 4.26427 2.16683 5.00065V5.83398H13.8335V5.00067C13.8335 4.26429 13.2365 3.66734 12.5002 3.66734L11.6668 3.66734V4.00065C11.6668 4.36884 11.3684 4.66732 11.0002 4.66732C10.632 4.66732 10.3335 4.36884 10.3335 4.00065V3.66734L5.66683 3.66733V4.00065C5.66683 4.36884 5.36835 4.66732 5.00016 4.66732C4.63197 4.66732 4.3335 4.36884 4.3335 4.00065V3.66732ZM13.8335 7.16732H2.16683L2.16683 13.0007C2.16683 13.737 2.76378 14.334 3.50016 14.334L12.5002 14.334C13.2365 14.334 13.8335 13.737 13.8335 13.0006V7.16732Z" fill="#787A80"/>
</svg>
