<svg width="24" height="24" viewBox="0 0 24 24" fill="none" xmlns="http://www.w3.org/2000/svg">
<path fill-rule="evenodd" clip-rule="evenodd" d="M6.2 6.39961C6.2 3.19636 8.79675 0.599609 12 0.599609C15.2033 0.599609 17.8 3.19636 17.8 6.39961V11.1996C17.8 14.4029 15.2033 16.9996 12 16.9996C8.79675 16.9996 6.2 14.4029 6.2 11.1996V6.39961ZM12 2.59961C9.90132 2.59961 8.2 4.30093 8.2 6.39961V11.1996C8.2 13.2983 9.90132 14.9996 12 14.9996C14.0987 14.9996 15.8 13.2983 15.8 11.1996V6.39961C15.8 4.30093 14.0987 2.59961 12 2.59961Z" fill="#1E212C"/>
<path fill-rule="evenodd" clip-rule="evenodd" d="M4 8.59961C4.55228 8.59961 5 9.04732 5 9.59961V11.1996C5 15.0656 8.13401 18.1996 12 18.1996C15.866 18.1996 19 15.0656 19 11.1996V9.59961C19 9.04732 19.4477 8.59961 20 8.59961C20.5523 8.59961 21 9.04732 21 9.59961V11.1996C21 16.1702 16.9706 20.1996 12 20.1996C7.02944 20.1996 3 16.1702 3 11.1996V9.59961C3 9.04732 3.44772 8.59961 4 8.59961Z" fill="#1E212C"/>
<path fill-rule="evenodd" clip-rule="evenodd" d="M12 18.9996C12.5523 18.9996 13 19.4473 13 19.9996V21.3996H15.2C15.7523 21.3996 16.2 21.8473 16.2 22.3996C16.2 22.9519 15.7523 23.3996 15.2 23.3996H8.8C8.24772 23.3996 7.8 22.9519 7.8 22.3996C7.8 21.8473 8.24772 21.3996 8.8 21.3996H11V19.9996C11 19.4473 11.4477 18.9996 12 18.9996Z" fill="#1E212C"/>
</svg>
