<svg width="24" height="24" viewBox="0 0 24 24" fill="none" xmlns="http://www.w3.org/2000/svg">
<path fill-rule="evenodd" clip-rule="evenodd" d="M16.0678 10.411C17.1151 11.2115 17.1151 12.7886 16.0678 13.5891L11.4879 17.0895C10.1718 18.0954 8.27336 17.1569 8.27336 15.5005V8.49961C8.27336 6.84313 10.1718 5.90469 11.4879 6.91058L16.0678 10.411ZM14.8533 12L10.2734 8.49961L10.2734 15.5005L14.8533 12Z" fill="#1E212C"/>
<path fill-rule="evenodd" clip-rule="evenodd" d="M12 3C7.02944 3 3 7.02944 3 12C3 16.9706 7.02944 21 12 21C16.9706 21 21 16.9706 21 12C21 7.02944 16.9706 3 12 3ZM1 12C1 5.92487 5.92487 1 12 1C18.0751 1 23 5.92487 23 12C23 18.0751 18.0751 23 12 23C5.92487 23 1 18.0751 1 12Z" fill="#1E212C"/>
</svg>
