<svg width="20" height="20" viewBox="0 0 20 20" fill="none" xmlns="http://www.w3.org/2000/svg">
<path d="M14.6354 0.836822L12.321 0.833008C9.72086 0.833008 8.04054 2.60392 8.04054 5.34487V7.42513H5.71352C5.51244 7.42513 5.34961 7.59259 5.34961 7.79915V10.8132C5.34961 11.0198 5.51263 11.187 5.71352 11.187H8.04054V18.7925C8.04054 18.9991 8.20337 19.1663 8.40445 19.1663H11.4405C11.6416 19.1663 11.8045 18.9989 11.8045 18.7925V11.187H14.5253C14.7264 11.187 14.8892 11.0198 14.8892 10.8132L14.8903 7.79915C14.8903 7.69997 14.8519 7.60499 14.7837 7.5348C14.7156 7.46461 14.6227 7.42513 14.5262 7.42513H11.8045V5.66166C11.8045 4.81407 12.0011 4.38379 13.0759 4.38379L14.635 4.38322C14.8359 4.38322 14.9987 4.21576 14.9987 4.00939V1.21065C14.9987 1.00447 14.8361 0.837204 14.6354 0.836822Z" fill="#787A80"/>
</svg>
