<svg width="20" height="20" viewBox="0 0 20 20" fill="none" xmlns="http://www.w3.org/2000/svg">
<path d="M10.1756 8.75219H18.4051C18.4959 9.25921 18.5413 9.74352 18.5413 10.2051C18.5413 11.8472 18.197 13.3134 17.5084 14.6037C16.8198 15.8939 15.8379 16.9022 14.5628 17.6287C13.2877 18.3552 11.8253 18.7184 10.1756 18.7184C8.98754 18.7184 7.85622 18.4895 6.78165 18.0317C5.70708 17.5739 4.78008 16.9552 4.00064 16.1758C3.2212 15.3963 2.60257 14.4693 2.14475 13.3948C1.68692 12.3202 1.45801 11.1889 1.45801 10.0008C1.45801 8.81273 1.68692 7.68141 2.14475 6.60685C2.60257 5.53228 3.2212 4.60528 4.00064 3.82584C4.78008 3.0464 5.70708 2.42777 6.78165 1.96994C7.85622 1.51212 8.98754 1.2832 10.1756 1.2832C12.4458 1.2832 14.3944 2.04372 16.0214 3.56476L13.649 5.84633C12.7183 4.94581 11.5604 4.49555 10.1756 4.49555C9.19942 4.49555 8.29702 4.74149 7.46839 5.23337C6.63976 5.72525 5.98329 6.39307 5.49898 7.23683C5.01467 8.08059 4.77251 9.00192 4.77251 10.0008C4.77251 10.9997 5.01467 11.921 5.49898 12.7648C5.98329 13.6086 6.63976 14.2764 7.46839 14.7683C8.29702 15.2601 9.19942 15.5061 10.1756 15.5061C10.834 15.5061 11.4394 15.4153 11.9918 15.2336C12.5442 15.052 12.9982 14.825 13.3539 14.5526C13.7096 14.2802 14.0198 13.9699 14.2847 13.6218C14.5496 13.2737 14.7444 12.9445 14.8693 12.6343C14.9941 12.324 15.0793 12.0289 15.1247 11.7489H10.1756V8.75219Z" fill="#787A80"/>
</svg>
