<svg width="20" height="20" viewBox="0 0 20 20" fill="none" xmlns="http://www.w3.org/2000/svg">
<path d="M18.3295 18.3337L18.3337 18.333V12.2205C18.3337 9.23019 17.6899 6.92671 14.1941 6.92671C12.5135 6.92671 11.3857 7.84894 10.9253 8.72324H10.8767V7.20588H7.56212V18.333H11.0135V12.8232C11.0135 11.3726 11.2885 9.96977 13.085 9.96977C14.8552 9.96977 14.8816 11.6253 14.8816 12.9163V18.3337H18.3295Z" fill="#787A80"/>
<path d="M1.94199 7.20657H5.39754V18.3337H1.94199V7.20657Z" fill="#787A80"/>
<path d="M3.66838 1.66699C2.56352 1.66699 1.66699 2.56352 1.66699 3.66838C1.66699 4.77324 2.56352 5.68852 3.66838 5.68852C4.77324 5.68852 5.66977 4.77324 5.66977 3.66838C5.66908 2.56352 4.77255 1.66699 3.66838 1.66699Z" fill="#787A80"/>
</svg>
