<svg width="20" height="20" viewBox="0 0 20 20" fill="none" xmlns="http://www.w3.org/2000/svg">
<path d="M18.75 4.8106C18.1059 5.08388 17.4148 5.26922 16.6887 5.35196C17.4301 4.92683 17.9976 4.25252 18.2666 3.45149C17.5711 3.84519 16.8035 4.13106 15.9855 4.28603C15.3305 3.61695 14.3988 3.2002 13.3653 3.2002C11.3827 3.2002 9.77523 4.73942 9.77523 6.63674C9.77523 6.90583 9.80694 7.16865 9.86819 7.41997C6.88501 7.2765 4.23973 5.90797 2.46928 3.82843C2.1598 4.33523 1.98374 4.92576 1.98374 5.55613C1.98374 6.74878 2.618 7.8011 3.58033 8.41677C2.992 8.39793 2.43866 8.24296 1.95423 7.98537V8.0283C1.95423 9.69317 3.19213 11.0826 4.83353 11.3989C4.5328 11.4764 4.21568 11.5193 3.88761 11.5193C3.6558 11.5193 3.43161 11.4973 3.2118 11.4554C3.66889 12.8219 4.99429 13.8156 6.56463 13.8428C5.33657 14.7642 3.7881 15.3119 2.10624 15.3119C1.81646 15.3119 1.53103 15.2951 1.25 15.2647C2.83893 16.2417 4.7253 16.8113 6.75273 16.8113C13.3566 16.8113 16.9665 11.5738 16.9665 7.0315L16.9544 6.5865C17.6597 6.1048 18.2699 5.49959 18.75 4.8106Z" fill="#787A80"/>
</svg>
