<svg width="16" height="16" viewBox="0 0 16 16" fill="none" xmlns="http://www.w3.org/2000/svg">
<g clip-path="url(#clip0_2492_14491)">
<path d="M7.99984 15.3327C12.0432 15.3327 15.3332 12.043 15.3332 7.99935C15.3332 7.30141 15.2357 6.61361 15.0428 5.9549C14.9478 5.63099 14.6096 5.44495 14.2848 5.53998C13.9606 5.63472 13.7751 5.97415 13.8698 6.29805C14.0296 6.84531 14.1109 7.41793 14.1109 7.99935C14.1109 11.369 11.3695 14.1105 7.99984 14.1105C4.63022 14.1105 1.88873 11.369 1.88873 7.99935C1.88873 4.62973 4.63022 1.88824 7.99984 1.88824C9.22445 1.88824 10.4027 2.24631 11.4071 2.92352C11.6866 3.11225 12.0668 3.0381 12.2552 2.7585C12.4438 2.47861 12.3703 2.09875 12.0904 1.91017C10.8834 1.0963 9.46898 0.666016 7.99984 0.666016C3.95645 0.666016 0.666504 3.95566 0.666504 7.99935C0.666504 12.043 3.95645 15.3327 7.99984 15.3327Z" fill="#FF3F3A"/>
<path d="M14.8617 1.52787L7.99971 8.38953L5.8044 6.19454C5.54399 5.93429 5.12211 5.93429 4.86169 6.19454C4.60144 6.45496 4.60144 6.87683 4.86169 7.13725L7.52836 9.80391C7.65873 9.93428 7.82898 9.99923 7.99971 9.99923C8.17045 9.99923 8.3407 9.93428 8.47107 9.80391L15.8044 2.47058C16.0647 2.21016 16.0647 1.78829 15.8044 1.52787C15.544 1.26762 15.1221 1.26762 14.8617 1.52787Z" fill="#FF3F3A"/>
</g>
<defs>
<clipPath id="clip0_2492_14491">
<rect width="16" height="16" fill="white"/>
</clipPath>
</defs>
</svg>
